<?xml version="1.0" encoding="utf-8" standalone="no"?>
<!DOCTYPE svg PUBLIC "-//W3C//DTD SVG 1.1//EN"
  "http://www.w3.org/Graphics/SVG/1.1/DTD/svg11.dtd">
<!-- Created with matplotlib (https://matplotlib.org/) -->
<svg height="266.907408pt" version="1.1" viewBox="0 0 397.249375 266.907408" width="397.249375pt" xmlns="http://www.w3.org/2000/svg" xmlns:xlink="http://www.w3.org/1999/xlink">
 <defs>
  <style type="text/css">
*{stroke-linecap:butt;stroke-linejoin:round;}
  </style>
 </defs>
 <g id="figure_1">
  <g id="patch_1">
   <path d="M 0 266.907408 
L 397.249375 266.907408 
L 397.249375 0 
L 0 0 
z
" style="fill:#ffffff;"/>
  </g>
  <g id="axes_1">
   <g id="patch_2">
    <path d="M 55.249375 225.479908 
L 390.049375 225.479908 
L 390.049375 8.039908 
L 55.249375 8.039908 
z
" style="fill:#ffffff;"/>
   </g>
   <g id="matplotlib.axis_1">
    <g id="xtick_1">
     <g id="line2d_1">
      <defs>
       <path d="M 0 0 
L 0 3.5 
" id="m2fe5293010" style="stroke:#000000;stroke-width:0.8;"/>
      </defs>
      <g>
       <use style="fill-opacity:0;stroke:#000000;stroke-width:0.8;" x="78.537805" xlink:href="#m2fe5293010" y="225.479908"/>
      </g>
     </g>
     <g id="text_1">
      <!-- −10 -->
      <defs>
       <path d="M 10.59375 35.5 
L 73.1875 35.5 
L 73.1875 27.203125 
L 10.59375 27.203125 
z
" id="DejaVuSans-8722"/>
       <path d="M 12.40625 8.296875 
L 28.515625 8.296875 
L 28.515625 63.921875 
L 10.984375 60.40625 
L 10.984375 69.390625 
L 28.421875 72.90625 
L 38.28125 72.90625 
L 38.28125 8.296875 
L 54.390625 8.296875 
L 54.390625 0 
L 12.40625 0 
z
" id="DejaVuSans-49"/>
       <path d="M 31.78125 66.40625 
Q 24.171875 66.40625 20.328125 58.90625 
Q 16.5 51.421875 16.5 36.375 
Q 16.5 21.390625 20.328125 13.890625 
Q 24.171875 6.390625 31.78125 6.390625 
Q 39.453125 6.390625 43.28125 13.890625 
Q 47.125 21.390625 47.125 36.375 
Q 47.125 51.421875 43.28125 58.90625 
Q 39.453125 66.40625 31.78125 66.40625 
z
M 31.78125 74.21875 
Q 44.046875 74.21875 50.515625 64.515625 
Q 56.984375 54.828125 56.984375 36.375 
Q 56.984375 17.96875 50.515625 8.265625 
Q 44.046875 -1.421875 31.78125 -1.421875 
Q 19.53125 -1.421875 13.0625 8.265625 
Q 6.59375 17.96875 6.59375 36.375 
Q 6.59375 54.828125 13.0625 64.515625 
Q 19.53125 74.21875 31.78125 74.21875 
z
" id="DejaVuSans-48"/>
      </defs>
      <g transform="translate(67.985461 240.078346)scale(0.1 -0.1)">
       <use xlink:href="#DejaVuSans-8722"/>
       <use x="83.789062" xlink:href="#DejaVuSans-49"/>
       <use x="147.412109" xlink:href="#DejaVuSans-48"/>
      </g>
     </g>
    </g>
    <g id="xtick_2">
     <g id="line2d_2">
      <g>
       <use style="fill-opacity:0;stroke:#000000;stroke-width:0.8;" x="150.59359" xlink:href="#m2fe5293010" y="225.479908"/>
      </g>
     </g>
     <g id="text_2">
      <!-- −5 -->
      <defs>
       <path d="M 10.796875 72.90625 
L 49.515625 72.90625 
L 49.515625 64.59375 
L 19.828125 64.59375 
L 19.828125 46.734375 
Q 21.96875 47.46875 24.109375 47.828125 
Q 26.265625 48.1875 28.421875 48.1875 
Q 40.625 48.1875 47.75 41.5 
Q 54.890625 34.8125 54.890625 23.390625 
Q 54.890625 11.625 47.5625 5.09375 
Q 40.234375 -1.421875 26.90625 -1.421875 
Q 22.3125 -1.421875 17.546875 -0.640625 
Q 12.796875 0.140625 7.71875 1.703125 
L 7.71875 11.625 
Q 12.109375 9.234375 16.796875 8.0625 
Q 21.484375 6.890625 26.703125 6.890625 
Q 35.15625 6.890625 40.078125 11.328125 
Q 45.015625 15.765625 45.015625 23.390625 
Q 45.015625 31 40.078125 35.4375 
Q 35.15625 39.890625 26.703125 39.890625 
Q 22.75 39.890625 18.8125 39.015625 
Q 14.890625 38.140625 10.796875 36.28125 
z
" id="DejaVuSans-53"/>
      </defs>
      <g transform="translate(143.222496 240.078346)scale(0.1 -0.1)">
       <use xlink:href="#DejaVuSans-8722"/>
       <use x="83.789062" xlink:href="#DejaVuSans-53"/>
      </g>
     </g>
    </g>
    <g id="xtick_3">
     <g id="line2d_3">
      <g>
       <use style="fill-opacity:0;stroke:#000000;stroke-width:0.8;" x="222.649375" xlink:href="#m2fe5293010" y="225.479908"/>
      </g>
     </g>
     <g id="text_3">
      <!-- 0 -->
      <g transform="translate(219.468125 240.078346)scale(0.1 -0.1)">
       <use xlink:href="#DejaVuSans-48"/>
      </g>
     </g>
    </g>
    <g id="xtick_4">
     <g id="line2d_4">
      <g>
       <use style="fill-opacity:0;stroke:#000000;stroke-width:0.8;" x="294.70516" xlink:href="#m2fe5293010" y="225.479908"/>
      </g>
     </g>
     <g id="text_4">
      <!-- 5 -->
      <g transform="translate(291.52391 240.078346)scale(0.1 -0.1)">
       <use xlink:href="#DejaVuSans-53"/>
      </g>
     </g>
    </g>
    <g id="xtick_5">
     <g id="line2d_5">
      <g>
       <use style="fill-opacity:0;stroke:#000000;stroke-width:0.8;" x="366.760945" xlink:href="#m2fe5293010" y="225.479908"/>
      </g>
     </g>
     <g id="text_5">
      <!-- 10 -->
      <g transform="translate(360.398445 240.078346)scale(0.1 -0.1)">
       <use xlink:href="#DejaVuSans-49"/>
       <use x="63.623047" xlink:href="#DejaVuSans-48"/>
      </g>
     </g>
    </g>
    <g id="text_6">
     <!-- Magnitude of motor force, f (pN) -->
     <defs>
      <path d="M 9.8125 72.90625 
L 24.515625 72.90625 
L 43.109375 23.296875 
L 61.8125 72.90625 
L 76.515625 72.90625 
L 76.515625 0 
L 66.890625 0 
L 66.890625 64.015625 
L 48.09375 14.015625 
L 38.1875 14.015625 
L 19.390625 64.015625 
L 19.390625 0 
L 9.8125 0 
z
" id="DejaVuSans-77"/>
      <path d="M 34.28125 27.484375 
Q 23.390625 27.484375 19.1875 25 
Q 14.984375 22.515625 14.984375 16.5 
Q 14.984375 11.71875 18.140625 8.90625 
Q 21.296875 6.109375 26.703125 6.109375 
Q 34.1875 6.109375 38.703125 11.40625 
Q 43.21875 16.703125 43.21875 25.484375 
L 43.21875 27.484375 
z
M 52.203125 31.203125 
L 52.203125 0 
L 43.21875 0 
L 43.21875 8.296875 
Q 40.140625 3.328125 35.546875 0.953125 
Q 30.953125 -1.421875 24.3125 -1.421875 
Q 15.921875 -1.421875 10.953125 3.296875 
Q 6 8.015625 6 15.921875 
Q 6 25.140625 12.171875 29.828125 
Q 18.359375 34.515625 30.609375 34.515625 
L 43.21875 34.515625 
L 43.21875 35.40625 
Q 43.21875 41.609375 39.140625 45 
Q 35.0625 48.390625 27.6875 48.390625 
Q 23 48.390625 18.546875 47.265625 
Q 14.109375 46.140625 10.015625 43.890625 
L 10.015625 52.203125 
Q 14.9375 54.109375 19.578125 55.046875 
Q 24.21875 56 28.609375 56 
Q 40.484375 56 46.34375 49.84375 
Q 52.203125 43.703125 52.203125 31.203125 
z
" id="DejaVuSans-97"/>
      <path d="M 45.40625 27.984375 
Q 45.40625 37.75 41.375 43.109375 
Q 37.359375 48.484375 30.078125 48.484375 
Q 22.859375 48.484375 18.828125 43.109375 
Q 14.796875 37.75 14.796875 27.984375 
Q 14.796875 18.265625 18.828125 12.890625 
Q 22.859375 7.515625 30.078125 7.515625 
Q 37.359375 7.515625 41.375 12.890625 
Q 45.40625 18.265625 45.40625 27.984375 
z
M 54.390625 6.78125 
Q 54.390625 -7.171875 48.1875 -13.984375 
Q 42 -20.796875 29.203125 -20.796875 
Q 24.46875 -20.796875 20.265625 -20.09375 
Q 16.0625 -19.390625 12.109375 -17.921875 
L 12.109375 -9.1875 
Q 16.0625 -11.328125 19.921875 -12.34375 
Q 23.78125 -13.375 27.78125 -13.375 
Q 36.625 -13.375 41.015625 -8.765625 
Q 45.40625 -4.15625 45.40625 5.171875 
L 45.40625 9.625 
Q 42.625 4.78125 38.28125 2.390625 
Q 33.9375 0 27.875 0 
Q 17.828125 0 11.671875 7.65625 
Q 5.515625 15.328125 5.515625 27.984375 
Q 5.515625 40.671875 11.671875 48.328125 
Q 17.828125 56 27.875 56 
Q 33.9375 56 38.28125 53.609375 
Q 42.625 51.21875 45.40625 46.390625 
L 45.40625 54.6875 
L 54.390625 54.6875 
z
" id="DejaVuSans-103"/>
      <path d="M 54.890625 33.015625 
L 54.890625 0 
L 45.90625 0 
L 45.90625 32.71875 
Q 45.90625 40.484375 42.875 44.328125 
Q 39.84375 48.1875 33.796875 48.1875 
Q 26.515625 48.1875 22.3125 43.546875 
Q 18.109375 38.921875 18.109375 30.90625 
L 18.109375 0 
L 9.078125 0 
L 9.078125 54.6875 
L 18.109375 54.6875 
L 18.109375 46.1875 
Q 21.34375 51.125 25.703125 53.5625 
Q 30.078125 56 35.796875 56 
Q 45.21875 56 50.046875 50.171875 
Q 54.890625 44.34375 54.890625 33.015625 
z
" id="DejaVuSans-110"/>
      <path d="M 9.421875 54.6875 
L 18.40625 54.6875 
L 18.40625 0 
L 9.421875 0 
z
M 9.421875 75.984375 
L 18.40625 75.984375 
L 18.40625 64.59375 
L 9.421875 64.59375 
z
" id="DejaVuSans-105"/>
      <path d="M 18.3125 70.21875 
L 18.3125 54.6875 
L 36.8125 54.6875 
L 36.8125 47.703125 
L 18.3125 47.703125 
L 18.3125 18.015625 
Q 18.3125 11.328125 20.140625 9.421875 
Q 21.96875 7.515625 27.59375 7.515625 
L 36.8125 7.515625 
L 36.8125 0 
L 27.59375 0 
Q 17.1875 0 13.234375 3.875 
Q 9.28125 7.765625 9.28125 18.015625 
L 9.28125 47.703125 
L 2.6875 47.703125 
L 2.6875 54.6875 
L 9.28125 54.6875 
L 9.28125 70.21875 
z
" id="DejaVuSans-116"/>
      <path d="M 8.5 21.578125 
L 8.5 54.6875 
L 17.484375 54.6875 
L 17.484375 21.921875 
Q 17.484375 14.15625 20.5 10.265625 
Q 23.53125 6.390625 29.59375 6.390625 
Q 36.859375 6.390625 41.078125 11.03125 
Q 45.3125 15.671875 45.3125 23.6875 
L 45.3125 54.6875 
L 54.296875 54.6875 
L 54.296875 0 
L 45.3125 0 
L 45.3125 8.40625 
Q 42.046875 3.421875 37.71875 1 
Q 33.40625 -1.421875 27.6875 -1.421875 
Q 18.265625 -1.421875 13.375 4.4375 
Q 8.5 10.296875 8.5 21.578125 
z
M 31.109375 56 
z
" id="DejaVuSans-117"/>
      <path d="M 45.40625 46.390625 
L 45.40625 75.984375 
L 54.390625 75.984375 
L 54.390625 0 
L 45.40625 0 
L 45.40625 8.203125 
Q 42.578125 3.328125 38.25 0.953125 
Q 33.9375 -1.421875 27.875 -1.421875 
Q 17.96875 -1.421875 11.734375 6.484375 
Q 5.515625 14.40625 5.515625 27.296875 
Q 5.515625 40.1875 11.734375 48.09375 
Q 17.96875 56 27.875 56 
Q 33.9375 56 38.25 53.625 
Q 42.578125 51.265625 45.40625 46.390625 
z
M 14.796875 27.296875 
Q 14.796875 17.390625 18.875 11.75 
Q 22.953125 6.109375 30.078125 6.109375 
Q 37.203125 6.109375 41.296875 11.75 
Q 45.40625 17.390625 45.40625 27.296875 
Q 45.40625 37.203125 41.296875 42.84375 
Q 37.203125 48.484375 30.078125 48.484375 
Q 22.953125 48.484375 18.875 42.84375 
Q 14.796875 37.203125 14.796875 27.296875 
z
" id="DejaVuSans-100"/>
      <path d="M 56.203125 29.59375 
L 56.203125 25.203125 
L 14.890625 25.203125 
Q 15.484375 15.921875 20.484375 11.0625 
Q 25.484375 6.203125 34.421875 6.203125 
Q 39.59375 6.203125 44.453125 7.46875 
Q 49.3125 8.734375 54.109375 11.28125 
L 54.109375 2.78125 
Q 49.265625 0.734375 44.1875 -0.34375 
Q 39.109375 -1.421875 33.890625 -1.421875 
Q 20.796875 -1.421875 13.15625 6.1875 
Q 5.515625 13.8125 5.515625 26.8125 
Q 5.515625 40.234375 12.765625 48.109375 
Q 20.015625 56 32.328125 56 
Q 43.359375 56 49.78125 48.890625 
Q 56.203125 41.796875 56.203125 29.59375 
z
M 47.21875 32.234375 
Q 47.125 39.59375 43.09375 43.984375 
Q 39.0625 48.390625 32.421875 48.390625 
Q 24.90625 48.390625 20.390625 44.140625 
Q 15.875 39.890625 15.1875 32.171875 
z
" id="DejaVuSans-101"/>
      <path id="DejaVuSans-32"/>
      <path d="M 30.609375 48.390625 
Q 23.390625 48.390625 19.1875 42.75 
Q 14.984375 37.109375 14.984375 27.296875 
Q 14.984375 17.484375 19.15625 11.84375 
Q 23.34375 6.203125 30.609375 6.203125 
Q 37.796875 6.203125 41.984375 11.859375 
Q 46.1875 17.53125 46.1875 27.296875 
Q 46.1875 37.015625 41.984375 42.703125 
Q 37.796875 48.390625 30.609375 48.390625 
z
M 30.609375 56 
Q 42.328125 56 49.015625 48.375 
Q 55.71875 40.765625 55.71875 27.296875 
Q 55.71875 13.875 49.015625 6.21875 
Q 42.328125 -1.421875 30.609375 -1.421875 
Q 18.84375 -1.421875 12.171875 6.21875 
Q 5.515625 13.875 5.515625 27.296875 
Q 5.515625 40.765625 12.171875 48.375 
Q 18.84375 56 30.609375 56 
z
" id="DejaVuSans-111"/>
      <path d="M 37.109375 75.984375 
L 37.109375 68.5 
L 28.515625 68.5 
Q 23.6875 68.5 21.796875 66.546875 
Q 19.921875 64.59375 19.921875 59.515625 
L 19.921875 54.6875 
L 34.71875 54.6875 
L 34.71875 47.703125 
L 19.921875 47.703125 
L 19.921875 0 
L 10.890625 0 
L 10.890625 47.703125 
L 2.296875 47.703125 
L 2.296875 54.6875 
L 10.890625 54.6875 
L 10.890625 58.5 
Q 10.890625 67.625 15.140625 71.796875 
Q 19.390625 75.984375 28.609375 75.984375 
z
" id="DejaVuSans-102"/>
      <path d="M 52 44.1875 
Q 55.375 50.25 60.0625 53.125 
Q 64.75 56 71.09375 56 
Q 79.640625 56 84.28125 50.015625 
Q 88.921875 44.046875 88.921875 33.015625 
L 88.921875 0 
L 79.890625 0 
L 79.890625 32.71875 
Q 79.890625 40.578125 77.09375 44.375 
Q 74.3125 48.1875 68.609375 48.1875 
Q 61.625 48.1875 57.5625 43.546875 
Q 53.515625 38.921875 53.515625 30.90625 
L 53.515625 0 
L 44.484375 0 
L 44.484375 32.71875 
Q 44.484375 40.625 41.703125 44.40625 
Q 38.921875 48.1875 33.109375 48.1875 
Q 26.21875 48.1875 22.15625 43.53125 
Q 18.109375 38.875 18.109375 30.90625 
L 18.109375 0 
L 9.078125 0 
L 9.078125 54.6875 
L 18.109375 54.6875 
L 18.109375 46.1875 
Q 21.1875 51.21875 25.484375 53.609375 
Q 29.78125 56 35.6875 56 
Q 41.65625 56 45.828125 52.96875 
Q 50 49.953125 52 44.1875 
z
" id="DejaVuSans-109"/>
      <path d="M 41.109375 46.296875 
Q 39.59375 47.171875 37.8125 47.578125 
Q 36.03125 48 33.890625 48 
Q 26.265625 48 22.1875 43.046875 
Q 18.109375 38.09375 18.109375 28.8125 
L 18.109375 0 
L 9.078125 0 
L 9.078125 54.6875 
L 18.109375 54.6875 
L 18.109375 46.1875 
Q 20.953125 51.171875 25.484375 53.578125 
Q 30.03125 56 36.53125 56 
Q 37.453125 56 38.578125 55.875 
Q 39.703125 55.765625 41.0625 55.515625 
z
" id="DejaVuSans-114"/>
      <path d="M 48.78125 52.59375 
L 48.78125 44.1875 
Q 44.96875 46.296875 41.140625 47.34375 
Q 37.3125 48.390625 33.40625 48.390625 
Q 24.65625 48.390625 19.8125 42.84375 
Q 14.984375 37.3125 14.984375 27.296875 
Q 14.984375 17.28125 19.8125 11.734375 
Q 24.65625 6.203125 33.40625 6.203125 
Q 37.3125 6.203125 41.140625 7.25 
Q 44.96875 8.296875 48.78125 10.40625 
L 48.78125 2.09375 
Q 45.015625 0.34375 40.984375 -0.53125 
Q 36.96875 -1.421875 32.421875 -1.421875 
Q 20.0625 -1.421875 12.78125 6.34375 
Q 5.515625 14.109375 5.515625 27.296875 
Q 5.515625 40.671875 12.859375 48.328125 
Q 20.21875 56 33.015625 56 
Q 37.15625 56 41.109375 55.140625 
Q 45.0625 54.296875 48.78125 52.59375 
z
" id="DejaVuSans-99"/>
      <path d="M 11.71875 12.40625 
L 22.015625 12.40625 
L 22.015625 4 
L 14.015625 -11.625 
L 7.71875 -11.625 
L 11.71875 4 
z
" id="DejaVuSans-44"/>
      <path d="M 31 75.875 
Q 24.46875 64.65625 21.28125 53.65625 
Q 18.109375 42.671875 18.109375 31.390625 
Q 18.109375 20.125 21.3125 9.0625 
Q 24.515625 -2 31 -13.1875 
L 23.1875 -13.1875 
Q 15.875 -1.703125 12.234375 9.375 
Q 8.59375 20.453125 8.59375 31.390625 
Q 8.59375 42.28125 12.203125 53.3125 
Q 15.828125 64.359375 23.1875 75.875 
z
" id="DejaVuSans-40"/>
      <path d="M 18.109375 8.203125 
L 18.109375 -20.796875 
L 9.078125 -20.796875 
L 9.078125 54.6875 
L 18.109375 54.6875 
L 18.109375 46.390625 
Q 20.953125 51.265625 25.265625 53.625 
Q 29.59375 56 35.59375 56 
Q 45.5625 56 51.78125 48.09375 
Q 58.015625 40.1875 58.015625 27.296875 
Q 58.015625 14.40625 51.78125 6.484375 
Q 45.5625 -1.421875 35.59375 -1.421875 
Q 29.59375 -1.421875 25.265625 0.953125 
Q 20.953125 3.328125 18.109375 8.203125 
z
M 48.6875 27.296875 
Q 48.6875 37.203125 44.609375 42.84375 
Q 40.53125 48.484375 33.40625 48.484375 
Q 26.265625 48.484375 22.1875 42.84375 
Q 18.109375 37.203125 18.109375 27.296875 
Q 18.109375 17.390625 22.1875 11.75 
Q 26.265625 6.109375 33.40625 6.109375 
Q 40.53125 6.109375 44.609375 11.75 
Q 48.6875 17.390625 48.6875 27.296875 
z
" id="DejaVuSans-112"/>
      <path d="M 9.8125 72.90625 
L 23.09375 72.90625 
L 55.421875 11.921875 
L 55.421875 72.90625 
L 64.984375 72.90625 
L 64.984375 0 
L 51.703125 0 
L 19.390625 60.984375 
L 19.390625 0 
L 9.8125 0 
z
" id="DejaVuSans-78"/>
      <path d="M 8.015625 75.875 
L 15.828125 75.875 
Q 23.140625 64.359375 26.78125 53.3125 
Q 30.421875 42.28125 30.421875 31.390625 
Q 30.421875 20.453125 26.78125 9.375 
Q 23.140625 -1.703125 15.828125 -13.1875 
L 8.015625 -13.1875 
Q 14.5 -2 17.703125 9.0625 
Q 20.90625 20.125 20.90625 31.390625 
Q 20.90625 42.671875 17.703125 53.65625 
Q 14.5 64.65625 8.015625 75.875 
z
" id="DejaVuSans-41"/>
     </defs>
     <g transform="translate(109.075469 256.795846)scale(0.14 -0.14)">
      <use xlink:href="#DejaVuSans-77"/>
      <use x="86.279297" xlink:href="#DejaVuSans-97"/>
      <use x="147.558594" xlink:href="#DejaVuSans-103"/>
      <use x="211.035156" xlink:href="#DejaVuSans-110"/>
      <use x="274.414062" xlink:href="#DejaVuSans-105"/>
      <use x="302.197266" xlink:href="#DejaVuSans-116"/>
      <use x="341.40625" xlink:href="#DejaVuSans-117"/>
      <use x="404.785156" xlink:href="#DejaVuSans-100"/>
      <use x="468.261719" xlink:href="#DejaVuSans-101"/>
      <use x="529.785156" xlink:href="#DejaVuSans-32"/>
      <use x="561.572266" xlink:href="#DejaVuSans-111"/>
      <use x="622.753906" xlink:href="#DejaVuSans-102"/>
      <use x="657.958984" xlink:href="#DejaVuSans-32"/>
      <use x="689.746094" xlink:href="#DejaVuSans-109"/>
      <use x="787.158203" xlink:href="#DejaVuSans-111"/>
      <use x="848.339844" xlink:href="#DejaVuSans-116"/>
      <use x="887.548828" xlink:href="#DejaVuSans-111"/>
      <use x="948.730469" xlink:href="#DejaVuSans-114"/>
      <use x="989.84375" xlink:href="#DejaVuSans-32"/>
      <use x="1021.630859" xlink:href="#DejaVuSans-102"/>
      <use x="1056.835938" xlink:href="#DejaVuSans-111"/>
      <use x="1118.017578" xlink:href="#DejaVuSans-114"/>
      <use x="1159.099609" xlink:href="#DejaVuSans-99"/>
      <use x="1214.080078" xlink:href="#DejaVuSans-101"/>
      <use x="1275.603516" xlink:href="#DejaVuSans-44"/>
      <use x="1307.390625" xlink:href="#DejaVuSans-32"/>
      <use x="1339.177734" xlink:href="#DejaVuSans-102"/>
      <use x="1374.382812" xlink:href="#DejaVuSans-32"/>
      <use x="1406.169922" xlink:href="#DejaVuSans-40"/>
      <use x="1445.183594" xlink:href="#DejaVuSans-112"/>
      <use x="1508.660156" xlink:href="#DejaVuSans-78"/>
      <use x="1583.464844" xlink:href="#DejaVuSans-41"/>
     </g>
    </g>
   </g>
   <g id="matplotlib.axis_2">
    <g id="ytick_1">
     <g id="line2d_6">
      <defs>
       <path d="M 0 0 
L -3.5 0 
" id="m6963a9b07a" style="stroke:#000000;stroke-width:0.8;"/>
      </defs>
      <g>
       <use style="fill-opacity:0;stroke:#000000;stroke-width:0.8;" x="55.249375" xlink:href="#m6963a9b07a" y="225.479908"/>
      </g>
     </g>
     <g id="text_7">
      <!-- $\mathdefault{10^{-3}}$ -->
      <defs>
       <path d="M 40.578125 39.3125 
Q 47.65625 37.796875 51.625 33 
Q 55.609375 28.21875 55.609375 21.1875 
Q 55.609375 10.40625 48.1875 4.484375 
Q 40.765625 -1.421875 27.09375 -1.421875 
Q 22.515625 -1.421875 17.65625 -0.515625 
Q 12.796875 0.390625 7.625 2.203125 
L 7.625 11.71875 
Q 11.71875 9.328125 16.59375 8.109375 
Q 21.484375 6.890625 26.8125 6.890625 
Q 36.078125 6.890625 40.9375 10.546875 
Q 45.796875 14.203125 45.796875 21.1875 
Q 45.796875 27.640625 41.28125 31.265625 
Q 36.765625 34.90625 28.71875 34.90625 
L 20.21875 34.90625 
L 20.21875 43.015625 
L 29.109375 43.015625 
Q 36.375 43.015625 40.234375 45.921875 
Q 44.09375 48.828125 44.09375 54.296875 
Q 44.09375 59.90625 40.109375 62.90625 
Q 36.140625 65.921875 28.71875 65.921875 
Q 24.65625 65.921875 20.015625 65.03125 
Q 15.375 64.15625 9.8125 62.3125 
L 9.8125 71.09375 
Q 15.4375 72.65625 20.34375 73.4375 
Q 25.25 74.21875 29.59375 74.21875 
Q 40.828125 74.21875 47.359375 69.109375 
Q 53.90625 64.015625 53.90625 55.328125 
Q 53.90625 49.265625 50.4375 45.09375 
Q 46.96875 40.921875 40.578125 39.3125 
z
" id="DejaVuSans-51"/>
      </defs>
      <g transform="translate(24.749375 229.279127)scale(0.1 -0.1)">
       <use transform="translate(0 0.765625)" xlink:href="#DejaVuSans-49"/>
       <use transform="translate(63.623047 0.765625)" xlink:href="#DejaVuSans-48"/>
       <use transform="translate(128.203125 39.046875)scale(0.7)" xlink:href="#DejaVuSans-8722"/>
       <use transform="translate(186.855469 39.046875)scale(0.7)" xlink:href="#DejaVuSans-51"/>
      </g>
     </g>
    </g>
    <g id="ytick_2">
     <g id="line2d_7">
      <g>
       <use style="fill-opacity:0;stroke:#000000;stroke-width:0.8;" x="55.249375" xlink:href="#m6963a9b07a" y="153.986345"/>
      </g>
     </g>
     <g id="text_8">
      <!-- $\mathdefault{10^{-2}}$ -->
      <defs>
       <path d="M 19.1875 8.296875 
L 53.609375 8.296875 
L 53.609375 0 
L 7.328125 0 
L 7.328125 8.296875 
Q 12.9375 14.109375 22.625 23.890625 
Q 32.328125 33.6875 34.8125 36.53125 
Q 39.546875 41.84375 41.421875 45.53125 
Q 43.3125 49.21875 43.3125 52.78125 
Q 43.3125 58.59375 39.234375 62.25 
Q 35.15625 65.921875 28.609375 65.921875 
Q 23.96875 65.921875 18.8125 64.3125 
Q 13.671875 62.703125 7.8125 59.421875 
L 7.8125 69.390625 
Q 13.765625 71.78125 18.9375 73 
Q 24.125 74.21875 28.421875 74.21875 
Q 39.75 74.21875 46.484375 68.546875 
Q 53.21875 62.890625 53.21875 53.421875 
Q 53.21875 48.921875 51.53125 44.890625 
Q 49.859375 40.875 45.40625 35.40625 
Q 44.1875 33.984375 37.640625 27.21875 
Q 31.109375 20.453125 19.1875 8.296875 
z
" id="DejaVuSans-50"/>
      </defs>
      <g transform="translate(24.749375 157.785564)scale(0.1 -0.1)">
       <use transform="translate(0 0.765625)" xlink:href="#DejaVuSans-49"/>
       <use transform="translate(63.623047 0.765625)" xlink:href="#DejaVuSans-48"/>
       <use transform="translate(128.203125 39.046875)scale(0.7)" xlink:href="#DejaVuSans-8722"/>
       <use transform="translate(186.855469 39.046875)scale(0.7)" xlink:href="#DejaVuSans-50"/>
      </g>
     </g>
    </g>
    <g id="ytick_3">
     <g id="line2d_8">
      <g>
       <use style="fill-opacity:0;stroke:#000000;stroke-width:0.8;" x="55.249375" xlink:href="#m6963a9b07a" y="82.492782"/>
      </g>
     </g>
     <g id="text_9">
      <!-- $\mathdefault{10^{-1}}$ -->
      <g transform="translate(24.749375 86.292001)scale(0.1 -0.1)">
       <use transform="translate(0 0.684375)" xlink:href="#DejaVuSans-49"/>
       <use transform="translate(63.623047 0.684375)" xlink:href="#DejaVuSans-48"/>
       <use transform="translate(128.203125 38.965625)scale(0.7)" xlink:href="#DejaVuSans-8722"/>
       <use transform="translate(186.855469 38.965625)scale(0.7)" xlink:href="#DejaVuSans-49"/>
      </g>
     </g>
    </g>
    <g id="ytick_4">
     <g id="line2d_9">
      <g>
       <use style="fill-opacity:0;stroke:#000000;stroke-width:0.8;" x="55.249375" xlink:href="#m6963a9b07a" y="10.999219"/>
      </g>
     </g>
     <g id="text_10">
      <!-- $\mathdefault{10^{0}}$ -->
      <g transform="translate(30.649375 14.798438)scale(0.1 -0.1)">
       <use transform="translate(0 0.765625)" xlink:href="#DejaVuSans-49"/>
       <use transform="translate(63.623047 0.765625)" xlink:href="#DejaVuSans-48"/>
       <use transform="translate(128.203125 39.046875)scale(0.7)" xlink:href="#DejaVuSans-48"/>
      </g>
     </g>
    </g>
    <g id="ytick_5">
     <g id="line2d_10">
      <defs>
       <path d="M 0 0 
L -2 0 
" id="m3af0107d65" style="stroke:#000000;stroke-width:0.6;"/>
      </defs>
      <g>
       <use style="fill-opacity:0;stroke:#000000;stroke-width:0.6;" x="55.249375" xlink:href="#m3af0107d65" y="203.958201"/>
      </g>
     </g>
    </g>
    <g id="ytick_6">
     <g id="line2d_11">
      <g>
       <use style="fill-opacity:0;stroke:#000000;stroke-width:0.6;" x="55.249375" xlink:href="#m3af0107d65" y="191.36881"/>
      </g>
     </g>
    </g>
    <g id="ytick_7">
     <g id="line2d_12">
      <g>
       <use style="fill-opacity:0;stroke:#000000;stroke-width:0.6;" x="55.249375" xlink:href="#m3af0107d65" y="182.436494"/>
      </g>
     </g>
    </g>
    <g id="ytick_8">
     <g id="line2d_13">
      <g>
       <use style="fill-opacity:0;stroke:#000000;stroke-width:0.6;" x="55.249375" xlink:href="#m3af0107d65" y="175.508052"/>
      </g>
     </g>
    </g>
    <g id="ytick_9">
     <g id="line2d_14">
      <g>
       <use style="fill-opacity:0;stroke:#000000;stroke-width:0.6;" x="55.249375" xlink:href="#m3af0107d65" y="169.847103"/>
      </g>
     </g>
    </g>
    <g id="ytick_10">
     <g id="line2d_15">
      <g>
       <use style="fill-opacity:0;stroke:#000000;stroke-width:0.6;" x="55.249375" xlink:href="#m3af0107d65" y="165.060838"/>
      </g>
     </g>
    </g>
    <g id="ytick_11">
     <g id="line2d_16">
      <g>
       <use style="fill-opacity:0;stroke:#000000;stroke-width:0.6;" x="55.249375" xlink:href="#m3af0107d65" y="160.914787"/>
      </g>
     </g>
    </g>
    <g id="ytick_12">
     <g id="line2d_17">
      <g>
       <use style="fill-opacity:0;stroke:#000000;stroke-width:0.6;" x="55.249375" xlink:href="#m3af0107d65" y="157.257711"/>
      </g>
     </g>
    </g>
    <g id="ytick_13">
     <g id="line2d_18">
      <g>
       <use style="fill-opacity:0;stroke:#000000;stroke-width:0.6;" x="55.249375" xlink:href="#m3af0107d65" y="132.464638"/>
      </g>
     </g>
    </g>
    <g id="ytick_14">
     <g id="line2d_19">
      <g>
       <use style="fill-opacity:0;stroke:#000000;stroke-width:0.6;" x="55.249375" xlink:href="#m3af0107d65" y="119.875246"/>
      </g>
     </g>
    </g>
    <g id="ytick_15">
     <g id="line2d_20">
      <g>
       <use style="fill-opacity:0;stroke:#000000;stroke-width:0.6;" x="55.249375" xlink:href="#m3af0107d65" y="110.942931"/>
      </g>
     </g>
    </g>
    <g id="ytick_16">
     <g id="line2d_21">
      <g>
       <use style="fill-opacity:0;stroke:#000000;stroke-width:0.6;" x="55.249375" xlink:href="#m3af0107d65" y="104.014489"/>
      </g>
     </g>
    </g>
    <g id="ytick_17">
     <g id="line2d_22">
      <g>
       <use style="fill-opacity:0;stroke:#000000;stroke-width:0.6;" x="55.249375" xlink:href="#m3af0107d65" y="98.353539"/>
      </g>
     </g>
    </g>
    <g id="ytick_18">
     <g id="line2d_23">
      <g>
       <use style="fill-opacity:0;stroke:#000000;stroke-width:0.6;" x="55.249375" xlink:href="#m3af0107d65" y="93.567275"/>
      </g>
     </g>
    </g>
    <g id="ytick_19">
     <g id="line2d_24">
      <g>
       <use style="fill-opacity:0;stroke:#000000;stroke-width:0.6;" x="55.249375" xlink:href="#m3af0107d65" y="89.421224"/>
      </g>
     </g>
    </g>
    <g id="ytick_20">
     <g id="line2d_25">
      <g>
       <use style="fill-opacity:0;stroke:#000000;stroke-width:0.6;" x="55.249375" xlink:href="#m3af0107d65" y="85.764148"/>
      </g>
     </g>
    </g>
    <g id="ytick_21">
     <g id="line2d_26">
      <g>
       <use style="fill-opacity:0;stroke:#000000;stroke-width:0.6;" x="55.249375" xlink:href="#m3af0107d65" y="60.971075"/>
      </g>
     </g>
    </g>
    <g id="ytick_22">
     <g id="line2d_27">
      <g>
       <use style="fill-opacity:0;stroke:#000000;stroke-width:0.6;" x="55.249375" xlink:href="#m3af0107d65" y="48.381683"/>
      </g>
     </g>
    </g>
    <g id="ytick_23">
     <g id="line2d_28">
      <g>
       <use style="fill-opacity:0;stroke:#000000;stroke-width:0.6;" x="55.249375" xlink:href="#m3af0107d65" y="39.449368"/>
      </g>
     </g>
    </g>
    <g id="ytick_24">
     <g id="line2d_29">
      <g>
       <use style="fill-opacity:0;stroke:#000000;stroke-width:0.6;" x="55.249375" xlink:href="#m3af0107d65" y="32.520926"/>
      </g>
     </g>
    </g>
    <g id="ytick_25">
     <g id="line2d_30">
      <g>
       <use style="fill-opacity:0;stroke:#000000;stroke-width:0.6;" x="55.249375" xlink:href="#m3af0107d65" y="26.859976"/>
      </g>
     </g>
    </g>
    <g id="ytick_26">
     <g id="line2d_31">
      <g>
       <use style="fill-opacity:0;stroke:#000000;stroke-width:0.6;" x="55.249375" xlink:href="#m3af0107d65" y="22.073712"/>
      </g>
     </g>
    </g>
    <g id="ytick_27">
     <g id="line2d_32">
      <g>
       <use style="fill-opacity:0;stroke:#000000;stroke-width:0.6;" x="55.249375" xlink:href="#m3af0107d65" y="17.927661"/>
      </g>
     </g>
    </g>
    <g id="ytick_28">
     <g id="line2d_33">
      <g>
       <use style="fill-opacity:0;stroke:#000000;stroke-width:0.6;" x="55.249375" xlink:href="#m3af0107d65" y="14.270585"/>
      </g>
     </g>
    </g>
    <g id="text_11">
     <!-- Probability -->
     <defs>
      <path d="M 19.671875 64.796875 
L 19.671875 37.40625 
L 32.078125 37.40625 
Q 38.96875 37.40625 42.71875 40.96875 
Q 46.484375 44.53125 46.484375 51.125 
Q 46.484375 57.671875 42.71875 61.234375 
Q 38.96875 64.796875 32.078125 64.796875 
z
M 9.8125 72.90625 
L 32.078125 72.90625 
Q 44.34375 72.90625 50.609375 67.359375 
Q 56.890625 61.8125 56.890625 51.125 
Q 56.890625 40.328125 50.609375 34.8125 
Q 44.34375 29.296875 32.078125 29.296875 
L 19.671875 29.296875 
L 19.671875 0 
L 9.8125 0 
z
" id="DejaVuSans-80"/>
      <path d="M 48.6875 27.296875 
Q 48.6875 37.203125 44.609375 42.84375 
Q 40.53125 48.484375 33.40625 48.484375 
Q 26.265625 48.484375 22.1875 42.84375 
Q 18.109375 37.203125 18.109375 27.296875 
Q 18.109375 17.390625 22.1875 11.75 
Q 26.265625 6.109375 33.40625 6.109375 
Q 40.53125 6.109375 44.609375 11.75 
Q 48.6875 17.390625 48.6875 27.296875 
z
M 18.109375 46.390625 
Q 20.953125 51.265625 25.265625 53.625 
Q 29.59375 56 35.59375 56 
Q 45.5625 56 51.78125 48.09375 
Q 58.015625 40.1875 58.015625 27.296875 
Q 58.015625 14.40625 51.78125 6.484375 
Q 45.5625 -1.421875 35.59375 -1.421875 
Q 29.59375 -1.421875 25.265625 0.953125 
Q 20.953125 3.328125 18.109375 8.203125 
L 18.109375 0 
L 9.078125 0 
L 9.078125 75.984375 
L 18.109375 75.984375 
z
" id="DejaVuSans-98"/>
      <path d="M 9.421875 75.984375 
L 18.40625 75.984375 
L 18.40625 0 
L 9.421875 0 
z
" id="DejaVuSans-108"/>
      <path d="M 32.171875 -5.078125 
Q 28.375 -14.84375 24.75 -17.8125 
Q 21.140625 -20.796875 15.09375 -20.796875 
L 7.90625 -20.796875 
L 7.90625 -13.28125 
L 13.1875 -13.28125 
Q 16.890625 -13.28125 18.9375 -11.515625 
Q 21 -9.765625 23.484375 -3.21875 
L 25.09375 0.875 
L 2.984375 54.6875 
L 12.5 54.6875 
L 29.59375 11.921875 
L 46.6875 54.6875 
L 56.203125 54.6875 
z
" id="DejaVuSans-121"/>
     </defs>
     <g transform="translate(17.837812 154.037096)rotate(-90)scale(0.14 -0.14)">
      <use xlink:href="#DejaVuSans-80"/>
      <use x="60.287109" xlink:href="#DejaVuSans-114"/>
      <use x="101.369141" xlink:href="#DejaVuSans-111"/>
      <use x="162.550781" xlink:href="#DejaVuSans-98"/>
      <use x="226.027344" xlink:href="#DejaVuSans-97"/>
      <use x="287.306641" xlink:href="#DejaVuSans-98"/>
      <use x="350.783203" xlink:href="#DejaVuSans-105"/>
      <use x="378.566406" xlink:href="#DejaVuSans-108"/>
      <use x="406.349609" xlink:href="#DejaVuSans-105"/>
      <use x="434.132812" xlink:href="#DejaVuSans-116"/>
      <use x="473.341797" xlink:href="#DejaVuSans-121"/>
     </g>
    </g>
   </g>
   <g id="LineCollection_1">
    <path clip-path="url(#pfb8eba6b9e)" d="M 70.467557 267.907408 
L 70.467557 201.659898 
" style="fill:none;stroke:#cccccc;stroke-width:1.5;"/>
    <path clip-path="url(#pfb8eba6b9e)" d="M 83.149375 267.907408 
L 83.149375 197.28574 
" style="fill:none;stroke:#cccccc;stroke-width:1.5;"/>
    <path clip-path="url(#pfb8eba6b9e)" d="M 95.831193 256.532065 
L 95.831193 201.16058 
" style="fill:none;stroke:#cccccc;stroke-width:1.5;"/>
    <path clip-path="url(#pfb8eba6b9e)" d="M 108.513011 259.23446 
L 108.513011 198.29491 
" style="fill:none;stroke:#cccccc;stroke-width:1.5;"/>
    <path clip-path="url(#pfb8eba6b9e)" d="M 121.19483 209.907504 
L 121.19483 173.038869 
" style="fill:none;stroke:#cccccc;stroke-width:1.5;"/>
    <path clip-path="url(#pfb8eba6b9e)" d="M 133.876648 211.643235 
L 133.876648 174.643728 
" style="fill:none;stroke:#cccccc;stroke-width:1.5;"/>
    <path clip-path="url(#pfb8eba6b9e)" d="M 146.558466 187.598795 
L 146.558466 163.752544 
" style="fill:none;stroke:#cccccc;stroke-width:1.5;"/>
    <path clip-path="url(#pfb8eba6b9e)" d="M 159.240284 173.556403 
L 159.240284 151.724695 
" style="fill:none;stroke:#cccccc;stroke-width:1.5;"/>
    <path clip-path="url(#pfb8eba6b9e)" d="M 171.922102 153.178651 
L 171.922102 136.171429 
" style="fill:none;stroke:#cccccc;stroke-width:1.5;"/>
    <path clip-path="url(#pfb8eba6b9e)" d="M 184.60392 141.725627 
L 184.60392 128.618304 
" style="fill:none;stroke:#cccccc;stroke-width:1.5;"/>
    <path clip-path="url(#pfb8eba6b9e)" d="M 197.285739 117.442403 
L 197.285739 108.373051 
" style="fill:none;stroke:#cccccc;stroke-width:1.5;"/>
    <path clip-path="url(#pfb8eba6b9e)" d="M 209.967557 106.582213 
L 209.967557 99.298927 
" style="fill:none;stroke:#cccccc;stroke-width:1.5;"/>
    <path clip-path="url(#pfb8eba6b9e)" d="M 222.649375 22.310971 
L 222.649375 21.12521 
" style="fill:none;stroke:#cccccc;stroke-width:1.5;"/>
    <path clip-path="url(#pfb8eba6b9e)" d="M 235.331193 107.649459 
L 235.331193 100.131523 
" style="fill:none;stroke:#cccccc;stroke-width:1.5;"/>
    <path clip-path="url(#pfb8eba6b9e)" d="M 248.013011 119.267889 
L 248.013011 110.115465 
" style="fill:none;stroke:#cccccc;stroke-width:1.5;"/>
    <path clip-path="url(#pfb8eba6b9e)" d="M 260.69483 140.130358 
L 260.69483 126.205699 
" style="fill:none;stroke:#cccccc;stroke-width:1.5;"/>
    <path clip-path="url(#pfb8eba6b9e)" d="M 273.376648 158.531748 
L 273.376648 139.126246 
" style="fill:none;stroke:#cccccc;stroke-width:1.5;"/>
    <path clip-path="url(#pfb8eba6b9e)" d="M 286.058466 181.969746 
L 286.058466 158.525016 
" style="fill:none;stroke:#cccccc;stroke-width:1.5;"/>
    <path clip-path="url(#pfb8eba6b9e)" d="M 298.740284 192.058422 
L 298.740284 164.846292 
" style="fill:none;stroke:#cccccc;stroke-width:1.5;"/>
    <path clip-path="url(#pfb8eba6b9e)" d="M 311.422102 188.771187 
L 311.422102 163.227708 
" style="fill:none;stroke:#cccccc;stroke-width:1.5;"/>
    <path clip-path="url(#pfb8eba6b9e)" d="M 324.10392 230.861401 
L 324.10392 183.946344 
" style="fill:none;stroke:#cccccc;stroke-width:1.5;"/>
    <path clip-path="url(#pfb8eba6b9e)" d="M 336.785739 248.582044 
L 336.785739 187.573307 
" style="fill:none;stroke:#cccccc;stroke-width:1.5;"/>
    <path clip-path="url(#pfb8eba6b9e)" d="M 349.467557 267.907408 
L 349.467557 206.490791 
" style="fill:none;stroke:#cccccc;stroke-width:1.5;"/>
    <path clip-path="url(#pfb8eba6b9e)" d="M 362.149375 267.907408 
L 362.149375 198.915824 
" style="fill:none;stroke:#cccccc;stroke-width:1.5;"/>
    <path clip-path="url(#pfb8eba6b9e)" d="M 374.831193 267.907408 
L 374.831193 192.399023 
" style="fill:none;stroke:#cccccc;stroke-width:1.5;"/>
   </g>
   <g id="LineCollection_2">
    <path clip-path="url(#pfb8eba6b9e)" style="fill:none;stroke:#cccccc;stroke-width:1.5;"/>
    <path clip-path="url(#pfb8eba6b9e)" style="fill:none;stroke:#cccccc;stroke-width:1.5;"/>
    <path clip-path="url(#pfb8eba6b9e)" d="M 95.831193 267.907408 
L 95.831193 260.358622 
" style="fill:none;stroke:#cccccc;stroke-width:1.5;"/>
    <path clip-path="url(#pfb8eba6b9e)" d="M 108.513011 267.907408 
L 108.513011 214.287512 
" style="fill:none;stroke:#cccccc;stroke-width:1.5;"/>
    <path clip-path="url(#pfb8eba6b9e)" d="M 121.19483 253.027174 
L 121.19483 191.696782 
" style="fill:none;stroke:#cccccc;stroke-width:1.5;"/>
    <path clip-path="url(#pfb8eba6b9e)" d="M 133.876648 207.716413 
L 133.876648 172.613255 
" style="fill:none;stroke:#cccccc;stroke-width:1.5;"/>
    <path clip-path="url(#pfb8eba6b9e)" d="M 146.558466 198.3671 
L 146.558466 167.715347 
" style="fill:none;stroke:#cccccc;stroke-width:1.5;"/>
    <path clip-path="url(#pfb8eba6b9e)" d="M 159.240284 171.244163 
L 159.240284 150.842564 
" style="fill:none;stroke:#cccccc;stroke-width:1.5;"/>
    <path clip-path="url(#pfb8eba6b9e)" d="M 171.922102 162.990082 
L 171.922102 144.67091 
" style="fill:none;stroke:#cccccc;stroke-width:1.5;"/>
    <path clip-path="url(#pfb8eba6b9e)" d="M 184.60392 139.89172 
L 184.60392 125.389437 
" style="fill:none;stroke:#cccccc;stroke-width:1.5;"/>
    <path clip-path="url(#pfb8eba6b9e)" d="M 197.285739 115.667371 
L 197.285739 106.205428 
" style="fill:none;stroke:#cccccc;stroke-width:1.5;"/>
    <path clip-path="url(#pfb8eba6b9e)" d="M 209.967557 102.626589 
L 209.967557 95.297745 
" style="fill:none;stroke:#cccccc;stroke-width:1.5;"/>
    <path clip-path="url(#pfb8eba6b9e)" d="M 222.649375 22.012607 
L 222.649375 20.829946 
" style="fill:none;stroke:#cccccc;stroke-width:1.5;"/>
    <path clip-path="url(#pfb8eba6b9e)" d="M 235.331193 106.067867 
L 235.331193 98.255802 
" style="fill:none;stroke:#cccccc;stroke-width:1.5;"/>
    <path clip-path="url(#pfb8eba6b9e)" d="M 248.013011 121.072595 
L 248.013011 112.129164 
" style="fill:none;stroke:#cccccc;stroke-width:1.5;"/>
    <path clip-path="url(#pfb8eba6b9e)" d="M 260.69483 144.455186 
L 260.69483 129.945844 
" style="fill:none;stroke:#cccccc;stroke-width:1.5;"/>
    <path clip-path="url(#pfb8eba6b9e)" d="M 273.376648 162.977809 
L 273.376648 144.631046 
" style="fill:none;stroke:#cccccc;stroke-width:1.5;"/>
    <path clip-path="url(#pfb8eba6b9e)" d="M 286.058466 173.998538 
L 286.058466 152.316788 
" style="fill:none;stroke:#cccccc;stroke-width:1.5;"/>
    <path clip-path="url(#pfb8eba6b9e)" d="M 298.740284 196.797578 
L 298.740284 166.973739 
" style="fill:none;stroke:#cccccc;stroke-width:1.5;"/>
    <path clip-path="url(#pfb8eba6b9e)" d="M 311.422102 203.364012 
L 311.422102 171.427095 
" style="fill:none;stroke:#cccccc;stroke-width:1.5;"/>
    <path clip-path="url(#pfb8eba6b9e)" d="M 324.10392 229.366326 
L 324.10392 184.705848 
" style="fill:none;stroke:#cccccc;stroke-width:1.5;"/>
    <path clip-path="url(#pfb8eba6b9e)" d="M 336.785739 267.907408 
L 336.785739 204.890979 
" style="fill:none;stroke:#cccccc;stroke-width:1.5;"/>
    <path clip-path="url(#pfb8eba6b9e)" d="M 349.467557 267.907408 
L 349.467557 219.971645 
" style="fill:none;stroke:#cccccc;stroke-width:1.5;"/>
    <path clip-path="url(#pfb8eba6b9e)" d="M 362.149375 267.907408 
L 362.149375 260.358622 
" style="fill:none;stroke:#cccccc;stroke-width:1.5;"/>
    <path clip-path="url(#pfb8eba6b9e)" style="fill:none;stroke:#cccccc;stroke-width:1.5;"/>
   </g>
   <g id="LineCollection_3">
    <path clip-path="url(#pfb8eba6b9e)" style="fill:none;stroke:#cccccc;stroke-width:1.5;"/>
    <path clip-path="url(#pfb8eba6b9e)" style="fill:none;stroke:#cccccc;stroke-width:1.5;"/>
    <path clip-path="url(#pfb8eba6b9e)" style="fill:none;stroke:#cccccc;stroke-width:1.5;"/>
    <path clip-path="url(#pfb8eba6b9e)" style="fill:none;stroke:#cccccc;stroke-width:1.5;"/>
    <path clip-path="url(#pfb8eba6b9e)" style="fill:none;stroke:#cccccc;stroke-width:1.5;"/>
    <path clip-path="url(#pfb8eba6b9e)" d="M 133.876648 267.907408 
L 133.876648 242.858603 
" style="fill:none;stroke:#cccccc;stroke-width:1.5;"/>
    <path clip-path="url(#pfb8eba6b9e)" d="M 146.558466 267.907408 
L 146.558466 221.008152 
" style="fill:none;stroke:#cccccc;stroke-width:1.5;"/>
    <path clip-path="url(#pfb8eba6b9e)" d="M 159.240284 267.907408 
L 159.240284 200.637119 
" style="fill:none;stroke:#cccccc;stroke-width:1.5;"/>
    <path clip-path="url(#pfb8eba6b9e)" d="M 171.922102 191.713007 
L 171.922102 164.043856 
" style="fill:none;stroke:#cccccc;stroke-width:1.5;"/>
    <path clip-path="url(#pfb8eba6b9e)" d="M 184.60392 153.873862 
L 184.60392 137.908308 
" style="fill:none;stroke:#cccccc;stroke-width:1.5;"/>
    <path clip-path="url(#pfb8eba6b9e)" d="M 197.285739 123.565653 
L 197.285739 112.403509 
" style="fill:none;stroke:#cccccc;stroke-width:1.5;"/>
    <path clip-path="url(#pfb8eba6b9e)" d="M 209.967557 106.875999 
L 209.967557 98.95862 
" style="fill:none;stroke:#cccccc;stroke-width:1.5;"/>
    <path clip-path="url(#pfb8eba6b9e)" d="M 222.649375 18.460367 
L 222.649375 17.632994 
" style="fill:none;stroke:#cccccc;stroke-width:1.5;"/>
    <path clip-path="url(#pfb8eba6b9e)" d="M 235.331193 110.277724 
L 235.331193 102.26757 
" style="fill:none;stroke:#cccccc;stroke-width:1.5;"/>
    <path clip-path="url(#pfb8eba6b9e)" d="M 248.013011 122.775967 
L 248.013011 113.569217 
" style="fill:none;stroke:#cccccc;stroke-width:1.5;"/>
    <path clip-path="url(#pfb8eba6b9e)" d="M 260.69483 154.738734 
L 260.69483 136.540847 
" style="fill:none;stroke:#cccccc;stroke-width:1.5;"/>
    <path clip-path="url(#pfb8eba6b9e)" d="M 273.376648 205.133798 
L 273.376648 172.921821 
" style="fill:none;stroke:#cccccc;stroke-width:1.5;"/>
    <path clip-path="url(#pfb8eba6b9e)" d="M 286.058466 267.907408 
L 286.058466 200.677637 
" style="fill:none;stroke:#cccccc;stroke-width:1.5;"/>
    <path clip-path="url(#pfb8eba6b9e)" d="M 298.740284 267.907408 
L 298.740284 223.645906 
" style="fill:none;stroke:#cccccc;stroke-width:1.5;"/>
    <path clip-path="url(#pfb8eba6b9e)" d="M 311.422102 267.907408 
L 311.422102 260.363064 
" style="fill:none;stroke:#cccccc;stroke-width:1.5;"/>
    <path clip-path="url(#pfb8eba6b9e)" style="fill:none;stroke:#cccccc;stroke-width:1.5;"/>
    <path clip-path="url(#pfb8eba6b9e)" style="fill:none;stroke:#cccccc;stroke-width:1.5;"/>
    <path clip-path="url(#pfb8eba6b9e)" style="fill:none;stroke:#cccccc;stroke-width:1.5;"/>
    <path clip-path="url(#pfb8eba6b9e)" style="fill:none;stroke:#cccccc;stroke-width:1.5;"/>
    <path clip-path="url(#pfb8eba6b9e)" style="fill:none;stroke:#cccccc;stroke-width:1.5;"/>
   </g>
   <g id="LineCollection_4">
    <path clip-path="url(#pfb8eba6b9e)" style="fill:none;stroke:#cccccc;stroke-width:1.5;"/>
    <path clip-path="url(#pfb8eba6b9e)" style="fill:none;stroke:#cccccc;stroke-width:1.5;"/>
    <path clip-path="url(#pfb8eba6b9e)" style="fill:none;stroke:#cccccc;stroke-width:1.5;"/>
    <path clip-path="url(#pfb8eba6b9e)" style="fill:none;stroke:#cccccc;stroke-width:1.5;"/>
    <path clip-path="url(#pfb8eba6b9e)" style="fill:none;stroke:#cccccc;stroke-width:1.5;"/>
    <path clip-path="url(#pfb8eba6b9e)" style="fill:none;stroke:#cccccc;stroke-width:1.5;"/>
    <path clip-path="url(#pfb8eba6b9e)" d="M 146.558466 267.907408 
L 146.558466 234.126681 
" style="fill:none;stroke:#cccccc;stroke-width:1.5;"/>
    <path clip-path="url(#pfb8eba6b9e)" d="M 159.240284 267.907408 
L 159.240284 205.502656 
" style="fill:none;stroke:#cccccc;stroke-width:1.5;"/>
    <path clip-path="url(#pfb8eba6b9e)" d="M 171.922102 223.370623 
L 171.922102 181.445656 
" style="fill:none;stroke:#cccccc;stroke-width:1.5;"/>
    <path clip-path="url(#pfb8eba6b9e)" d="M 184.60392 170.31588 
L 184.60392 150.274376 
" style="fill:none;stroke:#cccccc;stroke-width:1.5;"/>
    <path clip-path="url(#pfb8eba6b9e)" d="M 197.285739 128.556407 
L 197.285739 117.354402 
" style="fill:none;stroke:#cccccc;stroke-width:1.5;"/>
    <path clip-path="url(#pfb8eba6b9e)" d="M 209.967557 105.113175 
L 209.967557 96.859186 
" style="fill:none;stroke:#cccccc;stroke-width:1.5;"/>
    <path clip-path="url(#pfb8eba6b9e)" d="M 222.649375 17.934266 
L 222.649375 16.974099 
" style="fill:none;stroke:#cccccc;stroke-width:1.5;"/>
    <path clip-path="url(#pfb8eba6b9e)" d="M 235.331193 107.478602 
L 235.331193 99.729849 
" style="fill:none;stroke:#cccccc;stroke-width:1.5;"/>
    <path clip-path="url(#pfb8eba6b9e)" d="M 248.013011 129.390147 
L 248.013011 117.372561 
" style="fill:none;stroke:#cccccc;stroke-width:1.5;"/>
    <path clip-path="url(#pfb8eba6b9e)" d="M 260.69483 162.483363 
L 260.69483 142.677143 
" style="fill:none;stroke:#cccccc;stroke-width:1.5;"/>
    <path clip-path="url(#pfb8eba6b9e)" d="M 273.376648 267.907408 
L 273.376648 197.414235 
" style="fill:none;stroke:#cccccc;stroke-width:1.5;"/>
    <path clip-path="url(#pfb8eba6b9e)" d="M 286.058466 267.907408 
L 286.058466 206.574991 
" style="fill:none;stroke:#cccccc;stroke-width:1.5;"/>
    <path clip-path="url(#pfb8eba6b9e)" d="M 298.740284 267.907408 
L 298.740284 255.836237 
" style="fill:none;stroke:#cccccc;stroke-width:1.5;"/>
    <path clip-path="url(#pfb8eba6b9e)" d="M 311.422102 267.907408 
L 311.422102 242.858603 
" style="fill:none;stroke:#cccccc;stroke-width:1.5;"/>
    <path clip-path="url(#pfb8eba6b9e)" style="fill:none;stroke:#cccccc;stroke-width:1.5;"/>
    <path clip-path="url(#pfb8eba6b9e)" style="fill:none;stroke:#cccccc;stroke-width:1.5;"/>
    <path clip-path="url(#pfb8eba6b9e)" style="fill:none;stroke:#cccccc;stroke-width:1.5;"/>
    <path clip-path="url(#pfb8eba6b9e)" style="fill:none;stroke:#cccccc;stroke-width:1.5;"/>
    <path clip-path="url(#pfb8eba6b9e)" style="fill:none;stroke:#cccccc;stroke-width:1.5;"/>
   </g>
   <g id="line2d_34">
    <path clip-path="url(#pfb8eba6b9e)" d="M 159.23766 267.907408 
L 159.240284 253.16337 
L 171.922102 221.685141 
L 184.60392 145.602202 
L 197.285739 112.210424 
L 209.967557 94.955132 
L 222.649375 18.79148 
L 235.331193 99.588706 
L 248.013011 115.998157 
L 260.69483 157.326786 
L 273.376648 228.408185 
L 286.058466 265.00455 
L 287.103109 267.907408 
" style="fill:none;stroke:#ff8c00;stroke-dasharray:1.5,2.475;stroke-dashoffset:0;stroke-width:1.5;"/>
    <defs>
     <path d="M 0 -3 
L -3 3 
L 3 3 
z
" id="m33a868d9f5" style="stroke:#ff8c00;stroke-linejoin:miter;"/>
    </defs>
    <g clip-path="url(#pfb8eba6b9e)">
     <use style="fill-opacity:0;stroke:#ff8c00;stroke-linejoin:miter;" x="130.508895" xlink:href="#m33a868d9f5" y="19218.33339"/>
     <use style="fill-opacity:0;stroke:#ff8c00;stroke-linejoin:miter;" x="133.876648" xlink:href="#m33a868d9f5" y="312.834229"/>
     <use style="fill-opacity:0;stroke:#ff8c00;stroke-linejoin:miter;" x="137.2444" xlink:href="#m33a868d9f5" y="19218.33339"/>
     <use style="fill-opacity:0;stroke:#ff8c00;stroke-linejoin:miter;" x="155.864732" xlink:href="#m33a868d9f5" y="19218.33339"/>
     <use style="fill-opacity:0;stroke:#ff8c00;stroke-linejoin:miter;" x="159.240284" xlink:href="#m33a868d9f5" y="253.16337"/>
     <use style="fill-opacity:0;stroke:#ff8c00;stroke-linejoin:miter;" x="171.922102" xlink:href="#m33a868d9f5" y="221.685141"/>
     <use style="fill-opacity:0;stroke:#ff8c00;stroke-linejoin:miter;" x="184.60392" xlink:href="#m33a868d9f5" y="145.602202"/>
     <use style="fill-opacity:0;stroke:#ff8c00;stroke-linejoin:miter;" x="197.285739" xlink:href="#m33a868d9f5" y="112.210424"/>
     <use style="fill-opacity:0;stroke:#ff8c00;stroke-linejoin:miter;" x="209.967557" xlink:href="#m33a868d9f5" y="94.955132"/>
     <use style="fill-opacity:0;stroke:#ff8c00;stroke-linejoin:miter;" x="222.649375" xlink:href="#m33a868d9f5" y="18.79148"/>
     <use style="fill-opacity:0;stroke:#ff8c00;stroke-linejoin:miter;" x="235.331193" xlink:href="#m33a868d9f5" y="99.588706"/>
     <use style="fill-opacity:0;stroke:#ff8c00;stroke-linejoin:miter;" x="248.013011" xlink:href="#m33a868d9f5" y="115.998157"/>
     <use style="fill-opacity:0;stroke:#ff8c00;stroke-linejoin:miter;" x="260.69483" xlink:href="#m33a868d9f5" y="157.326786"/>
     <use style="fill-opacity:0;stroke:#ff8c00;stroke-linejoin:miter;" x="273.376648" xlink:href="#m33a868d9f5" y="228.408185"/>
     <use style="fill-opacity:0;stroke:#ff8c00;stroke-linejoin:miter;" x="286.058466" xlink:href="#m33a868d9f5" y="265.00455"/>
     <use style="fill-opacity:0;stroke:#ff8c00;stroke-linejoin:miter;" x="298.740284" xlink:href="#m33a868d9f5" y="300.244837"/>
     <use style="fill-opacity:0;stroke:#ff8c00;stroke-linejoin:miter;" x="302.109683" xlink:href="#m33a868d9f5" y="19218.33339"/>
    </g>
   </g>
   <g id="line2d_35">
    <path clip-path="url(#pfb8eba6b9e)" d="M 160.749886 267.907408 
L 171.922102 212.073384 
L 184.60392 155.15696 
L 197.285739 114.326622 
L 209.967557 94.47645 
L 222.649375 18.170403 
L 235.331193 98.738861 
L 248.013011 127.976991 
L 260.69483 163.419466 
L 273.376648 218.30406 
L 273.385472 267.907408 
" style="fill:none;stroke:#ff8c00;stroke-dasharray:1.5,2.475;stroke-dashoffset:0;stroke-width:1.5;"/>
    <defs>
     <path d="M 0 3 
C 0.795609 3 1.55874 2.683901 2.12132 2.12132 
C 2.683901 1.55874 3 0.795609 3 0 
C 3 -0.795609 2.683901 -1.55874 2.12132 -2.12132 
C 1.55874 -2.683901 0.795609 -3 0 -3 
C -0.795609 -3 -1.55874 -2.683901 -2.12132 -2.12132 
C -2.683901 -1.55874 -3 -0.795609 -3 0 
C -3 0.795609 -2.683901 1.55874 -2.12132 2.12132 
C -1.55874 2.683901 -0.795609 3 0 3 
z
" id="m938ab738dc" style="stroke:#ff8c00;"/>
    </defs>
    <g clip-path="url(#pfb8eba6b9e)">
     <use style="fill-opacity:0;stroke:#ff8c00;" x="155.867644" xlink:href="#m938ab738dc" y="19218.33339"/>
     <use style="fill-opacity:0;stroke:#ff8c00;" x="159.240284" xlink:href="#m938ab738dc" y="275.451764"/>
     <use style="fill-opacity:0;stroke:#ff8c00;" x="171.922102" xlink:href="#m938ab738dc" y="212.073384"/>
     <use style="fill-opacity:0;stroke:#ff8c00;" x="184.60392" xlink:href="#m938ab738dc" y="155.15696"/>
     <use style="fill-opacity:0;stroke:#ff8c00;" x="197.285739" xlink:href="#m938ab738dc" y="114.326622"/>
     <use style="fill-opacity:0;stroke:#ff8c00;" x="209.967557" xlink:href="#m938ab738dc" y="94.47645"/>
     <use style="fill-opacity:0;stroke:#ff8c00;" x="222.649375" xlink:href="#m938ab738dc" y="18.170403"/>
     <use style="fill-opacity:0;stroke:#ff8c00;" x="235.331193" xlink:href="#m938ab738dc" y="98.738861"/>
     <use style="fill-opacity:0;stroke:#ff8c00;" x="248.013011" xlink:href="#m938ab738dc" y="127.976991"/>
     <use style="fill-opacity:0;stroke:#ff8c00;" x="260.69483" xlink:href="#m938ab738dc" y="163.419466"/>
     <use style="fill-opacity:0;stroke:#ff8c00;" x="273.376648" xlink:href="#m938ab738dc" y="218.30406"/>
     <use style="fill-opacity:0;stroke:#ff8c00;" x="276.756751" xlink:href="#m938ab738dc" y="19218.33339"/>
    </g>
   </g>
   <g id="line2d_36">
    <path clip-path="url(#pfb8eba6b9e)" d="M 135.920458 267.907408 
L 146.558466 244.042305 
L 159.240284 220.078787 
L 171.922102 175.076377 
L 184.60392 143.761707 
L 197.285739 117.313645 
L 209.967557 103.030462 
L 222.649375 18.054835 
L 235.331193 105.554858 
L 248.013011 118.508555 
L 260.69483 144.530629 
L 273.376648 183.222593 
L 286.058466 223.090325 
L 298.740284 247.001615 
L 302.448638 267.907408 
" style="fill:none;stroke:#006400;stroke-dasharray:1.5,2.475;stroke-dashoffset:0;stroke-width:1.5;"/>
    <defs>
     <path d="M 0 -3 
L -3 3 
L 3 3 
z
" id="mf2913e0b6b" style="stroke:#006400;stroke-linejoin:miter;"/>
    </defs>
    <g clip-path="url(#pfb8eba6b9e)">
     <use style="fill-opacity:0;stroke:#006400;stroke-linejoin:miter;" x="130.503621" xlink:href="#mf2913e0b6b" y="19218.33339"/>
     <use style="fill-opacity:0;stroke:#006400;stroke-linejoin:miter;" x="133.876648" xlink:href="#mf2913e0b6b" y="272.492454"/>
     <use style="fill-opacity:0;stroke:#006400;stroke-linejoin:miter;" x="146.558466" xlink:href="#mf2913e0b6b" y="244.042305"/>
     <use style="fill-opacity:0;stroke:#006400;stroke-linejoin:miter;" x="159.240284" xlink:href="#mf2913e0b6b" y="220.078787"/>
     <use style="fill-opacity:0;stroke:#006400;stroke-linejoin:miter;" x="171.922102" xlink:href="#mf2913e0b6b" y="175.076377"/>
     <use style="fill-opacity:0;stroke:#006400;stroke-linejoin:miter;" x="184.60392" xlink:href="#mf2913e0b6b" y="143.761707"/>
     <use style="fill-opacity:0;stroke:#006400;stroke-linejoin:miter;" x="197.285739" xlink:href="#mf2913e0b6b" y="117.313645"/>
     <use style="fill-opacity:0;stroke:#006400;stroke-linejoin:miter;" x="209.967557" xlink:href="#mf2913e0b6b" y="103.030462"/>
     <use style="fill-opacity:0;stroke:#006400;stroke-linejoin:miter;" x="222.649375" xlink:href="#mf2913e0b6b" y="18.054835"/>
     <use style="fill-opacity:0;stroke:#006400;stroke-linejoin:miter;" x="235.331193" xlink:href="#mf2913e0b6b" y="105.554858"/>
     <use style="fill-opacity:0;stroke:#006400;stroke-linejoin:miter;" x="248.013011" xlink:href="#mf2913e0b6b" y="118.508555"/>
     <use style="fill-opacity:0;stroke:#006400;stroke-linejoin:miter;" x="260.69483" xlink:href="#mf2913e0b6b" y="144.530629"/>
     <use style="fill-opacity:0;stroke:#006400;stroke-linejoin:miter;" x="273.376648" xlink:href="#mf2913e0b6b" y="183.222593"/>
     <use style="fill-opacity:0;stroke:#006400;stroke-linejoin:miter;" x="286.058466" xlink:href="#mf2913e0b6b" y="223.090325"/>
     <use style="fill-opacity:0;stroke:#006400;stroke-linejoin:miter;" x="298.740284" xlink:href="#mf2913e0b6b" y="247.001615"/>
     <use style="fill-opacity:0;stroke:#006400;stroke-linejoin:miter;" x="311.422102" xlink:href="#mf2913e0b6b" y="318.495178"/>
     <use style="fill-opacity:0;stroke:#006400;stroke-linejoin:miter;" x="324.10392" xlink:href="#mf2913e0b6b" y="288.827255"/>
     <use style="fill-opacity:0;stroke:#006400;stroke-linejoin:miter;" x="327.474813" xlink:href="#mf2913e0b6b" y="19218.33339"/>
    </g>
   </g>
   <g id="line2d_37">
    <path clip-path="url(#pfb8eba6b9e)" d="M 146.556409 267.907408 
L 146.558466 256.350706 
L 159.240284 229.098197 
L 171.922102 196.414902 
L 184.60392 159.846648 
L 197.285739 121.851533 
L 209.967557 100.651353 
L 222.649375 17.478002 
L 235.331193 103.175186 
L 248.013011 122.554312 
L 260.69483 151.424743 
L 273.376648 211.672743 
L 286.058466 233.19445 
L 291.586149 267.907408 
" style="fill:none;stroke:#006400;stroke-dasharray:1.5,2.475;stroke-dashoffset:0;stroke-width:1.5;"/>
    <defs>
     <path d="M 0 3 
C 0.795609 3 1.55874 2.683901 2.12132 2.12132 
C 2.683901 1.55874 3 0.795609 3 0 
C 3 -0.795609 2.683901 -1.55874 2.12132 -2.12132 
C 1.55874 -2.683901 0.795609 -3 0 -3 
C -0.795609 -3 -1.55874 -2.683901 -2.12132 -2.12132 
C -2.683901 -1.55874 -3 -0.795609 -3 0 
C -3 0.795609 -2.683901 1.55874 -2.12132 2.12132 
C -1.55874 2.683901 -0.795609 3 0 3 
z
" id="m6d5377e079" style="stroke:#006400;"/>
    </defs>
    <g clip-path="url(#pfb8eba6b9e)">
     <use style="fill-opacity:0;stroke:#006400;" x="143.18333" xlink:href="#m6d5377e079" y="19218.33339"/>
     <use style="fill-opacity:0;stroke:#006400;" x="146.558466" xlink:href="#m6d5377e079" y="256.350706"/>
     <use style="fill-opacity:0;stroke:#006400;" x="159.240284" xlink:href="#m6d5377e079" y="229.098197"/>
     <use style="fill-opacity:0;stroke:#006400;" x="171.922102" xlink:href="#m6d5377e079" y="196.414902"/>
     <use style="fill-opacity:0;stroke:#006400;" x="184.60392" xlink:href="#m6d5377e079" y="159.846648"/>
     <use style="fill-opacity:0;stroke:#006400;" x="197.285739" xlink:href="#m6d5377e079" y="121.851533"/>
     <use style="fill-opacity:0;stroke:#006400;" x="209.967557" xlink:href="#m6d5377e079" y="100.651353"/>
     <use style="fill-opacity:0;stroke:#006400;" x="222.649375" xlink:href="#m6d5377e079" y="17.478002"/>
     <use style="fill-opacity:0;stroke:#006400;" x="235.331193" xlink:href="#m6d5377e079" y="103.175186"/>
     <use style="fill-opacity:0;stroke:#006400;" x="248.013011" xlink:href="#m6d5377e079" y="122.554312"/>
     <use style="fill-opacity:0;stroke:#006400;" x="260.69483" xlink:href="#m6d5377e079" y="151.424743"/>
     <use style="fill-opacity:0;stroke:#006400;" x="273.376648" xlink:href="#m6d5377e079" y="211.672743"/>
     <use style="fill-opacity:0;stroke:#006400;" x="286.058466" xlink:href="#m6d5377e079" y="233.19445"/>
     <use style="fill-opacity:0;stroke:#006400;" x="298.740284" xlink:href="#m6d5377e079" y="312.834229"/>
     <use style="fill-opacity:0;stroke:#006400;" x="311.422102" xlink:href="#m6d5377e079" y="272.492454"/>
     <use style="fill-opacity:0;stroke:#006400;" x="314.795129" xlink:href="#m6d5377e079" y="19218.33339"/>
    </g>
   </g>
   <g id="line2d_38">
    <path clip-path="url(#pfb8eba6b9e)" d="M 222.649375 225.479908 
L 222.649375 8.039908 
" style="fill:none;stroke:#000000;stroke-dasharray:5.55,2.4;stroke-dashoffset:0;stroke-width:1.5;"/>
   </g>
   <g id="line2d_39">
    <path clip-path="url(#pfb8eba6b9e)" d="M 70.467557 221.214436 
L 83.149375 216.200362 
L 95.831193 217.858556 
L 108.513011 215.735151 
L 121.19483 186.295027 
L 133.876648 187.930424 
L 146.558466 173.440534 
L 159.240284 160.76 
L 171.922102 143.52485 
L 184.60392 134.48539 
L 197.285739 112.577758 
L 209.967557 102.727501 
L 222.649375 21.71243 
L 235.331193 103.663506 
L 248.013011 114.355657 
L 260.69483 132.393885 
L 273.376648 147.337014 
L 286.058466 168.085198 
L 298.740284 175.562 
L 311.422102 173.443592 
L 324.10392 199.276276 
L 336.785739 205.022062 
L 349.467557 227.217103 
L 362.149375 217.628065 
L 374.831193 211.462064 
" style="fill:none;stroke:#ff8c00;stroke-dasharray:5.55,2.4;stroke-dashoffset:0;stroke-width:1.5;"/>
    <g clip-path="url(#pfb8eba6b9e)">
     <use style="fill-opacity:0;stroke:#ff8c00;stroke-linejoin:miter;" x="70.467557" xlink:href="#m33a868d9f5" y="221.214436"/>
     <use style="fill-opacity:0;stroke:#ff8c00;stroke-linejoin:miter;" x="83.149375" xlink:href="#m33a868d9f5" y="216.200362"/>
     <use style="fill-opacity:0;stroke:#ff8c00;stroke-linejoin:miter;" x="95.831193" xlink:href="#m33a868d9f5" y="217.858556"/>
     <use style="fill-opacity:0;stroke:#ff8c00;stroke-linejoin:miter;" x="108.513011" xlink:href="#m33a868d9f5" y="215.735151"/>
     <use style="fill-opacity:0;stroke:#ff8c00;stroke-linejoin:miter;" x="121.19483" xlink:href="#m33a868d9f5" y="186.295027"/>
     <use style="fill-opacity:0;stroke:#ff8c00;stroke-linejoin:miter;" x="133.876648" xlink:href="#m33a868d9f5" y="187.930424"/>
     <use style="fill-opacity:0;stroke:#ff8c00;stroke-linejoin:miter;" x="146.558466" xlink:href="#m33a868d9f5" y="173.440534"/>
     <use style="fill-opacity:0;stroke:#ff8c00;stroke-linejoin:miter;" x="159.240284" xlink:href="#m33a868d9f5" y="160.76"/>
     <use style="fill-opacity:0;stroke:#ff8c00;stroke-linejoin:miter;" x="171.922102" xlink:href="#m33a868d9f5" y="143.52485"/>
     <use style="fill-opacity:0;stroke:#ff8c00;stroke-linejoin:miter;" x="184.60392" xlink:href="#m33a868d9f5" y="134.48539"/>
     <use style="fill-opacity:0;stroke:#ff8c00;stroke-linejoin:miter;" x="197.285739" xlink:href="#m33a868d9f5" y="112.577758"/>
     <use style="fill-opacity:0;stroke:#ff8c00;stroke-linejoin:miter;" x="209.967557" xlink:href="#m33a868d9f5" y="102.727501"/>
     <use style="fill-opacity:0;stroke:#ff8c00;stroke-linejoin:miter;" x="222.649375" xlink:href="#m33a868d9f5" y="21.71243"/>
     <use style="fill-opacity:0;stroke:#ff8c00;stroke-linejoin:miter;" x="235.331193" xlink:href="#m33a868d9f5" y="103.663506"/>
     <use style="fill-opacity:0;stroke:#ff8c00;stroke-linejoin:miter;" x="248.013011" xlink:href="#m33a868d9f5" y="114.355657"/>
     <use style="fill-opacity:0;stroke:#ff8c00;stroke-linejoin:miter;" x="260.69483" xlink:href="#m33a868d9f5" y="132.393885"/>
     <use style="fill-opacity:0;stroke:#ff8c00;stroke-linejoin:miter;" x="273.376648" xlink:href="#m33a868d9f5" y="147.337014"/>
     <use style="fill-opacity:0;stroke:#ff8c00;stroke-linejoin:miter;" x="286.058466" xlink:href="#m33a868d9f5" y="168.085198"/>
     <use style="fill-opacity:0;stroke:#ff8c00;stroke-linejoin:miter;" x="298.740284" xlink:href="#m33a868d9f5" y="175.562"/>
     <use style="fill-opacity:0;stroke:#ff8c00;stroke-linejoin:miter;" x="311.422102" xlink:href="#m33a868d9f5" y="173.443592"/>
     <use style="fill-opacity:0;stroke:#ff8c00;stroke-linejoin:miter;" x="324.10392" xlink:href="#m33a868d9f5" y="199.276276"/>
     <use style="fill-opacity:0;stroke:#ff8c00;stroke-linejoin:miter;" x="336.785739" xlink:href="#m33a868d9f5" y="205.022062"/>
     <use style="fill-opacity:0;stroke:#ff8c00;stroke-linejoin:miter;" x="349.467557" xlink:href="#m33a868d9f5" y="227.217103"/>
     <use style="fill-opacity:0;stroke:#ff8c00;stroke-linejoin:miter;" x="362.149375" xlink:href="#m33a868d9f5" y="217.628065"/>
     <use style="fill-opacity:0;stroke:#ff8c00;stroke-linejoin:miter;" x="374.831193" xlink:href="#m33a868d9f5" y="211.462064"/>
    </g>
   </g>
   <g id="line2d_40">
    <path clip-path="url(#pfb8eba6b9e)" d="M 103.239372 267.907408 
L 108.513011 239.335821 
L 121.19483 209.184901 
L 133.876648 185.447706 
L 146.558466 179.403103 
L 159.240284 159.397003 
L 171.922102 152.498602 
L 184.60392 131.801461 
L 197.285739 110.577357 
L 209.967557 98.746431 
L 222.649375 21.415646 
L 235.331193 101.916788 
L 248.013011 116.279978 
L 260.69483 136.360588 
L 273.376648 152.468575 
L 286.058466 161.302359 
L 298.740284 178.434553 
L 311.422102 183.458503 
L 324.10392 199.615859 
L 336.785739 224.55881 
L 349.467557 248.263928 
L 353.634782 267.907408 
" style="fill:none;stroke:#ff8c00;stroke-dasharray:5.55,2.4;stroke-dashoffset:0;stroke-width:1.5;"/>
    <g clip-path="url(#pfb8eba6b9e)">
     <use style="fill-opacity:0;stroke:#ff8c00;" x="92.462814" xlink:href="#m938ab738dc" y="19218.33339"/>
     <use style="fill-opacity:0;stroke:#ff8c00;" x="95.831193" xlink:href="#m938ab738dc" y="308.043525"/>
     <use style="fill-opacity:0;stroke:#ff8c00;" x="108.513011" xlink:href="#m938ab738dc" y="239.335821"/>
     <use style="fill-opacity:0;stroke:#ff8c00;" x="121.19483" xlink:href="#m938ab738dc" y="209.184901"/>
     <use style="fill-opacity:0;stroke:#ff8c00;" x="133.876648" xlink:href="#m938ab738dc" y="185.447706"/>
     <use style="fill-opacity:0;stroke:#ff8c00;" x="146.558466" xlink:href="#m938ab738dc" y="179.403103"/>
     <use style="fill-opacity:0;stroke:#ff8c00;" x="159.240284" xlink:href="#m938ab738dc" y="159.397003"/>
     <use style="fill-opacity:0;stroke:#ff8c00;" x="171.922102" xlink:href="#m938ab738dc" y="152.498602"/>
     <use style="fill-opacity:0;stroke:#ff8c00;" x="184.60392" xlink:href="#m938ab738dc" y="131.801461"/>
     <use style="fill-opacity:0;stroke:#ff8c00;" x="197.285739" xlink:href="#m938ab738dc" y="110.577357"/>
     <use style="fill-opacity:0;stroke:#ff8c00;" x="209.967557" xlink:href="#m938ab738dc" y="98.746431"/>
     <use style="fill-opacity:0;stroke:#ff8c00;" x="222.649375" xlink:href="#m938ab738dc" y="21.415646"/>
     <use style="fill-opacity:0;stroke:#ff8c00;" x="235.331193" xlink:href="#m938ab738dc" y="101.916788"/>
     <use style="fill-opacity:0;stroke:#ff8c00;" x="248.013011" xlink:href="#m938ab738dc" y="116.279978"/>
     <use style="fill-opacity:0;stroke:#ff8c00;" x="260.69483" xlink:href="#m938ab738dc" y="136.360588"/>
     <use style="fill-opacity:0;stroke:#ff8c00;" x="273.376648" xlink:href="#m938ab738dc" y="152.468575"/>
     <use style="fill-opacity:0;stroke:#ff8c00;" x="286.058466" xlink:href="#m938ab738dc" y="161.302359"/>
     <use style="fill-opacity:0;stroke:#ff8c00;" x="298.740284" xlink:href="#m938ab738dc" y="178.434553"/>
     <use style="fill-opacity:0;stroke:#ff8c00;" x="311.422102" xlink:href="#m938ab738dc" y="183.458503"/>
     <use style="fill-opacity:0;stroke:#ff8c00;" x="324.10392" xlink:href="#m938ab738dc" y="199.615859"/>
     <use style="fill-opacity:0;stroke:#ff8c00;" x="336.785739" xlink:href="#m938ab738dc" y="224.55881"/>
     <use style="fill-opacity:0;stroke:#ff8c00;" x="349.467557" xlink:href="#m938ab738dc" y="248.263928"/>
     <use style="fill-opacity:0;stroke:#ff8c00;" x="362.149375" xlink:href="#m938ab738dc" y="308.043525"/>
     <use style="fill-opacity:0;stroke:#ff8c00;" x="365.517754" xlink:href="#m938ab738dc" y="19218.33339"/>
    </g>
   </g>
   <g id="line2d_41">
    <path clip-path="url(#pfb8eba6b9e)" d="M 138.933481 267.907408 
L 146.558466 248.922801 
L 159.240284 219.305736 
L 171.922102 174.893195 
L 184.60392 144.876008 
L 197.285739 117.485663 
L 209.967557 102.66563 
L 222.649375 18.043925 
L 235.331193 106.01505 
L 248.013011 117.832586 
L 260.69483 144.32523 
L 273.376648 185.025431 
L 286.058466 220.340807 
L 298.740284 248.922801 
L 302.812312 267.907408 
" style="fill:none;stroke:#006400;stroke-dasharray:5.55,2.4;stroke-dashoffset:0;stroke-width:1.5;"/>
    <g clip-path="url(#pfb8eba6b9e)">
     <use style="fill-opacity:0;stroke:#006400;stroke-linejoin:miter;" x="130.504667" xlink:href="#mf2913e0b6b" y="19218.33339"/>
     <use style="fill-opacity:0;stroke:#006400;stroke-linejoin:miter;" x="133.876648" xlink:href="#mf2913e0b6b" y="280.497857"/>
     <use style="fill-opacity:0;stroke:#006400;stroke-linejoin:miter;" x="146.558466" xlink:href="#mf2913e0b6b" y="248.922801"/>
     <use style="fill-opacity:0;stroke:#006400;stroke-linejoin:miter;" x="159.240284" xlink:href="#mf2913e0b6b" y="219.305736"/>
     <use style="fill-opacity:0;stroke:#006400;stroke-linejoin:miter;" x="171.922102" xlink:href="#mf2913e0b6b" y="174.893195"/>
     <use style="fill-opacity:0;stroke:#006400;stroke-linejoin:miter;" x="184.60392" xlink:href="#mf2913e0b6b" y="144.876008"/>
     <use style="fill-opacity:0;stroke:#006400;stroke-linejoin:miter;" x="197.285739" xlink:href="#mf2913e0b6b" y="117.485663"/>
     <use style="fill-opacity:0;stroke:#006400;stroke-linejoin:miter;" x="209.967557" xlink:href="#mf2913e0b6b" y="102.66563"/>
     <use style="fill-opacity:0;stroke:#006400;stroke-linejoin:miter;" x="222.649375" xlink:href="#mf2913e0b6b" y="18.043925"/>
     <use style="fill-opacity:0;stroke:#006400;stroke-linejoin:miter;" x="235.331193" xlink:href="#mf2913e0b6b" y="106.01505"/>
     <use style="fill-opacity:0;stroke:#006400;stroke-linejoin:miter;" x="248.013011" xlink:href="#mf2913e0b6b" y="117.832586"/>
     <use style="fill-opacity:0;stroke:#006400;stroke-linejoin:miter;" x="260.69483" xlink:href="#mf2913e0b6b" y="144.32523"/>
     <use style="fill-opacity:0;stroke:#006400;stroke-linejoin:miter;" x="273.376648" xlink:href="#mf2913e0b6b" y="185.025431"/>
     <use style="fill-opacity:0;stroke:#006400;stroke-linejoin:miter;" x="286.058466" xlink:href="#mf2913e0b6b" y="220.340807"/>
     <use style="fill-opacity:0;stroke:#006400;stroke-linejoin:miter;" x="298.740284" xlink:href="#mf2913e0b6b" y="248.922801"/>
     <use style="fill-opacity:0;stroke:#006400;stroke-linejoin:miter;" x="311.422102" xlink:href="#mf2913e0b6b" y="308.047964"/>
     <use style="fill-opacity:0;stroke:#006400;stroke-linejoin:miter;" x="324.10392" xlink:href="#mf2913e0b6b" y="334.355936"/>
     <use style="fill-opacity:0;stroke:#006400;stroke-linejoin:miter;" x="327.468856" xlink:href="#mf2913e0b6b" y="19218.33339"/>
    </g>
   </g>
   <g id="line2d_42">
    <path clip-path="url(#pfb8eba6b9e)" d="M 146.55815 267.907408 
L 146.558466 266.133739 
L 159.240284 224.865051 
L 171.922102 195.811985 
L 184.60392 158.705409 
L 197.285739 122.452936 
L 209.967557 100.712709 
L 222.649375 17.450471 
L 235.331193 103.363125 
L 248.013011 122.803523 
L 260.69483 151.027034 
L 273.376648 215.932736 
L 286.058466 227.733175 
L 293.084678 267.907408 
" style="fill:none;stroke:#006400;stroke-dasharray:5.55,2.4;stroke-dashoffset:0;stroke-width:1.5;"/>
    <g clip-path="url(#pfb8eba6b9e)">
     <use style="fill-opacity:0;stroke:#006400;" x="143.184608" xlink:href="#m6d5377e079" y="19218.33339"/>
     <use style="fill-opacity:0;stroke:#006400;" x="146.558466" xlink:href="#m6d5377e079" y="266.133739"/>
     <use style="fill-opacity:0;stroke:#006400;" x="159.240284" xlink:href="#m6d5377e079" y="224.865051"/>
     <use style="fill-opacity:0;stroke:#006400;" x="171.922102" xlink:href="#m6d5377e079" y="195.811985"/>
     <use style="fill-opacity:0;stroke:#006400;" x="184.60392" xlink:href="#m6d5377e079" y="158.705409"/>
     <use style="fill-opacity:0;stroke:#006400;" x="197.285739" xlink:href="#m6d5377e079" y="122.452936"/>
     <use style="fill-opacity:0;stroke:#006400;" x="209.967557" xlink:href="#m6d5377e079" y="100.712709"/>
     <use style="fill-opacity:0;stroke:#006400;" x="222.649375" xlink:href="#m6d5377e079" y="17.450471"/>
     <use style="fill-opacity:0;stroke:#006400;" x="235.331193" xlink:href="#m6d5377e079" y="103.363125"/>
     <use style="fill-opacity:0;stroke:#006400;" x="248.013011" xlink:href="#m6d5377e079" y="122.803523"/>
     <use style="fill-opacity:0;stroke:#006400;" x="260.69483" xlink:href="#m6d5377e079" y="151.027034"/>
     <use style="fill-opacity:0;stroke:#006400;" x="273.376648" xlink:href="#m6d5377e079" y="215.932736"/>
     <use style="fill-opacity:0;stroke:#006400;" x="286.058466" xlink:href="#m6d5377e079" y="227.733175"/>
     <use style="fill-opacity:0;stroke:#006400;" x="298.740284" xlink:href="#m6d5377e079" y="300.244837"/>
     <use style="fill-opacity:0;stroke:#006400;" x="311.422102" xlink:href="#m6d5377e079" y="280.497857"/>
     <use style="fill-opacity:0;stroke:#006400;" x="314.794083" xlink:href="#m6d5377e079" y="19218.33339"/>
    </g>
   </g>
   <g id="patch_3">
    <path d="M 55.249375 225.479908 
L 55.249375 8.039908 
" style="fill:none;stroke:#000000;stroke-linecap:square;stroke-linejoin:miter;stroke-width:0.8;"/>
   </g>
   <g id="patch_4">
    <path d="M 390.049375 225.479908 
L 390.049375 8.039908 
" style="fill:none;stroke:#000000;stroke-linecap:square;stroke-linejoin:miter;stroke-width:0.8;"/>
   </g>
   <g id="patch_5">
    <path d="M 55.249375 225.479908 
L 390.049375 225.479908 
" style="fill:none;stroke:#000000;stroke-linecap:square;stroke-linejoin:miter;stroke-width:0.8;"/>
   </g>
   <g id="patch_6">
    <path d="M 55.249375 8.039908 
L 390.049375 8.039908 
" style="fill:none;stroke:#000000;stroke-linecap:square;stroke-linejoin:miter;stroke-width:0.8;"/>
   </g>
  </g>
 </g>
 <defs>
  <clipPath id="pfb8eba6b9e">
   <rect height="217.44" width="334.8" x="55.249375" y="8.039908"/>
  </clipPath>
 </defs>
</svg>
