<?xml version="1.0" encoding="utf-8" standalone="no"?>
<!DOCTYPE svg PUBLIC "-//W3C//DTD SVG 1.1//EN"
  "http://www.w3.org/Graphics/SVG/1.1/DTD/svg11.dtd">
<!-- Created with matplotlib (https://matplotlib.org/) -->
<svg height="267.358033pt" version="1.1" viewBox="0 0 397.249375 267.358033" width="397.249375pt" xmlns="http://www.w3.org/2000/svg" xmlns:xlink="http://www.w3.org/1999/xlink">
 <defs>
  <style type="text/css">
*{stroke-linecap:butt;stroke-linejoin:round;}
  </style>
 </defs>
 <g id="figure_1">
  <g id="patch_1">
   <path d="M 0 267.358033 
L 397.249375 267.358033 
L 397.249375 0 
L 0 0 
z
" style="fill:#ffffff;"/>
  </g>
  <g id="axes_1">
   <g id="patch_2">
    <path d="M 55.249375 225.479908 
L 390.049375 225.479908 
L 390.049375 8.039908 
L 55.249375 8.039908 
z
" style="fill:#ffffff;"/>
   </g>
   <g id="matplotlib.axis_1">
    <g id="xtick_1">
     <g id="line2d_1">
      <defs>
       <path d="M 0 0 
L 0 3.5 
" id="m4f8c3f0439" style="stroke:#000000;stroke-width:0.8;"/>
      </defs>
      <g>
       <use style="fill-opacity:0;stroke:#000000;stroke-width:0.8;" x="64.126648" xlink:href="#m4f8c3f0439" y="225.479908"/>
      </g>
     </g>
     <g id="text_1">
      <!-- 0 -->
      <defs>
       <path d="M 31.78125 66.40625 
Q 24.171875 66.40625 20.328125 58.90625 
Q 16.5 51.421875 16.5 36.375 
Q 16.5 21.390625 20.328125 13.890625 
Q 24.171875 6.390625 31.78125 6.390625 
Q 39.453125 6.390625 43.28125 13.890625 
Q 47.125 21.390625 47.125 36.375 
Q 47.125 51.421875 43.28125 58.90625 
Q 39.453125 66.40625 31.78125 66.40625 
z
M 31.78125 74.21875 
Q 44.046875 74.21875 50.515625 64.515625 
Q 56.984375 54.828125 56.984375 36.375 
Q 56.984375 17.96875 50.515625 8.265625 
Q 44.046875 -1.421875 31.78125 -1.421875 
Q 19.53125 -1.421875 13.0625 8.265625 
Q 6.59375 17.96875 6.59375 36.375 
Q 6.59375 54.828125 13.0625 64.515625 
Q 19.53125 74.21875 31.78125 74.21875 
z
" id="DejaVuSans-48"/>
      </defs>
      <g transform="translate(60.945398 240.078346)scale(0.1 -0.1)">
       <use xlink:href="#DejaVuSans-48"/>
      </g>
     </g>
    </g>
    <g id="xtick_2">
     <g id="line2d_2">
      <g>
       <use style="fill-opacity:0;stroke:#000000;stroke-width:0.8;" x="121.771276" xlink:href="#m4f8c3f0439" y="225.479908"/>
      </g>
     </g>
     <g id="text_2">
      <!-- 2 -->
      <defs>
       <path d="M 19.1875 8.296875 
L 53.609375 8.296875 
L 53.609375 0 
L 7.328125 0 
L 7.328125 8.296875 
Q 12.9375 14.109375 22.625 23.890625 
Q 32.328125 33.6875 34.8125 36.53125 
Q 39.546875 41.84375 41.421875 45.53125 
Q 43.3125 49.21875 43.3125 52.78125 
Q 43.3125 58.59375 39.234375 62.25 
Q 35.15625 65.921875 28.609375 65.921875 
Q 23.96875 65.921875 18.8125 64.3125 
Q 13.671875 62.703125 7.8125 59.421875 
L 7.8125 69.390625 
Q 13.765625 71.78125 18.9375 73 
Q 24.125 74.21875 28.421875 74.21875 
Q 39.75 74.21875 46.484375 68.546875 
Q 53.21875 62.890625 53.21875 53.421875 
Q 53.21875 48.921875 51.53125 44.890625 
Q 49.859375 40.875 45.40625 35.40625 
Q 44.1875 33.984375 37.640625 27.21875 
Q 31.109375 20.453125 19.1875 8.296875 
z
" id="DejaVuSans-50"/>
      </defs>
      <g transform="translate(118.590026 240.078346)scale(0.1 -0.1)">
       <use xlink:href="#DejaVuSans-50"/>
      </g>
     </g>
    </g>
    <g id="xtick_3">
     <g id="line2d_3">
      <g>
       <use style="fill-opacity:0;stroke:#000000;stroke-width:0.8;" x="179.415904" xlink:href="#m4f8c3f0439" y="225.479908"/>
      </g>
     </g>
     <g id="text_3">
      <!-- 4 -->
      <defs>
       <path d="M 37.796875 64.3125 
L 12.890625 25.390625 
L 37.796875 25.390625 
z
M 35.203125 72.90625 
L 47.609375 72.90625 
L 47.609375 25.390625 
L 58.015625 25.390625 
L 58.015625 17.1875 
L 47.609375 17.1875 
L 47.609375 0 
L 37.796875 0 
L 37.796875 17.1875 
L 4.890625 17.1875 
L 4.890625 26.703125 
z
" id="DejaVuSans-52"/>
      </defs>
      <g transform="translate(176.234654 240.078346)scale(0.1 -0.1)">
       <use xlink:href="#DejaVuSans-52"/>
      </g>
     </g>
    </g>
    <g id="xtick_4">
     <g id="line2d_4">
      <g>
       <use style="fill-opacity:0;stroke:#000000;stroke-width:0.8;" x="237.060532" xlink:href="#m4f8c3f0439" y="225.479908"/>
      </g>
     </g>
     <g id="text_4">
      <!-- 6 -->
      <defs>
       <path d="M 33.015625 40.375 
Q 26.375 40.375 22.484375 35.828125 
Q 18.609375 31.296875 18.609375 23.390625 
Q 18.609375 15.53125 22.484375 10.953125 
Q 26.375 6.390625 33.015625 6.390625 
Q 39.65625 6.390625 43.53125 10.953125 
Q 47.40625 15.53125 47.40625 23.390625 
Q 47.40625 31.296875 43.53125 35.828125 
Q 39.65625 40.375 33.015625 40.375 
z
M 52.59375 71.296875 
L 52.59375 62.3125 
Q 48.875 64.0625 45.09375 64.984375 
Q 41.3125 65.921875 37.59375 65.921875 
Q 27.828125 65.921875 22.671875 59.328125 
Q 17.53125 52.734375 16.796875 39.40625 
Q 19.671875 43.65625 24.015625 45.921875 
Q 28.375 48.1875 33.59375 48.1875 
Q 44.578125 48.1875 50.953125 41.515625 
Q 57.328125 34.859375 57.328125 23.390625 
Q 57.328125 12.15625 50.6875 5.359375 
Q 44.046875 -1.421875 33.015625 -1.421875 
Q 20.359375 -1.421875 13.671875 8.265625 
Q 6.984375 17.96875 6.984375 36.375 
Q 6.984375 53.65625 15.1875 63.9375 
Q 23.390625 74.21875 37.203125 74.21875 
Q 40.921875 74.21875 44.703125 73.484375 
Q 48.484375 72.75 52.59375 71.296875 
z
" id="DejaVuSans-54"/>
      </defs>
      <g transform="translate(233.879282 240.078346)scale(0.1 -0.1)">
       <use xlink:href="#DejaVuSans-54"/>
      </g>
     </g>
    </g>
    <g id="xtick_5">
     <g id="line2d_5">
      <g>
       <use style="fill-opacity:0;stroke:#000000;stroke-width:0.8;" x="294.70516" xlink:href="#m4f8c3f0439" y="225.479908"/>
      </g>
     </g>
     <g id="text_5">
      <!-- 8 -->
      <defs>
       <path d="M 31.78125 34.625 
Q 24.75 34.625 20.71875 30.859375 
Q 16.703125 27.09375 16.703125 20.515625 
Q 16.703125 13.921875 20.71875 10.15625 
Q 24.75 6.390625 31.78125 6.390625 
Q 38.8125 6.390625 42.859375 10.171875 
Q 46.921875 13.96875 46.921875 20.515625 
Q 46.921875 27.09375 42.890625 30.859375 
Q 38.875 34.625 31.78125 34.625 
z
M 21.921875 38.8125 
Q 15.578125 40.375 12.03125 44.71875 
Q 8.5 49.078125 8.5 55.328125 
Q 8.5 64.0625 14.71875 69.140625 
Q 20.953125 74.21875 31.78125 74.21875 
Q 42.671875 74.21875 48.875 69.140625 
Q 55.078125 64.0625 55.078125 55.328125 
Q 55.078125 49.078125 51.53125 44.71875 
Q 48 40.375 41.703125 38.8125 
Q 48.828125 37.15625 52.796875 32.3125 
Q 56.78125 27.484375 56.78125 20.515625 
Q 56.78125 9.90625 50.3125 4.234375 
Q 43.84375 -1.421875 31.78125 -1.421875 
Q 19.734375 -1.421875 13.25 4.234375 
Q 6.78125 9.90625 6.78125 20.515625 
Q 6.78125 27.484375 10.78125 32.3125 
Q 14.796875 37.15625 21.921875 38.8125 
z
M 18.3125 54.390625 
Q 18.3125 48.734375 21.84375 45.5625 
Q 25.390625 42.390625 31.78125 42.390625 
Q 38.140625 42.390625 41.71875 45.5625 
Q 45.3125 48.734375 45.3125 54.390625 
Q 45.3125 60.0625 41.71875 63.234375 
Q 38.140625 66.40625 31.78125 66.40625 
Q 25.390625 66.40625 21.84375 63.234375 
Q 18.3125 60.0625 18.3125 54.390625 
z
" id="DejaVuSans-56"/>
      </defs>
      <g transform="translate(291.52391 240.078346)scale(0.1 -0.1)">
       <use xlink:href="#DejaVuSans-56"/>
      </g>
     </g>
    </g>
    <g id="xtick_6">
     <g id="line2d_6">
      <g>
       <use style="fill-opacity:0;stroke:#000000;stroke-width:0.8;" x="352.349788" xlink:href="#m4f8c3f0439" y="225.479908"/>
      </g>
     </g>
     <g id="text_6">
      <!-- 10 -->
      <defs>
       <path d="M 12.40625 8.296875 
L 28.515625 8.296875 
L 28.515625 63.921875 
L 10.984375 60.40625 
L 10.984375 69.390625 
L 28.421875 72.90625 
L 38.28125 72.90625 
L 38.28125 8.296875 
L 54.390625 8.296875 
L 54.390625 0 
L 12.40625 0 
z
" id="DejaVuSans-49"/>
      </defs>
      <g transform="translate(345.987288 240.078346)scale(0.1 -0.1)">
       <use xlink:href="#DejaVuSans-49"/>
       <use x="63.623047" xlink:href="#DejaVuSans-48"/>
      </g>
     </g>
    </g>
    <g id="text_7">
     <!-- |f| (pN) -->
     <defs>
      <path d="M 21 76.421875 
L 21 -23.578125 
L 12.703125 -23.578125 
L 12.703125 76.421875 
z
" id="DejaVuSans-124"/>
      <path d="M 37.109375 75.984375 
L 37.109375 68.5 
L 28.515625 68.5 
Q 23.6875 68.5 21.796875 66.546875 
Q 19.921875 64.59375 19.921875 59.515625 
L 19.921875 54.6875 
L 34.71875 54.6875 
L 34.71875 47.703125 
L 19.921875 47.703125 
L 19.921875 0 
L 10.890625 0 
L 10.890625 47.703125 
L 2.296875 47.703125 
L 2.296875 54.6875 
L 10.890625 54.6875 
L 10.890625 58.5 
Q 10.890625 67.625 15.140625 71.796875 
Q 19.390625 75.984375 28.609375 75.984375 
z
" id="DejaVuSans-102"/>
      <path id="DejaVuSans-32"/>
      <path d="M 31 75.875 
Q 24.46875 64.65625 21.28125 53.65625 
Q 18.109375 42.671875 18.109375 31.390625 
Q 18.109375 20.125 21.3125 9.0625 
Q 24.515625 -2 31 -13.1875 
L 23.1875 -13.1875 
Q 15.875 -1.703125 12.234375 9.375 
Q 8.59375 20.453125 8.59375 31.390625 
Q 8.59375 42.28125 12.203125 53.3125 
Q 15.828125 64.359375 23.1875 75.875 
z
" id="DejaVuSans-40"/>
      <path d="M 18.109375 8.203125 
L 18.109375 -20.796875 
L 9.078125 -20.796875 
L 9.078125 54.6875 
L 18.109375 54.6875 
L 18.109375 46.390625 
Q 20.953125 51.265625 25.265625 53.625 
Q 29.59375 56 35.59375 56 
Q 45.5625 56 51.78125 48.09375 
Q 58.015625 40.1875 58.015625 27.296875 
Q 58.015625 14.40625 51.78125 6.484375 
Q 45.5625 -1.421875 35.59375 -1.421875 
Q 29.59375 -1.421875 25.265625 0.953125 
Q 20.953125 3.328125 18.109375 8.203125 
z
M 48.6875 27.296875 
Q 48.6875 37.203125 44.609375 42.84375 
Q 40.53125 48.484375 33.40625 48.484375 
Q 26.265625 48.484375 22.1875 42.84375 
Q 18.109375 37.203125 18.109375 27.296875 
Q 18.109375 17.390625 22.1875 11.75 
Q 26.265625 6.109375 33.40625 6.109375 
Q 40.53125 6.109375 44.609375 11.75 
Q 48.6875 17.390625 48.6875 27.296875 
z
" id="DejaVuSans-112"/>
      <path d="M 9.8125 72.90625 
L 23.09375 72.90625 
L 55.421875 11.921875 
L 55.421875 72.90625 
L 64.984375 72.90625 
L 64.984375 0 
L 51.703125 0 
L 19.390625 60.984375 
L 19.390625 0 
L 9.8125 0 
z
" id="DejaVuSans-78"/>
      <path d="M 8.015625 75.875 
L 15.828125 75.875 
Q 23.140625 64.359375 26.78125 53.3125 
Q 30.421875 42.28125 30.421875 31.390625 
Q 30.421875 20.453125 26.78125 9.375 
Q 23.140625 -1.703125 15.828125 -13.1875 
L 8.015625 -13.1875 
Q 14.5 -2 17.703125 9.0625 
Q 20.90625 20.125 20.90625 31.390625 
Q 20.90625 42.671875 17.703125 53.65625 
Q 14.5 64.65625 8.015625 75.875 
z
" id="DejaVuSans-41"/>
     </defs>
     <g transform="translate(198.10125 256.857096)scale(0.14 -0.14)">
      <use xlink:href="#DejaVuSans-124"/>
      <use x="33.691406" xlink:href="#DejaVuSans-102"/>
      <use x="68.896484" xlink:href="#DejaVuSans-124"/>
      <use x="102.587891" xlink:href="#DejaVuSans-32"/>
      <use x="134.375" xlink:href="#DejaVuSans-40"/>
      <use x="173.388672" xlink:href="#DejaVuSans-112"/>
      <use x="236.865234" xlink:href="#DejaVuSans-78"/>
      <use x="311.669922" xlink:href="#DejaVuSans-41"/>
     </g>
    </g>
   </g>
   <g id="matplotlib.axis_2">
    <g id="ytick_1">
     <g id="line2d_7">
      <defs>
       <path d="M 0 0 
L -3.5 0 
" id="m34b54b934f" style="stroke:#000000;stroke-width:0.8;"/>
      </defs>
      <g>
       <use style="fill-opacity:0;stroke:#000000;stroke-width:0.8;" x="55.249375" xlink:href="#m34b54b934f" y="225.479908"/>
      </g>
     </g>
     <g id="text_8">
      <!-- $\mathdefault{10^{-3}}$ -->
      <defs>
       <path d="M 10.59375 35.5 
L 73.1875 35.5 
L 73.1875 27.203125 
L 10.59375 27.203125 
z
" id="DejaVuSans-8722"/>
       <path d="M 40.578125 39.3125 
Q 47.65625 37.796875 51.625 33 
Q 55.609375 28.21875 55.609375 21.1875 
Q 55.609375 10.40625 48.1875 4.484375 
Q 40.765625 -1.421875 27.09375 -1.421875 
Q 22.515625 -1.421875 17.65625 -0.515625 
Q 12.796875 0.390625 7.625 2.203125 
L 7.625 11.71875 
Q 11.71875 9.328125 16.59375 8.109375 
Q 21.484375 6.890625 26.8125 6.890625 
Q 36.078125 6.890625 40.9375 10.546875 
Q 45.796875 14.203125 45.796875 21.1875 
Q 45.796875 27.640625 41.28125 31.265625 
Q 36.765625 34.90625 28.71875 34.90625 
L 20.21875 34.90625 
L 20.21875 43.015625 
L 29.109375 43.015625 
Q 36.375 43.015625 40.234375 45.921875 
Q 44.09375 48.828125 44.09375 54.296875 
Q 44.09375 59.90625 40.109375 62.90625 
Q 36.140625 65.921875 28.71875 65.921875 
Q 24.65625 65.921875 20.015625 65.03125 
Q 15.375 64.15625 9.8125 62.3125 
L 9.8125 71.09375 
Q 15.4375 72.65625 20.34375 73.4375 
Q 25.25 74.21875 29.59375 74.21875 
Q 40.828125 74.21875 47.359375 69.109375 
Q 53.90625 64.015625 53.90625 55.328125 
Q 53.90625 49.265625 50.4375 45.09375 
Q 46.96875 40.921875 40.578125 39.3125 
z
" id="DejaVuSans-51"/>
      </defs>
      <g transform="translate(24.749375 229.279127)scale(0.1 -0.1)">
       <use transform="translate(0 0.765625)" xlink:href="#DejaVuSans-49"/>
       <use transform="translate(63.623047 0.765625)" xlink:href="#DejaVuSans-48"/>
       <use transform="translate(128.203125 39.046875)scale(0.7)" xlink:href="#DejaVuSans-8722"/>
       <use transform="translate(186.855469 39.046875)scale(0.7)" xlink:href="#DejaVuSans-51"/>
      </g>
     </g>
    </g>
    <g id="ytick_2">
     <g id="line2d_8">
      <g>
       <use style="fill-opacity:0;stroke:#000000;stroke-width:0.8;" x="55.249375" xlink:href="#m34b54b934f" y="153.986345"/>
      </g>
     </g>
     <g id="text_9">
      <!-- $\mathdefault{10^{-2}}$ -->
      <g transform="translate(24.749375 157.785564)scale(0.1 -0.1)">
       <use transform="translate(0 0.765625)" xlink:href="#DejaVuSans-49"/>
       <use transform="translate(63.623047 0.765625)" xlink:href="#DejaVuSans-48"/>
       <use transform="translate(128.203125 39.046875)scale(0.7)" xlink:href="#DejaVuSans-8722"/>
       <use transform="translate(186.855469 39.046875)scale(0.7)" xlink:href="#DejaVuSans-50"/>
      </g>
     </g>
    </g>
    <g id="ytick_3">
     <g id="line2d_9">
      <g>
       <use style="fill-opacity:0;stroke:#000000;stroke-width:0.8;" x="55.249375" xlink:href="#m34b54b934f" y="82.492782"/>
      </g>
     </g>
     <g id="text_10">
      <!-- $\mathdefault{10^{-1}}$ -->
      <g transform="translate(24.749375 86.292001)scale(0.1 -0.1)">
       <use transform="translate(0 0.684375)" xlink:href="#DejaVuSans-49"/>
       <use transform="translate(63.623047 0.684375)" xlink:href="#DejaVuSans-48"/>
       <use transform="translate(128.203125 38.965625)scale(0.7)" xlink:href="#DejaVuSans-8722"/>
       <use transform="translate(186.855469 38.965625)scale(0.7)" xlink:href="#DejaVuSans-49"/>
      </g>
     </g>
    </g>
    <g id="ytick_4">
     <g id="line2d_10">
      <g>
       <use style="fill-opacity:0;stroke:#000000;stroke-width:0.8;" x="55.249375" xlink:href="#m34b54b934f" y="10.999219"/>
      </g>
     </g>
     <g id="text_11">
      <!-- $\mathdefault{10^{0}}$ -->
      <g transform="translate(30.649375 14.798437)scale(0.1 -0.1)">
       <use transform="translate(0 0.765625)" xlink:href="#DejaVuSans-49"/>
       <use transform="translate(63.623047 0.765625)" xlink:href="#DejaVuSans-48"/>
       <use transform="translate(128.203125 39.046875)scale(0.7)" xlink:href="#DejaVuSans-48"/>
      </g>
     </g>
    </g>
    <g id="ytick_5">
     <g id="line2d_11">
      <defs>
       <path d="M 0 0 
L -2 0 
" id="ma5b384ab87" style="stroke:#000000;stroke-width:0.6;"/>
      </defs>
      <g>
       <use style="fill-opacity:0;stroke:#000000;stroke-width:0.6;" x="55.249375" xlink:href="#ma5b384ab87" y="203.958201"/>
      </g>
     </g>
    </g>
    <g id="ytick_6">
     <g id="line2d_12">
      <g>
       <use style="fill-opacity:0;stroke:#000000;stroke-width:0.6;" x="55.249375" xlink:href="#ma5b384ab87" y="191.36881"/>
      </g>
     </g>
    </g>
    <g id="ytick_7">
     <g id="line2d_13">
      <g>
       <use style="fill-opacity:0;stroke:#000000;stroke-width:0.6;" x="55.249375" xlink:href="#ma5b384ab87" y="182.436494"/>
      </g>
     </g>
    </g>
    <g id="ytick_8">
     <g id="line2d_14">
      <g>
       <use style="fill-opacity:0;stroke:#000000;stroke-width:0.6;" x="55.249375" xlink:href="#ma5b384ab87" y="175.508052"/>
      </g>
     </g>
    </g>
    <g id="ytick_9">
     <g id="line2d_15">
      <g>
       <use style="fill-opacity:0;stroke:#000000;stroke-width:0.6;" x="55.249375" xlink:href="#ma5b384ab87" y="169.847103"/>
      </g>
     </g>
    </g>
    <g id="ytick_10">
     <g id="line2d_16">
      <g>
       <use style="fill-opacity:0;stroke:#000000;stroke-width:0.6;" x="55.249375" xlink:href="#ma5b384ab87" y="165.060838"/>
      </g>
     </g>
    </g>
    <g id="ytick_11">
     <g id="line2d_17">
      <g>
       <use style="fill-opacity:0;stroke:#000000;stroke-width:0.6;" x="55.249375" xlink:href="#ma5b384ab87" y="160.914787"/>
      </g>
     </g>
    </g>
    <g id="ytick_12">
     <g id="line2d_18">
      <g>
       <use style="fill-opacity:0;stroke:#000000;stroke-width:0.6;" x="55.249375" xlink:href="#ma5b384ab87" y="157.257711"/>
      </g>
     </g>
    </g>
    <g id="ytick_13">
     <g id="line2d_19">
      <g>
       <use style="fill-opacity:0;stroke:#000000;stroke-width:0.6;" x="55.249375" xlink:href="#ma5b384ab87" y="132.464638"/>
      </g>
     </g>
    </g>
    <g id="ytick_14">
     <g id="line2d_20">
      <g>
       <use style="fill-opacity:0;stroke:#000000;stroke-width:0.6;" x="55.249375" xlink:href="#ma5b384ab87" y="119.875246"/>
      </g>
     </g>
    </g>
    <g id="ytick_15">
     <g id="line2d_21">
      <g>
       <use style="fill-opacity:0;stroke:#000000;stroke-width:0.6;" x="55.249375" xlink:href="#ma5b384ab87" y="110.942931"/>
      </g>
     </g>
    </g>
    <g id="ytick_16">
     <g id="line2d_22">
      <g>
       <use style="fill-opacity:0;stroke:#000000;stroke-width:0.6;" x="55.249375" xlink:href="#ma5b384ab87" y="104.014489"/>
      </g>
     </g>
    </g>
    <g id="ytick_17">
     <g id="line2d_23">
      <g>
       <use style="fill-opacity:0;stroke:#000000;stroke-width:0.6;" x="55.249375" xlink:href="#ma5b384ab87" y="98.353539"/>
      </g>
     </g>
    </g>
    <g id="ytick_18">
     <g id="line2d_24">
      <g>
       <use style="fill-opacity:0;stroke:#000000;stroke-width:0.6;" x="55.249375" xlink:href="#ma5b384ab87" y="93.567275"/>
      </g>
     </g>
    </g>
    <g id="ytick_19">
     <g id="line2d_25">
      <g>
       <use style="fill-opacity:0;stroke:#000000;stroke-width:0.6;" x="55.249375" xlink:href="#ma5b384ab87" y="89.421224"/>
      </g>
     </g>
    </g>
    <g id="ytick_20">
     <g id="line2d_26">
      <g>
       <use style="fill-opacity:0;stroke:#000000;stroke-width:0.6;" x="55.249375" xlink:href="#ma5b384ab87" y="85.764148"/>
      </g>
     </g>
    </g>
    <g id="ytick_21">
     <g id="line2d_27">
      <g>
       <use style="fill-opacity:0;stroke:#000000;stroke-width:0.6;" x="55.249375" xlink:href="#ma5b384ab87" y="60.971075"/>
      </g>
     </g>
    </g>
    <g id="ytick_22">
     <g id="line2d_28">
      <g>
       <use style="fill-opacity:0;stroke:#000000;stroke-width:0.6;" x="55.249375" xlink:href="#ma5b384ab87" y="48.381683"/>
      </g>
     </g>
    </g>
    <g id="ytick_23">
     <g id="line2d_29">
      <g>
       <use style="fill-opacity:0;stroke:#000000;stroke-width:0.6;" x="55.249375" xlink:href="#ma5b384ab87" y="39.449368"/>
      </g>
     </g>
    </g>
    <g id="ytick_24">
     <g id="line2d_30">
      <g>
       <use style="fill-opacity:0;stroke:#000000;stroke-width:0.6;" x="55.249375" xlink:href="#ma5b384ab87" y="32.520926"/>
      </g>
     </g>
    </g>
    <g id="ytick_25">
     <g id="line2d_31">
      <g>
       <use style="fill-opacity:0;stroke:#000000;stroke-width:0.6;" x="55.249375" xlink:href="#ma5b384ab87" y="26.859976"/>
      </g>
     </g>
    </g>
    <g id="ytick_26">
     <g id="line2d_32">
      <g>
       <use style="fill-opacity:0;stroke:#000000;stroke-width:0.6;" x="55.249375" xlink:href="#ma5b384ab87" y="22.073712"/>
      </g>
     </g>
    </g>
    <g id="ytick_27">
     <g id="line2d_33">
      <g>
       <use style="fill-opacity:0;stroke:#000000;stroke-width:0.6;" x="55.249375" xlink:href="#ma5b384ab87" y="17.927661"/>
      </g>
     </g>
    </g>
    <g id="ytick_28">
     <g id="line2d_34">
      <g>
       <use style="fill-opacity:0;stroke:#000000;stroke-width:0.6;" x="55.249375" xlink:href="#ma5b384ab87" y="14.270585"/>
      </g>
     </g>
    </g>
    <g id="text_12">
     <!-- Probability -->
     <defs>
      <path d="M 19.671875 64.796875 
L 19.671875 37.40625 
L 32.078125 37.40625 
Q 38.96875 37.40625 42.71875 40.96875 
Q 46.484375 44.53125 46.484375 51.125 
Q 46.484375 57.671875 42.71875 61.234375 
Q 38.96875 64.796875 32.078125 64.796875 
z
M 9.8125 72.90625 
L 32.078125 72.90625 
Q 44.34375 72.90625 50.609375 67.359375 
Q 56.890625 61.8125 56.890625 51.125 
Q 56.890625 40.328125 50.609375 34.8125 
Q 44.34375 29.296875 32.078125 29.296875 
L 19.671875 29.296875 
L 19.671875 0 
L 9.8125 0 
z
" id="DejaVuSans-80"/>
      <path d="M 41.109375 46.296875 
Q 39.59375 47.171875 37.8125 47.578125 
Q 36.03125 48 33.890625 48 
Q 26.265625 48 22.1875 43.046875 
Q 18.109375 38.09375 18.109375 28.8125 
L 18.109375 0 
L 9.078125 0 
L 9.078125 54.6875 
L 18.109375 54.6875 
L 18.109375 46.1875 
Q 20.953125 51.171875 25.484375 53.578125 
Q 30.03125 56 36.53125 56 
Q 37.453125 56 38.578125 55.875 
Q 39.703125 55.765625 41.0625 55.515625 
z
" id="DejaVuSans-114"/>
      <path d="M 30.609375 48.390625 
Q 23.390625 48.390625 19.1875 42.75 
Q 14.984375 37.109375 14.984375 27.296875 
Q 14.984375 17.484375 19.15625 11.84375 
Q 23.34375 6.203125 30.609375 6.203125 
Q 37.796875 6.203125 41.984375 11.859375 
Q 46.1875 17.53125 46.1875 27.296875 
Q 46.1875 37.015625 41.984375 42.703125 
Q 37.796875 48.390625 30.609375 48.390625 
z
M 30.609375 56 
Q 42.328125 56 49.015625 48.375 
Q 55.71875 40.765625 55.71875 27.296875 
Q 55.71875 13.875 49.015625 6.21875 
Q 42.328125 -1.421875 30.609375 -1.421875 
Q 18.84375 -1.421875 12.171875 6.21875 
Q 5.515625 13.875 5.515625 27.296875 
Q 5.515625 40.765625 12.171875 48.375 
Q 18.84375 56 30.609375 56 
z
" id="DejaVuSans-111"/>
      <path d="M 48.6875 27.296875 
Q 48.6875 37.203125 44.609375 42.84375 
Q 40.53125 48.484375 33.40625 48.484375 
Q 26.265625 48.484375 22.1875 42.84375 
Q 18.109375 37.203125 18.109375 27.296875 
Q 18.109375 17.390625 22.1875 11.75 
Q 26.265625 6.109375 33.40625 6.109375 
Q 40.53125 6.109375 44.609375 11.75 
Q 48.6875 17.390625 48.6875 27.296875 
z
M 18.109375 46.390625 
Q 20.953125 51.265625 25.265625 53.625 
Q 29.59375 56 35.59375 56 
Q 45.5625 56 51.78125 48.09375 
Q 58.015625 40.1875 58.015625 27.296875 
Q 58.015625 14.40625 51.78125 6.484375 
Q 45.5625 -1.421875 35.59375 -1.421875 
Q 29.59375 -1.421875 25.265625 0.953125 
Q 20.953125 3.328125 18.109375 8.203125 
L 18.109375 0 
L 9.078125 0 
L 9.078125 75.984375 
L 18.109375 75.984375 
z
" id="DejaVuSans-98"/>
      <path d="M 34.28125 27.484375 
Q 23.390625 27.484375 19.1875 25 
Q 14.984375 22.515625 14.984375 16.5 
Q 14.984375 11.71875 18.140625 8.90625 
Q 21.296875 6.109375 26.703125 6.109375 
Q 34.1875 6.109375 38.703125 11.40625 
Q 43.21875 16.703125 43.21875 25.484375 
L 43.21875 27.484375 
z
M 52.203125 31.203125 
L 52.203125 0 
L 43.21875 0 
L 43.21875 8.296875 
Q 40.140625 3.328125 35.546875 0.953125 
Q 30.953125 -1.421875 24.3125 -1.421875 
Q 15.921875 -1.421875 10.953125 3.296875 
Q 6 8.015625 6 15.921875 
Q 6 25.140625 12.171875 29.828125 
Q 18.359375 34.515625 30.609375 34.515625 
L 43.21875 34.515625 
L 43.21875 35.40625 
Q 43.21875 41.609375 39.140625 45 
Q 35.0625 48.390625 27.6875 48.390625 
Q 23 48.390625 18.546875 47.265625 
Q 14.109375 46.140625 10.015625 43.890625 
L 10.015625 52.203125 
Q 14.9375 54.109375 19.578125 55.046875 
Q 24.21875 56 28.609375 56 
Q 40.484375 56 46.34375 49.84375 
Q 52.203125 43.703125 52.203125 31.203125 
z
" id="DejaVuSans-97"/>
      <path d="M 9.421875 54.6875 
L 18.40625 54.6875 
L 18.40625 0 
L 9.421875 0 
z
M 9.421875 75.984375 
L 18.40625 75.984375 
L 18.40625 64.59375 
L 9.421875 64.59375 
z
" id="DejaVuSans-105"/>
      <path d="M 9.421875 75.984375 
L 18.40625 75.984375 
L 18.40625 0 
L 9.421875 0 
z
" id="DejaVuSans-108"/>
      <path d="M 18.3125 70.21875 
L 18.3125 54.6875 
L 36.8125 54.6875 
L 36.8125 47.703125 
L 18.3125 47.703125 
L 18.3125 18.015625 
Q 18.3125 11.328125 20.140625 9.421875 
Q 21.96875 7.515625 27.59375 7.515625 
L 36.8125 7.515625 
L 36.8125 0 
L 27.59375 0 
Q 17.1875 0 13.234375 3.875 
Q 9.28125 7.765625 9.28125 18.015625 
L 9.28125 47.703125 
L 2.6875 47.703125 
L 2.6875 54.6875 
L 9.28125 54.6875 
L 9.28125 70.21875 
z
" id="DejaVuSans-116"/>
      <path d="M 32.171875 -5.078125 
Q 28.375 -14.84375 24.75 -17.8125 
Q 21.140625 -20.796875 15.09375 -20.796875 
L 7.90625 -20.796875 
L 7.90625 -13.28125 
L 13.1875 -13.28125 
Q 16.890625 -13.28125 18.9375 -11.515625 
Q 21 -9.765625 23.484375 -3.21875 
L 25.09375 0.875 
L 2.984375 54.6875 
L 12.5 54.6875 
L 29.59375 11.921875 
L 46.6875 54.6875 
L 56.203125 54.6875 
z
" id="DejaVuSans-121"/>
     </defs>
     <g transform="translate(17.837812 154.037096)rotate(-90)scale(0.14 -0.14)">
      <use xlink:href="#DejaVuSans-80"/>
      <use x="60.287109" xlink:href="#DejaVuSans-114"/>
      <use x="101.369141" xlink:href="#DejaVuSans-111"/>
      <use x="162.550781" xlink:href="#DejaVuSans-98"/>
      <use x="226.027344" xlink:href="#DejaVuSans-97"/>
      <use x="287.306641" xlink:href="#DejaVuSans-98"/>
      <use x="350.783203" xlink:href="#DejaVuSans-105"/>
      <use x="378.566406" xlink:href="#DejaVuSans-108"/>
      <use x="406.349609" xlink:href="#DejaVuSans-105"/>
      <use x="434.132812" xlink:href="#DejaVuSans-116"/>
      <use x="473.341797" xlink:href="#DejaVuSans-121"/>
     </g>
    </g>
   </g>
   <g id="LineCollection_1">
    <path clip-path="url(#p4df588254d)" d="M 70.467557 22.289877 
L 70.467557 21.109542 
" style="fill:none;stroke:#cccccc;stroke-width:1.5;"/>
    <path clip-path="url(#p4df588254d)" d="M 83.149375 106.86945 
L 83.149375 98.755042 
" style="fill:none;stroke:#cccccc;stroke-width:1.5;"/>
    <path clip-path="url(#p4df588254d)" d="M 95.831193 108.789927 
L 95.831193 100.503802 
" style="fill:none;stroke:#cccccc;stroke-width:1.5;"/>
    <path clip-path="url(#p4df588254d)" d="M 108.513011 114.941189 
L 108.513011 105.264296 
" style="fill:none;stroke:#cccccc;stroke-width:1.5;"/>
    <path clip-path="url(#p4df588254d)" d="M 121.19483 121.581656 
L 121.19483 112.772675 
" style="fill:none;stroke:#cccccc;stroke-width:1.5;"/>
    <path clip-path="url(#p4df588254d)" d="M 133.876648 136.925427 
L 133.876648 124.543413 
" style="fill:none;stroke:#cccccc;stroke-width:1.5;"/>
    <path clip-path="url(#p4df588254d)" d="M 146.558466 143.637483 
L 146.558466 129.454938 
" style="fill:none;stroke:#cccccc;stroke-width:1.5;"/>
    <path clip-path="url(#p4df588254d)" d="M 159.240284 153.436965 
L 159.240284 137.662181 
" style="fill:none;stroke:#cccccc;stroke-width:1.5;"/>
    <path clip-path="url(#p4df588254d)" d="M 171.922102 158.988411 
L 171.922102 141.987745 
" style="fill:none;stroke:#cccccc;stroke-width:1.5;"/>
    <path clip-path="url(#p4df588254d)" d="M 184.60392 170.642257 
L 184.60392 150.574541 
" style="fill:none;stroke:#cccccc;stroke-width:1.5;"/>
    <path clip-path="url(#p4df588254d)" d="M 197.285739 185.053588 
L 197.285739 162.029613 
" style="fill:none;stroke:#cccccc;stroke-width:1.5;"/>
    <path clip-path="url(#p4df588254d)" d="M 209.967557 185.448708 
L 209.967557 159.979082 
" style="fill:none;stroke:#cccccc;stroke-width:1.5;"/>
    <path clip-path="url(#p4df588254d)" d="M 222.649375 199.877599 
L 222.649375 169.463304 
" style="fill:none;stroke:#cccccc;stroke-width:1.5;"/>
    <path clip-path="url(#p4df588254d)" d="M 235.331193 189.94525 
L 235.331193 163.473241 
" style="fill:none;stroke:#cccccc;stroke-width:1.5;"/>
    <path clip-path="url(#p4df588254d)" d="M 248.013011 208.817452 
L 248.013011 172.689148 
" style="fill:none;stroke:#cccccc;stroke-width:1.5;"/>
    <path clip-path="url(#p4df588254d)" d="M 260.69483 206.156133 
L 260.69483 173.808276 
" style="fill:none;stroke:#cccccc;stroke-width:1.5;"/>
    <path clip-path="url(#p4df588254d)" d="M 273.376648 237.449232 
L 273.376648 185.814214 
" style="fill:none;stroke:#cccccc;stroke-width:1.5;"/>
    <path clip-path="url(#p4df588254d)" d="M 286.058466 239.462202 
L 286.058466 189.091661 
" style="fill:none;stroke:#cccccc;stroke-width:1.5;"/>
    <path clip-path="url(#p4df588254d)" d="M 298.740284 246.407749 
L 298.740284 195.925042 
" style="fill:none;stroke:#cccccc;stroke-width:1.5;"/>
    <path clip-path="url(#p4df588254d)" d="M 311.422102 268.358033 
L 311.422102 201.392468 
" style="fill:none;stroke:#cccccc;stroke-width:1.5;"/>
    <path clip-path="url(#p4df588254d)" d="M 324.10392 268.358033 
L 324.10392 193.972902 
" style="fill:none;stroke:#cccccc;stroke-width:1.5;"/>
    <path clip-path="url(#p4df588254d)" d="M 336.785739 268.358033 
L 336.785739 199.139303 
" style="fill:none;stroke:#cccccc;stroke-width:1.5;"/>
    <path clip-path="url(#p4df588254d)" d="M 349.467557 253.022782 
L 349.467557 195.468777 
" style="fill:none;stroke:#cccccc;stroke-width:1.5;"/>
    <path clip-path="url(#p4df588254d)" d="M 362.149375 268.358033 
L 362.149375 195.416021 
" style="fill:none;stroke:#cccccc;stroke-width:1.5;"/>
    <path clip-path="url(#p4df588254d)" d="M 374.831193 268.358033 
L 374.831193 201.747249 
" style="fill:none;stroke:#cccccc;stroke-width:1.5;"/>
   </g>
   <g id="LineCollection_2">
    <path clip-path="url(#p4df588254d)" d="M 70.467557 22.057258 
L 70.467557 20.719925 
" style="fill:none;stroke:#cccccc;stroke-width:1.5;"/>
    <path clip-path="url(#p4df588254d)" d="M 83.149375 101.635385 
L 83.149375 93.641137 
" style="fill:none;stroke:#cccccc;stroke-width:1.5;"/>
    <path clip-path="url(#p4df588254d)" d="M 95.831193 107.275413 
L 95.831193 99.193963 
" style="fill:none;stroke:#cccccc;stroke-width:1.5;"/>
    <path clip-path="url(#p4df588254d)" d="M 108.513011 113.620937 
L 108.513011 104.504817 
" style="fill:none;stroke:#cccccc;stroke-width:1.5;"/>
    <path clip-path="url(#p4df588254d)" d="M 121.19483 123.528613 
L 121.19483 113.567161 
" style="fill:none;stroke:#cccccc;stroke-width:1.5;"/>
    <path clip-path="url(#p4df588254d)" d="M 133.876648 135.070124 
L 133.876648 123.243787 
" style="fill:none;stroke:#cccccc;stroke-width:1.5;"/>
    <path clip-path="url(#p4df588254d)" d="M 146.558466 148.685867 
L 146.558466 135.219195 
" style="fill:none;stroke:#cccccc;stroke-width:1.5;"/>
    <path clip-path="url(#p4df588254d)" d="M 159.240284 160.015114 
L 159.240284 142.47535 
" style="fill:none;stroke:#cccccc;stroke-width:1.5;"/>
    <path clip-path="url(#p4df588254d)" d="M 171.922102 165.028249 
L 171.922102 147.268479 
" style="fill:none;stroke:#cccccc;stroke-width:1.5;"/>
    <path clip-path="url(#p4df588254d)" d="M 184.60392 171.116138 
L 184.60392 150.020295 
" style="fill:none;stroke:#cccccc;stroke-width:1.5;"/>
    <path clip-path="url(#p4df588254d)" d="M 197.285739 183.028558 
L 197.285739 159.11564 
" style="fill:none;stroke:#cccccc;stroke-width:1.5;"/>
    <path clip-path="url(#p4df588254d)" d="M 209.967557 185.310125 
L 209.967557 161.482838 
" style="fill:none;stroke:#cccccc;stroke-width:1.5;"/>
    <path clip-path="url(#p4df588254d)" d="M 222.649375 202.394748 
L 222.649375 174.185042 
" style="fill:none;stroke:#cccccc;stroke-width:1.5;"/>
    <path clip-path="url(#p4df588254d)" d="M 235.331193 206.676028 
L 235.331193 173.067776 
" style="fill:none;stroke:#cccccc;stroke-width:1.5;"/>
    <path clip-path="url(#p4df588254d)" d="M 248.013011 213.001691 
L 248.013011 176.607932 
" style="fill:none;stroke:#cccccc;stroke-width:1.5;"/>
    <path clip-path="url(#p4df588254d)" d="M 260.69483 236.458925 
L 260.69483 185.038387 
" style="fill:none;stroke:#cccccc;stroke-width:1.5;"/>
    <path clip-path="url(#p4df588254d)" d="M 273.376648 259.422102 
L 273.376648 192.793574 
" style="fill:none;stroke:#cccccc;stroke-width:1.5;"/>
    <path clip-path="url(#p4df588254d)" d="M 286.058466 268.358033 
L 286.058466 206.396706 
" style="fill:none;stroke:#cccccc;stroke-width:1.5;"/>
    <path clip-path="url(#p4df588254d)" d="M 298.740284 268.358033 
L 298.740284 214.106967 
" style="fill:none;stroke:#cccccc;stroke-width:1.5;"/>
    <path clip-path="url(#p4df588254d)" d="M 311.422102 268.358033 
L 311.422102 213.323205 
" style="fill:none;stroke:#cccccc;stroke-width:1.5;"/>
    <path clip-path="url(#p4df588254d)" style="fill:none;stroke:#cccccc;stroke-width:1.5;"/>
    <path clip-path="url(#p4df588254d)" style="fill:none;stroke:#cccccc;stroke-width:1.5;"/>
    <path clip-path="url(#p4df588254d)" d="M 349.467557 268.358033 
L 349.467557 249.16797 
" style="fill:none;stroke:#cccccc;stroke-width:1.5;"/>
    <path clip-path="url(#p4df588254d)" style="fill:none;stroke:#cccccc;stroke-width:1.5;"/>
    <path clip-path="url(#p4df588254d)" style="fill:none;stroke:#cccccc;stroke-width:1.5;"/>
   </g>
   <g id="LineCollection_3">
    <path clip-path="url(#p4df588254d)" d="M 70.467557 18.437859 
L 70.467557 17.440226 
" style="fill:none;stroke:#cccccc;stroke-width:1.5;"/>
    <path clip-path="url(#p4df588254d)" d="M 83.149375 107.314689 
L 83.149375 99.128086 
" style="fill:none;stroke:#cccccc;stroke-width:1.5;"/>
    <path clip-path="url(#p4df588254d)" d="M 95.831193 111.9718 
L 95.831193 103.058301 
" style="fill:none;stroke:#cccccc;stroke-width:1.5;"/>
    <path clip-path="url(#p4df588254d)" d="M 108.513011 117.945257 
L 108.513011 109.121969 
" style="fill:none;stroke:#cccccc;stroke-width:1.5;"/>
    <path clip-path="url(#p4df588254d)" d="M 121.19483 129.196686 
L 121.19483 118.5976 
" style="fill:none;stroke:#cccccc;stroke-width:1.5;"/>
    <path clip-path="url(#p4df588254d)" d="M 133.876648 144.483019 
L 133.876648 129.169571 
" style="fill:none;stroke:#cccccc;stroke-width:1.5;"/>
    <path clip-path="url(#p4df588254d)" d="M 146.558466 170.402199 
L 146.558466 148.620952 
" style="fill:none;stroke:#cccccc;stroke-width:1.5;"/>
    <path clip-path="url(#p4df588254d)" d="M 159.240284 196.775571 
L 159.240284 165.600211 
" style="fill:none;stroke:#cccccc;stroke-width:1.5;"/>
    <path clip-path="url(#p4df588254d)" d="M 171.922102 203.118995 
L 171.922102 173.551528 
" style="fill:none;stroke:#cccccc;stroke-width:1.5;"/>
    <path clip-path="url(#p4df588254d)" d="M 184.60392 249.300428 
L 184.60392 193.781832 
" style="fill:none;stroke:#cccccc;stroke-width:1.5;"/>
    <path clip-path="url(#p4df588254d)" d="M 197.285739 268.358033 
L 197.285739 208.529193 
" style="fill:none;stroke:#cccccc;stroke-width:1.5;"/>
    <path clip-path="url(#p4df588254d)" d="M 209.967557 268.358033 
L 209.967557 210.117498 
" style="fill:none;stroke:#cccccc;stroke-width:1.5;"/>
    <path clip-path="url(#p4df588254d)" d="M 222.649375 268.358033 
L 222.649375 226.384326 
" style="fill:none;stroke:#cccccc;stroke-width:1.5;"/>
    <path clip-path="url(#p4df588254d)" d="M 235.331193 268.358033 
L 235.331193 235.380605 
" style="fill:none;stroke:#cccccc;stroke-width:1.5;"/>
    <path clip-path="url(#p4df588254d)" d="M 248.013011 268.358033 
L 248.013011 253.930057 
" style="fill:none;stroke:#cccccc;stroke-width:1.5;"/>
    <path clip-path="url(#p4df588254d)" d="M 260.69483 268.358033 
L 260.69483 250.622588 
" style="fill:none;stroke:#cccccc;stroke-width:1.5;"/>
    <path clip-path="url(#p4df588254d)" style="fill:none;stroke:#cccccc;stroke-width:1.5;"/>
    <path clip-path="url(#p4df588254d)" style="fill:none;stroke:#cccccc;stroke-width:1.5;"/>
    <path clip-path="url(#p4df588254d)" style="fill:none;stroke:#cccccc;stroke-width:1.5;"/>
    <path clip-path="url(#p4df588254d)" style="fill:none;stroke:#cccccc;stroke-width:1.5;"/>
    <path clip-path="url(#p4df588254d)" style="fill:none;stroke:#cccccc;stroke-width:1.5;"/>
    <path clip-path="url(#p4df588254d)" style="fill:none;stroke:#cccccc;stroke-width:1.5;"/>
    <path clip-path="url(#p4df588254d)" style="fill:none;stroke:#cccccc;stroke-width:1.5;"/>
    <path clip-path="url(#p4df588254d)" style="fill:none;stroke:#cccccc;stroke-width:1.5;"/>
    <path clip-path="url(#p4df588254d)" style="fill:none;stroke:#cccccc;stroke-width:1.5;"/>
   </g>
   <g id="LineCollection_4">
    <path clip-path="url(#p4df588254d)" d="M 70.467557 17.878067 
L 70.467557 17.028684 
" style="fill:none;stroke:#cccccc;stroke-width:1.5;"/>
    <path clip-path="url(#p4df588254d)" d="M 83.149375 101.428901 
L 83.149375 93.737163 
" style="fill:none;stroke:#cccccc;stroke-width:1.5;"/>
    <path clip-path="url(#p4df588254d)" d="M 95.831193 111.353783 
L 95.831193 103.093211 
" style="fill:none;stroke:#cccccc;stroke-width:1.5;"/>
    <path clip-path="url(#p4df588254d)" d="M 108.513011 121.921627 
L 108.513011 111.829923 
" style="fill:none;stroke:#cccccc;stroke-width:1.5;"/>
    <path clip-path="url(#p4df588254d)" d="M 121.19483 137.820183 
L 121.19483 124.692555 
" style="fill:none;stroke:#cccccc;stroke-width:1.5;"/>
    <path clip-path="url(#p4df588254d)" d="M 133.876648 156.706403 
L 133.876648 140.381319 
" style="fill:none;stroke:#cccccc;stroke-width:1.5;"/>
    <path clip-path="url(#p4df588254d)" d="M 146.558466 179.454202 
L 146.558466 155.394063 
" style="fill:none;stroke:#cccccc;stroke-width:1.5;"/>
    <path clip-path="url(#p4df588254d)" d="M 159.240284 228.281234 
L 159.240284 184.637458 
" style="fill:none;stroke:#cccccc;stroke-width:1.5;"/>
    <path clip-path="url(#p4df588254d)" d="M 171.922102 268.358033 
L 171.922102 199.061892 
" style="fill:none;stroke:#cccccc;stroke-width:1.5;"/>
    <path clip-path="url(#p4df588254d)" d="M 184.60392 268.358033 
L 184.60392 202.639427 
" style="fill:none;stroke:#cccccc;stroke-width:1.5;"/>
    <path clip-path="url(#p4df588254d)" d="M 197.285739 268.358033 
L 197.285739 211.059248 
" style="fill:none;stroke:#cccccc;stroke-width:1.5;"/>
    <path clip-path="url(#p4df588254d)" d="M 209.967557 268.358033 
L 209.967557 222.402849 
" style="fill:none;stroke:#cccccc;stroke-width:1.5;"/>
    <path clip-path="url(#p4df588254d)" style="fill:none;stroke:#cccccc;stroke-width:1.5;"/>
    <path clip-path="url(#p4df588254d)" style="fill:none;stroke:#cccccc;stroke-width:1.5;"/>
    <path clip-path="url(#p4df588254d)" d="M 248.013011 268.358033 
L 248.013011 244.289831 
" style="fill:none;stroke:#cccccc;stroke-width:1.5;"/>
    <path clip-path="url(#p4df588254d)" style="fill:none;stroke:#cccccc;stroke-width:1.5;"/>
    <path clip-path="url(#p4df588254d)" style="fill:none;stroke:#cccccc;stroke-width:1.5;"/>
    <path clip-path="url(#p4df588254d)" style="fill:none;stroke:#cccccc;stroke-width:1.5;"/>
    <path clip-path="url(#p4df588254d)" style="fill:none;stroke:#cccccc;stroke-width:1.5;"/>
    <path clip-path="url(#p4df588254d)" style="fill:none;stroke:#cccccc;stroke-width:1.5;"/>
    <path clip-path="url(#p4df588254d)" style="fill:none;stroke:#cccccc;stroke-width:1.5;"/>
    <path clip-path="url(#p4df588254d)" style="fill:none;stroke:#cccccc;stroke-width:1.5;"/>
    <path clip-path="url(#p4df588254d)" style="fill:none;stroke:#cccccc;stroke-width:1.5;"/>
    <path clip-path="url(#p4df588254d)" style="fill:none;stroke:#cccccc;stroke-width:1.5;"/>
    <path clip-path="url(#p4df588254d)" style="fill:none;stroke:#cccccc;stroke-width:1.5;"/>
   </g>
   <g id="line2d_35">
    <path clip-path="url(#p4df588254d)" d="M 70.467557 18.849399 
L 83.149375 94.140288 
L 95.831193 99.859125 
L 108.513011 107.814721 
L 121.19483 122.262346 
L 133.876648 140.741536 
L 146.558466 165.552629 
L 159.240284 215.032694 
L 171.922102 225.479908 
L 184.60392 240.322566 
L 189.85366 268.358033 
" style="fill:none;stroke:#808080;stroke-dasharray:1.5,2.475;stroke-dashoffset:0;stroke-width:1.5;"/>
    <defs>
     <path d="M 0 -3 
L -3 3 
L 3 3 
z
" id="m5aba879219" style="stroke:#808080;stroke-linejoin:miter;"/>
    </defs>
    <g clip-path="url(#p4df588254d)">
     <use style="fill-opacity:0;stroke:#808080;stroke-linejoin:miter;" x="70.467557" xlink:href="#m5aba879219" y="18.849399"/>
     <use style="fill-opacity:0;stroke:#808080;stroke-linejoin:miter;" x="83.149375" xlink:href="#m5aba879219" y="94.140288"/>
     <use style="fill-opacity:0;stroke:#808080;stroke-linejoin:miter;" x="95.831193" xlink:href="#m5aba879219" y="99.859125"/>
     <use style="fill-opacity:0;stroke:#808080;stroke-linejoin:miter;" x="108.513011" xlink:href="#m5aba879219" y="107.814721"/>
     <use style="fill-opacity:0;stroke:#808080;stroke-linejoin:miter;" x="121.19483" xlink:href="#m5aba879219" y="122.262346"/>
     <use style="fill-opacity:0;stroke:#808080;stroke-linejoin:miter;" x="133.876648" xlink:href="#m5aba879219" y="140.741536"/>
     <use style="fill-opacity:0;stroke:#808080;stroke-linejoin:miter;" x="146.558466" xlink:href="#m5aba879219" y="165.552629"/>
     <use style="fill-opacity:0;stroke:#808080;stroke-linejoin:miter;" x="159.240284" xlink:href="#m5aba879219" y="215.032694"/>
     <use style="fill-opacity:0;stroke:#808080;stroke-linejoin:miter;" x="171.922102" xlink:href="#m5aba879219" y="225.479908"/>
     <use style="fill-opacity:0;stroke:#808080;stroke-linejoin:miter;" x="184.60392" xlink:href="#m5aba879219" y="240.322566"/>
     <use style="fill-opacity:0;stroke:#808080;stroke-linejoin:miter;" x="197.285739" xlink:href="#m5aba879219" y="308.047964"/>
     <use style="fill-opacity:0;stroke:#808080;stroke-linejoin:miter;" x="209.967557" xlink:href="#m5aba879219" y="303.901913"/>
     <use style="fill-opacity:0;stroke:#808080;stroke-linejoin:miter;" x="213.342256" xlink:href="#m5aba879219" y="19250.77839"/>
     <use style="fill-opacity:0;stroke:#808080;stroke-linejoin:miter;" x="244.636666" xlink:href="#m5aba879219" y="19250.77839"/>
     <use style="fill-opacity:0;stroke:#808080;stroke-linejoin:miter;" x="248.013011" xlink:href="#m5aba879219" y="291.312522"/>
     <use style="fill-opacity:0;stroke:#808080;stroke-linejoin:miter;" x="251.389356" xlink:href="#m5aba879219" y="19250.77839"/>
    </g>
   </g>
   <g id="line2d_36">
    <path clip-path="url(#p4df588254d)" d="M 70.467557 18.162972 
L 83.149375 95.061998 
L 95.831193 98.592501 
L 108.513011 112.658355 
L 121.19483 130.538485 
L 133.876648 145.602202 
L 146.558466 177.962285 
L 159.240284 207.751416 
L 171.922102 227.401094 
L 183.804843 268.358033 
" style="fill:none;stroke:#808080;stroke-dasharray:1.5,2.475;stroke-dashoffset:0;stroke-width:1.5;"/>
    <defs>
     <path d="M 0 3 
C 0.795609 3 1.55874 2.683901 2.12132 2.12132 
C 2.683901 1.55874 3 0.795609 3 0 
C 3 -0.795609 2.683901 -1.55874 2.12132 -2.12132 
C 1.55874 -2.683901 0.795609 -3 0 -3 
C -0.795609 -3 -1.55874 -2.683901 -2.12132 -2.12132 
C -2.683901 -1.55874 -3 -0.795609 -3 0 
C -3 0.795609 -2.683901 1.55874 -2.12132 2.12132 
C -1.55874 2.683901 -0.795609 3 0 3 
z
" id="mc4e35ad2f2" style="stroke:#808080;"/>
    </defs>
    <g clip-path="url(#p4df588254d)">
     <use style="fill-opacity:0;stroke:#808080;" x="70.467557" xlink:href="#mc4e35ad2f2" y="18.162972"/>
     <use style="fill-opacity:0;stroke:#808080;" x="83.149375" xlink:href="#mc4e35ad2f2" y="95.061998"/>
     <use style="fill-opacity:0;stroke:#808080;" x="95.831193" xlink:href="#mc4e35ad2f2" y="98.592501"/>
     <use style="fill-opacity:0;stroke:#808080;" x="108.513011" xlink:href="#mc4e35ad2f2" y="112.658355"/>
     <use style="fill-opacity:0;stroke:#808080;" x="121.19483" xlink:href="#mc4e35ad2f2" y="130.538485"/>
     <use style="fill-opacity:0;stroke:#808080;" x="133.876648" xlink:href="#mc4e35ad2f2" y="145.602202"/>
     <use style="fill-opacity:0;stroke:#808080;" x="146.558466" xlink:href="#mc4e35ad2f2" y="177.962285"/>
     <use style="fill-opacity:0;stroke:#808080;" x="159.240284" xlink:href="#mc4e35ad2f2" y="207.751416"/>
     <use style="fill-opacity:0;stroke:#808080;" x="171.922102" xlink:href="#mc4e35ad2f2" y="227.401094"/>
     <use style="fill-opacity:0;stroke:#808080;" x="184.60392" xlink:href="#mc4e35ad2f2" y="271.112259"/>
     <use style="fill-opacity:0;stroke:#808080;" x="187.982904" xlink:href="#mc4e35ad2f2" y="19250.77839"/>
    </g>
   </g>
   <g id="line2d_37">
    <path clip-path="url(#p4df588254d)" d="M 70.467557 17.97427 
L 83.149375 102.886409 
L 95.831193 107.120699 
L 108.513011 113.574083 
L 121.19483 122.974594 
L 133.876648 135.10424 
L 146.558466 157.534938 
L 159.240284 175.076377 
L 171.922102 184.857142 
L 184.60392 209.371745 
L 197.285739 229.803892 
L 209.967557 232.40835 
L 222.649375 262.862373 
L 235.331193 266.133739 
L 236.245861 268.358033 
" style="fill:none;stroke:#006400;stroke-dasharray:1.5,2.475;stroke-dashoffset:0;stroke-width:1.5;"/>
    <defs>
     <path d="M 0 -3 
L -3 3 
L 3 3 
z
" id="md4df6abcf4" style="stroke:#006400;stroke-linejoin:miter;"/>
    </defs>
    <g clip-path="url(#p4df588254d)">
     <use style="fill-opacity:0;stroke:#006400;stroke-linejoin:miter;" x="70.467557" xlink:href="#md4df6abcf4" y="17.97427"/>
     <use style="fill-opacity:0;stroke:#006400;stroke-linejoin:miter;" x="83.149375" xlink:href="#md4df6abcf4" y="102.886409"/>
     <use style="fill-opacity:0;stroke:#006400;stroke-linejoin:miter;" x="95.831193" xlink:href="#md4df6abcf4" y="107.120699"/>
     <use style="fill-opacity:0;stroke:#006400;stroke-linejoin:miter;" x="108.513011" xlink:href="#md4df6abcf4" y="113.574083"/>
     <use style="fill-opacity:0;stroke:#006400;stroke-linejoin:miter;" x="121.19483" xlink:href="#md4df6abcf4" y="122.974594"/>
     <use style="fill-opacity:0;stroke:#006400;stroke-linejoin:miter;" x="133.876648" xlink:href="#md4df6abcf4" y="135.10424"/>
     <use style="fill-opacity:0;stroke:#006400;stroke-linejoin:miter;" x="146.558466" xlink:href="#md4df6abcf4" y="157.534938"/>
     <use style="fill-opacity:0;stroke:#006400;stroke-linejoin:miter;" x="159.240284" xlink:href="#md4df6abcf4" y="175.076377"/>
     <use style="fill-opacity:0;stroke:#006400;stroke-linejoin:miter;" x="171.922102" xlink:href="#md4df6abcf4" y="184.857142"/>
     <use style="fill-opacity:0;stroke:#006400;stroke-linejoin:miter;" x="184.60392" xlink:href="#md4df6abcf4" y="209.371745"/>
     <use style="fill-opacity:0;stroke:#006400;stroke-linejoin:miter;" x="197.285739" xlink:href="#md4df6abcf4" y="229.803892"/>
     <use style="fill-opacity:0;stroke:#006400;stroke-linejoin:miter;" x="209.967557" xlink:href="#md4df6abcf4" y="232.40835"/>
     <use style="fill-opacity:0;stroke:#006400;stroke-linejoin:miter;" x="222.649375" xlink:href="#md4df6abcf4" y="262.862373"/>
     <use style="fill-opacity:0;stroke:#006400;stroke-linejoin:miter;" x="235.331193" xlink:href="#md4df6abcf4" y="266.133739"/>
     <use style="fill-opacity:0;stroke:#006400;stroke-linejoin:miter;" x="248.013011" xlink:href="#md4df6abcf4" y="296.973471"/>
     <use style="fill-opacity:0;stroke:#006400;stroke-linejoin:miter;" x="260.69483" xlink:href="#md4df6abcf4" y="288.827255"/>
     <use style="fill-opacity:0;stroke:#006400;stroke-linejoin:miter;" x="264.071499" xlink:href="#md4df6abcf4" y="19250.77839"/>
    </g>
   </g>
   <g id="line2d_38">
    <path clip-path="url(#p4df588254d)" d="M 70.467557 17.392432 
L 83.149375 97.799623 
L 95.831193 107.793673 
L 108.513011 116.264203 
L 121.19483 130.103817 
L 133.876648 146.516189 
L 146.558466 164.100025 
L 159.240284 201.140345 
L 171.922102 223.090325 
L 184.60392 224.562129 
L 197.285739 237.001161 
L 209.967557 258.97615 
L 209.969227 268.358033 
" style="fill:none;stroke:#006400;stroke-dasharray:1.5,2.475;stroke-dashoffset:0;stroke-width:1.5;"/>
    <defs>
     <path d="M 0 3 
C 0.795609 3 1.55874 2.683901 2.12132 2.12132 
C 2.683901 1.55874 3 0.795609 3 0 
C 3 -0.795609 2.683901 -1.55874 2.12132 -2.12132 
C 1.55874 -2.683901 0.795609 -3 0 -3 
C -0.795609 -3 -1.55874 -2.683901 -2.12132 -2.12132 
C -2.683901 -1.55874 -3 -0.795609 -3 0 
C -3 0.795609 -2.683901 1.55874 -2.12132 2.12132 
C -1.55874 2.683901 -0.795609 3 0 3 
z
" id="mda51ef2966" style="stroke:#006400;"/>
    </defs>
    <g clip-path="url(#p4df588254d)">
     <use style="fill-opacity:0;stroke:#006400;" x="70.467557" xlink:href="#mda51ef2966" y="17.392432"/>
     <use style="fill-opacity:0;stroke:#006400;" x="83.149375" xlink:href="#mda51ef2966" y="97.799623"/>
     <use style="fill-opacity:0;stroke:#006400;" x="95.831193" xlink:href="#mda51ef2966" y="107.793673"/>
     <use style="fill-opacity:0;stroke:#006400;" x="108.513011" xlink:href="#mda51ef2966" y="116.264203"/>
     <use style="fill-opacity:0;stroke:#006400;" x="121.19483" xlink:href="#mda51ef2966" y="130.103817"/>
     <use style="fill-opacity:0;stroke:#006400;" x="133.876648" xlink:href="#mda51ef2966" y="146.516189"/>
     <use style="fill-opacity:0;stroke:#006400;" x="146.558466" xlink:href="#mda51ef2966" y="164.100025"/>
     <use style="fill-opacity:0;stroke:#006400;" x="159.240284" xlink:href="#mda51ef2966" y="201.140345"/>
     <use style="fill-opacity:0;stroke:#006400;" x="171.922102" xlink:href="#mda51ef2966" y="223.090325"/>
     <use style="fill-opacity:0;stroke:#006400;" x="184.60392" xlink:href="#mda51ef2966" y="224.562129"/>
     <use style="fill-opacity:0;stroke:#006400;" x="197.285739" xlink:href="#mda51ef2966" y="237.001161"/>
     <use style="fill-opacity:0;stroke:#006400;" x="209.967557" xlink:href="#mda51ef2966" y="258.97615"/>
     <use style="fill-opacity:0;stroke:#006400;" x="213.348125" xlink:href="#mda51ef2966" y="19250.77839"/>
     <use style="fill-opacity:0;stroke:#006400;" x="244.634802" xlink:href="#mda51ef2966" y="19250.77839"/>
     <use style="fill-opacity:0;stroke:#006400;" x="248.013011" xlink:href="#mda51ef2966" y="277.044383"/>
     <use style="fill-opacity:0;stroke:#006400;" x="251.39122" xlink:href="#mda51ef2966" y="19250.77839"/>
    </g>
   </g>
   <g id="line2d_39">
    <path clip-path="url(#p4df588254d)" d="M 70.467557 21.694101 
L 83.149375 102.54792 
L 95.831193 104.371266 
L 108.513011 109.727268 
L 121.19483 116.865809 
L 133.876648 130.121245 
L 146.558466 135.743374 
L 159.240284 144.558355 
L 171.922102 149.338764 
L 184.60392 159.014589 
L 197.285739 171.454652 
L 209.967557 170.172407 
L 222.649375 181.086418 
L 235.331193 173.969575 
L 248.013011 185.770688 
L 260.69483 185.947381 
L 273.376648 201.946052 
L 286.058466 205.018512 
L 298.740284 211.87036 
L 311.422102 225.266705 
L 324.10392 213.100875 
L 336.785739 219.108006 
L 349.467557 212.471505 
L 362.149375 214.168587 
L 374.831193 221.748462 
" style="fill:none;stroke:#808080;stroke-dasharray:5.55,2.4;stroke-dashoffset:0;stroke-width:1.5;"/>
    <g clip-path="url(#p4df588254d)">
     <use style="fill-opacity:0;stroke:#808080;stroke-linejoin:miter;" x="70.467557" xlink:href="#m5aba879219" y="21.694101"/>
     <use style="fill-opacity:0;stroke:#808080;stroke-linejoin:miter;" x="83.149375" xlink:href="#m5aba879219" y="102.54792"/>
     <use style="fill-opacity:0;stroke:#808080;stroke-linejoin:miter;" x="95.831193" xlink:href="#m5aba879219" y="104.371266"/>
     <use style="fill-opacity:0;stroke:#808080;stroke-linejoin:miter;" x="108.513011" xlink:href="#m5aba879219" y="109.727268"/>
     <use style="fill-opacity:0;stroke:#808080;stroke-linejoin:miter;" x="121.19483" xlink:href="#m5aba879219" y="116.865809"/>
     <use style="fill-opacity:0;stroke:#808080;stroke-linejoin:miter;" x="133.876648" xlink:href="#m5aba879219" y="130.121245"/>
     <use style="fill-opacity:0;stroke:#808080;stroke-linejoin:miter;" x="146.558466" xlink:href="#m5aba879219" y="135.743374"/>
     <use style="fill-opacity:0;stroke:#808080;stroke-linejoin:miter;" x="159.240284" xlink:href="#m5aba879219" y="144.558355"/>
     <use style="fill-opacity:0;stroke:#808080;stroke-linejoin:miter;" x="171.922102" xlink:href="#m5aba879219" y="149.338764"/>
     <use style="fill-opacity:0;stroke:#808080;stroke-linejoin:miter;" x="184.60392" xlink:href="#m5aba879219" y="159.014589"/>
     <use style="fill-opacity:0;stroke:#808080;stroke-linejoin:miter;" x="197.285739" xlink:href="#m5aba879219" y="171.454652"/>
     <use style="fill-opacity:0;stroke:#808080;stroke-linejoin:miter;" x="209.967557" xlink:href="#m5aba879219" y="170.172407"/>
     <use style="fill-opacity:0;stroke:#808080;stroke-linejoin:miter;" x="222.649375" xlink:href="#m5aba879219" y="181.086418"/>
     <use style="fill-opacity:0;stroke:#808080;stroke-linejoin:miter;" x="235.331193" xlink:href="#m5aba879219" y="173.969575"/>
     <use style="fill-opacity:0;stroke:#808080;stroke-linejoin:miter;" x="248.013011" xlink:href="#m5aba879219" y="185.770688"/>
     <use style="fill-opacity:0;stroke:#808080;stroke-linejoin:miter;" x="260.69483" xlink:href="#m5aba879219" y="185.947381"/>
     <use style="fill-opacity:0;stroke:#808080;stroke-linejoin:miter;" x="273.376648" xlink:href="#m5aba879219" y="201.946052"/>
     <use style="fill-opacity:0;stroke:#808080;stroke-linejoin:miter;" x="286.058466" xlink:href="#m5aba879219" y="205.018512"/>
     <use style="fill-opacity:0;stroke:#808080;stroke-linejoin:miter;" x="298.740284" xlink:href="#m5aba879219" y="211.87036"/>
     <use style="fill-opacity:0;stroke:#808080;stroke-linejoin:miter;" x="311.422102" xlink:href="#m5aba879219" y="225.266705"/>
     <use style="fill-opacity:0;stroke:#808080;stroke-linejoin:miter;" x="324.10392" xlink:href="#m5aba879219" y="213.100875"/>
     <use style="fill-opacity:0;stroke:#808080;stroke-linejoin:miter;" x="336.785739" xlink:href="#m5aba879219" y="219.108006"/>
     <use style="fill-opacity:0;stroke:#808080;stroke-linejoin:miter;" x="349.467557" xlink:href="#m5aba879219" y="212.471505"/>
     <use style="fill-opacity:0;stroke:#808080;stroke-linejoin:miter;" x="362.149375" xlink:href="#m5aba879219" y="214.168587"/>
     <use style="fill-opacity:0;stroke:#808080;stroke-linejoin:miter;" x="374.831193" xlink:href="#m5aba879219" y="221.748462"/>
    </g>
   </g>
   <g id="line2d_40">
    <path clip-path="url(#p4df588254d)" d="M 70.467557 21.381392 
L 83.149375 97.381684 
L 95.831193 102.972499 
L 108.513011 108.729508 
L 121.19483 118.1501 
L 133.876648 128.597261 
L 146.558466 141.228088 
L 159.240284 150.022828 
L 171.922102 154.895511 
L 184.60392 158.810006 
L 197.285739 168.824742 
L 209.967557 171.164818 
L 222.649375 185.190647 
L 235.331193 185.530691 
L 248.013011 189.752449 
L 260.69483 201.135946 
L 273.376648 210.880816 
L 286.058466 227.067947 
L 298.740284 238.850618 
L 311.422102 238.85253 
L 311.427353 268.358033 
" style="fill:none;stroke:#808080;stroke-dasharray:5.55,2.4;stroke-dashoffset:0;stroke-width:1.5;"/>
    <g clip-path="url(#p4df588254d)">
     <use style="fill-opacity:0;stroke:#808080;" x="70.467557" xlink:href="#mc4e35ad2f2" y="21.381392"/>
     <use style="fill-opacity:0;stroke:#808080;" x="83.149375" xlink:href="#mc4e35ad2f2" y="97.381684"/>
     <use style="fill-opacity:0;stroke:#808080;" x="95.831193" xlink:href="#mc4e35ad2f2" y="102.972499"/>
     <use style="fill-opacity:0;stroke:#808080;" x="108.513011" xlink:href="#mc4e35ad2f2" y="108.729508"/>
     <use style="fill-opacity:0;stroke:#808080;" x="121.19483" xlink:href="#mc4e35ad2f2" y="118.1501"/>
     <use style="fill-opacity:0;stroke:#808080;" x="133.876648" xlink:href="#mc4e35ad2f2" y="128.597261"/>
     <use style="fill-opacity:0;stroke:#808080;" x="146.558466" xlink:href="#mc4e35ad2f2" y="141.228088"/>
     <use style="fill-opacity:0;stroke:#808080;" x="159.240284" xlink:href="#mc4e35ad2f2" y="150.022828"/>
     <use style="fill-opacity:0;stroke:#808080;" x="171.922102" xlink:href="#mc4e35ad2f2" y="154.895511"/>
     <use style="fill-opacity:0;stroke:#808080;" x="184.60392" xlink:href="#mc4e35ad2f2" y="158.810006"/>
     <use style="fill-opacity:0;stroke:#808080;" x="197.285739" xlink:href="#mc4e35ad2f2" y="168.824742"/>
     <use style="fill-opacity:0;stroke:#808080;" x="209.967557" xlink:href="#mc4e35ad2f2" y="171.164818"/>
     <use style="fill-opacity:0;stroke:#808080;" x="222.649375" xlink:href="#mc4e35ad2f2" y="185.190647"/>
     <use style="fill-opacity:0;stroke:#808080;" x="235.331193" xlink:href="#mc4e35ad2f2" y="185.530691"/>
     <use style="fill-opacity:0;stroke:#808080;" x="248.013011" xlink:href="#mc4e35ad2f2" y="189.752449"/>
     <use style="fill-opacity:0;stroke:#808080;" x="260.69483" xlink:href="#mc4e35ad2f2" y="201.135946"/>
     <use style="fill-opacity:0;stroke:#808080;" x="273.376648" xlink:href="#mc4e35ad2f2" y="210.880816"/>
     <use style="fill-opacity:0;stroke:#808080;" x="286.058466" xlink:href="#mc4e35ad2f2" y="227.067947"/>
     <use style="fill-opacity:0;stroke:#808080;" x="298.740284" xlink:href="#mc4e35ad2f2" y="238.850618"/>
     <use style="fill-opacity:0;stroke:#808080;" x="311.422102" xlink:href="#mc4e35ad2f2" y="238.85253"/>
     <use style="fill-opacity:0;stroke:#808080;" x="314.805297" xlink:href="#mc4e35ad2f2" y="19250.77839"/>
     <use style="fill-opacity:0;stroke:#808080;" x="346.090887" xlink:href="#mc4e35ad2f2" y="19250.77839"/>
     <use style="fill-opacity:0;stroke:#808080;" x="349.467557" xlink:href="#mc4e35ad2f2" y="288.827255"/>
     <use style="fill-opacity:0;stroke:#808080;" x="352.844227" xlink:href="#mc4e35ad2f2" y="19250.77839"/>
    </g>
   </g>
   <g id="line2d_41">
    <path clip-path="url(#p4df588254d)" d="M 70.467557 17.935036 
L 83.149375 102.952351 
L 95.831193 107.196286 
L 108.513011 113.221247 
L 121.19483 123.447054 
L 133.876648 135.89164 
L 146.558466 157.63954 
L 159.240284 177.429238 
L 171.922102 184.941173 
L 184.60392 210.500933 
L 197.285739 229.803892 
L 209.967557 229.803892 
L 222.649375 254.716157 
L 235.179376 268.358033 
" style="fill:none;stroke:#006400;stroke-dasharray:5.55,2.4;stroke-dashoffset:0;stroke-width:1.5;"/>
    <g clip-path="url(#p4df588254d)">
     <use style="fill-opacity:0;stroke:#006400;stroke-linejoin:miter;" x="70.467557" xlink:href="#md4df6abcf4" y="17.935036"/>
     <use style="fill-opacity:0;stroke:#006400;stroke-linejoin:miter;" x="83.149375" xlink:href="#md4df6abcf4" y="102.952351"/>
     <use style="fill-opacity:0;stroke:#006400;stroke-linejoin:miter;" x="95.831193" xlink:href="#md4df6abcf4" y="107.196286"/>
     <use style="fill-opacity:0;stroke:#006400;stroke-linejoin:miter;" x="108.513011" xlink:href="#md4df6abcf4" y="113.221247"/>
     <use style="fill-opacity:0;stroke:#006400;stroke-linejoin:miter;" x="121.19483" xlink:href="#md4df6abcf4" y="123.447054"/>
     <use style="fill-opacity:0;stroke:#006400;stroke-linejoin:miter;" x="133.876648" xlink:href="#md4df6abcf4" y="135.89164"/>
     <use style="fill-opacity:0;stroke:#006400;stroke-linejoin:miter;" x="146.558466" xlink:href="#md4df6abcf4" y="157.63954"/>
     <use style="fill-opacity:0;stroke:#006400;stroke-linejoin:miter;" x="159.240284" xlink:href="#md4df6abcf4" y="177.429238"/>
     <use style="fill-opacity:0;stroke:#006400;stroke-linejoin:miter;" x="171.922102" xlink:href="#md4df6abcf4" y="184.941173"/>
     <use style="fill-opacity:0;stroke:#006400;stroke-linejoin:miter;" x="184.60392" xlink:href="#md4df6abcf4" y="210.500933"/>
     <use style="fill-opacity:0;stroke:#006400;stroke-linejoin:miter;" x="197.285739" xlink:href="#md4df6abcf4" y="229.803892"/>
     <use style="fill-opacity:0;stroke:#006400;stroke-linejoin:miter;" x="209.967557" xlink:href="#md4df6abcf4" y="229.803892"/>
     <use style="fill-opacity:0;stroke:#006400;stroke-linejoin:miter;" x="222.649375" xlink:href="#md4df6abcf4" y="254.716157"/>
     <use style="fill-opacity:0;stroke:#006400;stroke-linejoin:miter;" x="235.331193" xlink:href="#md4df6abcf4" y="268.523322"/>
     <use style="fill-opacity:0;stroke:#006400;stroke-linejoin:miter;" x="248.013011" xlink:href="#md4df6abcf4" y="296.973471"/>
     <use style="fill-opacity:0;stroke:#006400;stroke-linejoin:miter;" x="260.69483" xlink:href="#md4df6abcf4" y="291.312522"/>
     <use style="fill-opacity:0;stroke:#006400;stroke-linejoin:miter;" x="264.071175" xlink:href="#md4df6abcf4" y="19250.77839"/>
    </g>
   </g>
   <g id="line2d_42">
    <path clip-path="url(#p4df588254d)" d="M 70.467557 17.450471 
L 83.149375 97.345457 
L 95.831193 106.94959 
L 108.513011 116.467563 
L 121.19483 130.56768 
L 133.876648 147.483071 
L 146.558466 165.149677 
L 159.240284 199.34987 
L 171.922102 217.573456 
L 184.60392 223.090325 
L 197.285739 234.412224 
L 209.967557 248.269108 
L 209.971132 268.358033 
" style="fill:none;stroke:#006400;stroke-dasharray:5.55,2.4;stroke-dashoffset:0;stroke-width:1.5;"/>
    <g clip-path="url(#p4df588254d)">
     <use style="fill-opacity:0;stroke:#006400;" x="70.467557" xlink:href="#mda51ef2966" y="17.450471"/>
     <use style="fill-opacity:0;stroke:#006400;" x="83.149375" xlink:href="#mda51ef2966" y="97.345457"/>
     <use style="fill-opacity:0;stroke:#006400;" x="95.831193" xlink:href="#mda51ef2966" y="106.94959"/>
     <use style="fill-opacity:0;stroke:#006400;" x="108.513011" xlink:href="#mda51ef2966" y="116.467563"/>
     <use style="fill-opacity:0;stroke:#006400;" x="121.19483" xlink:href="#mda51ef2966" y="130.56768"/>
     <use style="fill-opacity:0;stroke:#006400;" x="133.876648" xlink:href="#mda51ef2966" y="147.483071"/>
     <use style="fill-opacity:0;stroke:#006400;" x="146.558466" xlink:href="#mda51ef2966" y="165.149677"/>
     <use style="fill-opacity:0;stroke:#006400;" x="159.240284" xlink:href="#mda51ef2966" y="199.34987"/>
     <use style="fill-opacity:0;stroke:#006400;" x="171.922102" xlink:href="#mda51ef2966" y="217.573456"/>
     <use style="fill-opacity:0;stroke:#006400;" x="184.60392" xlink:href="#mda51ef2966" y="223.090325"/>
     <use style="fill-opacity:0;stroke:#006400;" x="197.285739" xlink:href="#mda51ef2966" y="234.412224"/>
     <use style="fill-opacity:0;stroke:#006400;" x="209.967557" xlink:href="#mda51ef2966" y="248.269108"/>
     <use style="fill-opacity:0;stroke:#006400;" x="213.349523" xlink:href="#mda51ef2966" y="19250.77839"/>
     <use style="fill-opacity:0;stroke:#006400;" x="244.635253" xlink:href="#mda51ef2966" y="19250.77839"/>
     <use style="fill-opacity:0;stroke:#006400;" x="248.013011" xlink:href="#mda51ef2966" y="280.497857"/>
     <use style="fill-opacity:0;stroke:#006400;" x="251.390769" xlink:href="#mda51ef2966" y="19250.77839"/>
    </g>
   </g>
   <g id="patch_3">
    <path d="M 55.249375 225.479908 
L 55.249375 8.039908 
" style="fill:none;stroke:#000000;stroke-linecap:square;stroke-linejoin:miter;stroke-width:0.8;"/>
   </g>
   <g id="patch_4">
    <path d="M 390.049375 225.479908 
L 390.049375 8.039908 
" style="fill:none;stroke:#000000;stroke-linecap:square;stroke-linejoin:miter;stroke-width:0.8;"/>
   </g>
   <g id="patch_5">
    <path d="M 55.249375 225.479908 
L 390.049375 225.479908 
" style="fill:none;stroke:#000000;stroke-linecap:square;stroke-linejoin:miter;stroke-width:0.8;"/>
   </g>
   <g id="patch_6">
    <path d="M 55.249375 8.039908 
L 390.049375 8.039908 
" style="fill:none;stroke:#000000;stroke-linecap:square;stroke-linejoin:miter;stroke-width:0.8;"/>
   </g>
   <g id="legend_1">
    <g id="patch_7">
     <path d="M 241.5625 123.322408 
L 381.649375 123.322408 
Q 384.049375 123.322408 384.049375 120.922408 
L 384.049375 16.439908 
Q 384.049375 14.039908 381.649375 14.039908 
L 241.5625 14.039908 
Q 239.1625 14.039908 239.1625 16.439908 
L 239.1625 120.922408 
Q 239.1625 123.322408 241.5625 123.322408 
z
" style="fill:#ffffff;opacity:0.8;stroke:#cccccc;stroke-linejoin:miter;"/>
    </g>
    <g id="line2d_43">
     <path d="M 243.9625 23.758033 
L 267.9625 23.758033 
" style="fill:none;stroke:#808080;stroke-linecap:square;stroke-width:1.5;"/>
    </g>
    <g id="line2d_44"/>
    <g id="text_13">
     <!-- Rigid -->
     <defs>
      <path d="M 44.390625 34.1875 
Q 47.5625 33.109375 50.5625 29.59375 
Q 53.5625 26.078125 56.59375 19.921875 
L 66.609375 0 
L 56 0 
L 46.6875 18.703125 
Q 43.0625 26.03125 39.671875 28.421875 
Q 36.28125 30.8125 30.421875 30.8125 
L 19.671875 30.8125 
L 19.671875 0 
L 9.8125 0 
L 9.8125 72.90625 
L 32.078125 72.90625 
Q 44.578125 72.90625 50.734375 67.671875 
Q 56.890625 62.453125 56.890625 51.90625 
Q 56.890625 45.015625 53.6875 40.46875 
Q 50.484375 35.9375 44.390625 34.1875 
z
M 19.671875 64.796875 
L 19.671875 38.921875 
L 32.078125 38.921875 
Q 39.203125 38.921875 42.84375 42.21875 
Q 46.484375 45.515625 46.484375 51.90625 
Q 46.484375 58.296875 42.84375 61.546875 
Q 39.203125 64.796875 32.078125 64.796875 
z
" id="DejaVuSans-82"/>
      <path d="M 45.40625 27.984375 
Q 45.40625 37.75 41.375 43.109375 
Q 37.359375 48.484375 30.078125 48.484375 
Q 22.859375 48.484375 18.828125 43.109375 
Q 14.796875 37.75 14.796875 27.984375 
Q 14.796875 18.265625 18.828125 12.890625 
Q 22.859375 7.515625 30.078125 7.515625 
Q 37.359375 7.515625 41.375 12.890625 
Q 45.40625 18.265625 45.40625 27.984375 
z
M 54.390625 6.78125 
Q 54.390625 -7.171875 48.1875 -13.984375 
Q 42 -20.796875 29.203125 -20.796875 
Q 24.46875 -20.796875 20.265625 -20.09375 
Q 16.0625 -19.390625 12.109375 -17.921875 
L 12.109375 -9.1875 
Q 16.0625 -11.328125 19.921875 -12.34375 
Q 23.78125 -13.375 27.78125 -13.375 
Q 36.625 -13.375 41.015625 -8.765625 
Q 45.40625 -4.15625 45.40625 5.171875 
L 45.40625 9.625 
Q 42.625 4.78125 38.28125 2.390625 
Q 33.9375 0 27.875 0 
Q 17.828125 0 11.671875 7.65625 
Q 5.515625 15.328125 5.515625 27.984375 
Q 5.515625 40.671875 11.671875 48.328125 
Q 17.828125 56 27.875 56 
Q 33.9375 56 38.28125 53.609375 
Q 42.625 51.21875 45.40625 46.390625 
L 45.40625 54.6875 
L 54.390625 54.6875 
z
" id="DejaVuSans-103"/>
      <path d="M 45.40625 46.390625 
L 45.40625 75.984375 
L 54.390625 75.984375 
L 54.390625 0 
L 45.40625 0 
L 45.40625 8.203125 
Q 42.578125 3.328125 38.25 0.953125 
Q 33.9375 -1.421875 27.875 -1.421875 
Q 17.96875 -1.421875 11.734375 6.484375 
Q 5.515625 14.40625 5.515625 27.296875 
Q 5.515625 40.1875 11.734375 48.09375 
Q 17.96875 56 27.875 56 
Q 33.9375 56 38.25 53.625 
Q 42.578125 51.265625 45.40625 46.390625 
z
M 14.796875 27.296875 
Q 14.796875 17.390625 18.875 11.75 
Q 22.953125 6.109375 30.078125 6.109375 
Q 37.203125 6.109375 41.296875 11.75 
Q 45.40625 17.390625 45.40625 27.296875 
Q 45.40625 37.203125 41.296875 42.84375 
Q 37.203125 48.484375 30.078125 48.484375 
Q 22.953125 48.484375 18.875 42.84375 
Q 14.796875 37.203125 14.796875 27.296875 
z
" id="DejaVuSans-100"/>
     </defs>
     <g transform="translate(277.5625 27.958033)scale(0.12 -0.12)">
      <use xlink:href="#DejaVuSans-82"/>
      <use x="69.482422" xlink:href="#DejaVuSans-105"/>
      <use x="97.265625" xlink:href="#DejaVuSans-103"/>
      <use x="160.742188" xlink:href="#DejaVuSans-105"/>
      <use x="188.525391" xlink:href="#DejaVuSans-100"/>
     </g>
    </g>
    <g id="line2d_45">
     <path d="M 243.9625 41.371783 
L 267.9625 41.371783 
" style="fill:none;stroke:#006400;stroke-linecap:square;stroke-width:1.5;"/>
    </g>
    <g id="line2d_46"/>
    <g id="text_14">
     <!-- Lipid -->
     <defs>
      <path d="M 9.8125 72.90625 
L 19.671875 72.90625 
L 19.671875 8.296875 
L 55.171875 8.296875 
L 55.171875 0 
L 9.8125 0 
z
" id="DejaVuSans-76"/>
     </defs>
     <g transform="translate(277.5625 45.571783)scale(0.12 -0.12)">
      <use xlink:href="#DejaVuSans-76"/>
      <use x="55.712891" xlink:href="#DejaVuSans-105"/>
      <use x="83.496094" xlink:href="#DejaVuSans-112"/>
      <use x="146.972656" xlink:href="#DejaVuSans-105"/>
      <use x="174.755859" xlink:href="#DejaVuSans-100"/>
     </g>
    </g>
    <g id="line2d_47">
     <path d="M 243.9625 58.985533 
L 267.9625 58.985533 
" style="fill:none;stroke:#000000;stroke-dasharray:5.55,2.4;stroke-dashoffset:0;stroke-width:1.5;"/>
    </g>
    <g id="line2d_48"/>
    <g id="text_15">
     <!-- n = 3 -->
     <defs>
      <path d="M 54.890625 33.015625 
L 54.890625 0 
L 45.90625 0 
L 45.90625 32.71875 
Q 45.90625 40.484375 42.875 44.328125 
Q 39.84375 48.1875 33.796875 48.1875 
Q 26.515625 48.1875 22.3125 43.546875 
Q 18.109375 38.921875 18.109375 30.90625 
L 18.109375 0 
L 9.078125 0 
L 9.078125 54.6875 
L 18.109375 54.6875 
L 18.109375 46.1875 
Q 21.34375 51.125 25.703125 53.5625 
Q 30.078125 56 35.796875 56 
Q 45.21875 56 50.046875 50.171875 
Q 54.890625 44.34375 54.890625 33.015625 
z
" id="DejaVuSans-110"/>
      <path d="M 10.59375 45.40625 
L 73.1875 45.40625 
L 73.1875 37.203125 
L 10.59375 37.203125 
z
M 10.59375 25.484375 
L 73.1875 25.484375 
L 73.1875 17.1875 
L 10.59375 17.1875 
z
" id="DejaVuSans-61"/>
     </defs>
     <g transform="translate(277.5625 63.185533)scale(0.12 -0.12)">
      <use xlink:href="#DejaVuSans-110"/>
      <use x="63.378906" xlink:href="#DejaVuSans-32"/>
      <use x="95.166016" xlink:href="#DejaVuSans-61"/>
      <use x="178.955078" xlink:href="#DejaVuSans-32"/>
      <use x="210.742188" xlink:href="#DejaVuSans-51"/>
     </g>
    </g>
    <g id="line2d_49">
     <path d="M 243.9625 76.599283 
L 267.9625 76.599283 
" style="fill:none;stroke:#000000;stroke-dasharray:1.5,2.475;stroke-dashoffset:0;stroke-width:1.5;"/>
    </g>
    <g id="line2d_50"/>
    <g id="text_16">
     <!-- n = 1 -->
     <g transform="translate(277.5625 80.799283)scale(0.12 -0.12)">
      <use xlink:href="#DejaVuSans-110"/>
      <use x="63.378906" xlink:href="#DejaVuSans-32"/>
      <use x="95.166016" xlink:href="#DejaVuSans-61"/>
      <use x="178.955078" xlink:href="#DejaVuSans-32"/>
      <use x="210.742188" xlink:href="#DejaVuSans-49"/>
     </g>
    </g>
    <g id="line2d_51"/>
    <g id="line2d_52">
     <defs>
      <path d="M 0 -4.5 
L -4.5 4.5 
L 4.5 4.5 
z
" id="ma1624d5483" style="stroke:#000000;stroke-linejoin:miter;"/>
     </defs>
     <g>
      <use style="fill-opacity:0;stroke:#000000;stroke-linejoin:miter;" x="255.9625" xlink:href="#ma1624d5483" y="94.213033"/>
     </g>
    </g>
    <g id="text_17">
     <!-- With Rotation -->
     <defs>
      <path d="M 3.328125 72.90625 
L 13.28125 72.90625 
L 28.609375 11.28125 
L 43.890625 72.90625 
L 54.984375 72.90625 
L 70.3125 11.28125 
L 85.59375 72.90625 
L 95.609375 72.90625 
L 77.296875 0 
L 64.890625 0 
L 49.515625 63.28125 
L 33.984375 0 
L 21.578125 0 
z
" id="DejaVuSans-87"/>
      <path d="M 54.890625 33.015625 
L 54.890625 0 
L 45.90625 0 
L 45.90625 32.71875 
Q 45.90625 40.484375 42.875 44.328125 
Q 39.84375 48.1875 33.796875 48.1875 
Q 26.515625 48.1875 22.3125 43.546875 
Q 18.109375 38.921875 18.109375 30.90625 
L 18.109375 0 
L 9.078125 0 
L 9.078125 75.984375 
L 18.109375 75.984375 
L 18.109375 46.1875 
Q 21.34375 51.125 25.703125 53.5625 
Q 30.078125 56 35.796875 56 
Q 45.21875 56 50.046875 50.171875 
Q 54.890625 44.34375 54.890625 33.015625 
z
" id="DejaVuSans-104"/>
     </defs>
     <g transform="translate(277.5625 98.413033)scale(0.12 -0.12)">
      <use xlink:href="#DejaVuSans-87"/>
      <use x="98.845703" xlink:href="#DejaVuSans-105"/>
      <use x="126.628906" xlink:href="#DejaVuSans-116"/>
      <use x="165.837891" xlink:href="#DejaVuSans-104"/>
      <use x="229.216797" xlink:href="#DejaVuSans-32"/>
      <use x="261.003906" xlink:href="#DejaVuSans-82"/>
      <use x="330.423828" xlink:href="#DejaVuSans-111"/>
      <use x="391.605469" xlink:href="#DejaVuSans-116"/>
      <use x="430.814453" xlink:href="#DejaVuSans-97"/>
      <use x="492.09375" xlink:href="#DejaVuSans-116"/>
      <use x="531.302734" xlink:href="#DejaVuSans-105"/>
      <use x="559.085938" xlink:href="#DejaVuSans-111"/>
      <use x="620.267578" xlink:href="#DejaVuSans-110"/>
     </g>
    </g>
    <g id="line2d_53"/>
    <g id="line2d_54">
     <defs>
      <path d="M 0 4.5 
C 1.193414 4.5 2.338109 4.025852 3.181981 3.181981 
C 4.025852 2.338109 4.5 1.193414 4.5 0 
C 4.5 -1.193414 4.025852 -2.338109 3.181981 -3.181981 
C 2.338109 -4.025852 1.193414 -4.5 0 -4.5 
C -1.193414 -4.5 -2.338109 -4.025852 -3.181981 -3.181981 
C -4.025852 -2.338109 -4.5 -1.193414 -4.5 0 
C -4.5 1.193414 -4.025852 2.338109 -3.181981 3.181981 
C -2.338109 4.025852 -1.193414 4.5 0 4.5 
z
" id="mc13522ad65" style="stroke:#000000;"/>
     </defs>
     <g>
      <use style="fill-opacity:0;stroke:#000000;" x="255.9625" xlink:href="#mc13522ad65" y="111.826783"/>
     </g>
    </g>
    <g id="text_18">
     <!-- Without Rotation -->
     <defs>
      <path d="M 8.5 21.578125 
L 8.5 54.6875 
L 17.484375 54.6875 
L 17.484375 21.921875 
Q 17.484375 14.15625 20.5 10.265625 
Q 23.53125 6.390625 29.59375 6.390625 
Q 36.859375 6.390625 41.078125 11.03125 
Q 45.3125 15.671875 45.3125 23.6875 
L 45.3125 54.6875 
L 54.296875 54.6875 
L 54.296875 0 
L 45.3125 0 
L 45.3125 8.40625 
Q 42.046875 3.421875 37.71875 1 
Q 33.40625 -1.421875 27.6875 -1.421875 
Q 18.265625 -1.421875 13.375 4.4375 
Q 8.5 10.296875 8.5 21.578125 
z
M 31.109375 56 
z
" id="DejaVuSans-117"/>
     </defs>
     <g transform="translate(277.5625 116.026783)scale(0.12 -0.12)">
      <use xlink:href="#DejaVuSans-87"/>
      <use x="98.845703" xlink:href="#DejaVuSans-105"/>
      <use x="126.628906" xlink:href="#DejaVuSans-116"/>
      <use x="165.837891" xlink:href="#DejaVuSans-104"/>
      <use x="229.216797" xlink:href="#DejaVuSans-111"/>
      <use x="290.398438" xlink:href="#DejaVuSans-117"/>
      <use x="353.777344" xlink:href="#DejaVuSans-116"/>
      <use x="392.986328" xlink:href="#DejaVuSans-32"/>
      <use x="424.773438" xlink:href="#DejaVuSans-82"/>
      <use x="494.193359" xlink:href="#DejaVuSans-111"/>
      <use x="555.375" xlink:href="#DejaVuSans-116"/>
      <use x="594.583984" xlink:href="#DejaVuSans-97"/>
      <use x="655.863281" xlink:href="#DejaVuSans-116"/>
      <use x="695.072266" xlink:href="#DejaVuSans-105"/>
      <use x="722.855469" xlink:href="#DejaVuSans-111"/>
      <use x="784.037109" xlink:href="#DejaVuSans-110"/>
     </g>
    </g>
   </g>
  </g>
 </g>
 <defs>
  <clipPath id="p4df588254d">
   <rect height="217.44" width="334.8" x="55.249375" y="8.039908"/>
  </clipPath>
 </defs>
</svg>
