<?xml version="1.0" encoding="utf-8" standalone="no"?>
<!DOCTYPE svg PUBLIC "-//W3C//DTD SVG 1.1//EN"
  "http://www.w3.org/Graphics/SVG/1.1/DTD/svg11.dtd">
<!-- Created with matplotlib (https://matplotlib.org/) -->
<svg height="281.673281pt" version="1.1" viewBox="0 0 255.090916 281.673281" width="255.090916pt" xmlns="http://www.w3.org/2000/svg" xmlns:xlink="http://www.w3.org/1999/xlink">
 <defs>
  <style type="text/css">
*{stroke-linecap:butt;stroke-linejoin:round;}
  </style>
 </defs>
 <g id="figure_1">
  <g id="patch_1">
   <path d="M 0 281.673281 
L 255.090916 281.673281 
L 255.090916 0 
L 0 0 
z
" style="fill:#ffffff;"/>
  </g>
  <g id="axes_1">
   <g id="patch_2">
    <path d="M 70.495938 230.743906 
L 198.485894 230.743906 
L 198.485894 12.518906 
L 70.495938 12.518906 
z
" style="fill:#ffffff;"/>
   </g>
   <g id="matplotlib.axis_1">
    <g id="xtick_1">
     <g id="line2d_1">
      <defs>
       <path d="M 0 0 
L 0 7 
" id="m6d47bed8af" style="stroke:#000000;"/>
      </defs>
      <g>
       <use style="stroke:#000000;" x="94.073035" xlink:href="#m6d47bed8af" y="230.743906"/>
      </g>
     </g>
     <g id="text_1">
      <!-- 0 -->
      <defs>
       <path d="M 31.78125 66.40625 
Q 24.171875 66.40625 20.328125 58.90625 
Q 16.5 51.421875 16.5 36.375 
Q 16.5 21.390625 20.328125 13.890625 
Q 24.171875 6.390625 31.78125 6.390625 
Q 39.453125 6.390625 43.28125 13.890625 
Q 47.125 21.390625 47.125 36.375 
Q 47.125 51.421875 43.28125 58.90625 
Q 39.453125 66.40625 31.78125 66.40625 
z
M 31.78125 74.21875 
Q 44.046875 74.21875 50.515625 64.515625 
Q 56.984375 54.828125 56.984375 36.375 
Q 56.984375 17.96875 50.515625 8.265625 
Q 44.046875 -1.421875 31.78125 -1.421875 
Q 19.53125 -1.421875 13.0625 8.265625 
Q 6.59375 17.96875 6.59375 36.375 
Q 6.59375 54.828125 13.0625 64.515625 
Q 19.53125 74.21875 31.78125 74.21875 
z
" id="DejaVuSans-48"/>
      </defs>
      <g transform="translate(89.619285 251.881719)scale(0.14 -0.14)">
       <use xlink:href="#DejaVuSans-48"/>
      </g>
     </g>
    </g>
    <g id="xtick_2">
     <g id="line2d_2">
      <g>
       <use style="stroke:#000000;" x="174.908797" xlink:href="#m6d47bed8af" y="230.743906"/>
      </g>
     </g>
     <g id="text_2">
      <!-- 1 -->
      <defs>
       <path d="M 12.40625 8.296875 
L 28.515625 8.296875 
L 28.515625 63.921875 
L 10.984375 60.40625 
L 10.984375 69.390625 
L 28.421875 72.90625 
L 38.28125 72.90625 
L 38.28125 8.296875 
L 54.390625 8.296875 
L 54.390625 0 
L 12.40625 0 
z
" id="DejaVuSans-49"/>
      </defs>
      <g transform="translate(170.455047 251.881719)scale(0.14 -0.14)">
       <use xlink:href="#DejaVuSans-49"/>
      </g>
     </g>
    </g>
    <g id="text_3">
     <!-- Diffusion constant, D ( $\mu m^2 s^{-1}$ ) -->
     <defs>
      <path d="M 24.703125 5.171875 
L 33.796875 5.171875 
Q 48 5.171875 55.59375 13.28125 
Q 63.1875 21.390625 63.1875 36.53125 
Q 63.1875 51.65625 55.609375 59.65625 
Q 48.046875 67.671875 33.796875 67.671875 
L 24.703125 67.671875 
z
M 5.515625 0 
L 5.515625 5.171875 
L 14.796875 5.171875 
L 14.796875 67.671875 
L 5.515625 67.671875 
L 5.515625 72.90625 
L 34.515625 72.90625 
Q 53.375 72.90625 63.890625 63.28125 
Q 74.421875 53.65625 74.421875 36.53125 
Q 74.421875 19.34375 63.875 9.671875 
Q 53.328125 0 34.515625 0 
z
" id="DejaVuSerif-68"/>
      <path d="M 9.71875 68.015625 
Q 9.71875 70.265625 11.34375 71.921875 
Q 12.984375 73.578125 15.28125 73.578125 
Q 17.53125 73.578125 19.15625 71.921875 
Q 20.796875 70.265625 20.796875 68.015625 
Q 20.796875 65.71875 19.1875 64.109375 
Q 17.578125 62.5 15.28125 62.5 
Q 12.984375 62.5 11.34375 64.109375 
Q 9.71875 65.71875 9.71875 68.015625 
z
M 21.1875 5.171875 
L 29.6875 5.171875 
L 29.6875 0 
L 3.609375 0 
L 3.609375 5.171875 
L 12.203125 5.171875 
L 12.203125 46.6875 
L 3.609375 46.6875 
L 3.609375 51.90625 
L 21.1875 51.90625 
z
" id="DejaVuSerif-105"/>
      <path d="M 43.015625 63.71875 
L 38.28125 63.71875 
Q 38.234375 67.390625 36.203125 69.28125 
Q 34.1875 71.1875 30.328125 71.1875 
Q 25.296875 71.1875 23.234375 68.421875 
Q 21.1875 65.671875 21.1875 58.59375 
L 21.1875 51.90625 
L 35.6875 51.90625 
L 35.6875 46.6875 
L 21.1875 46.6875 
L 21.1875 5.171875 
L 32.71875 5.171875 
L 32.71875 0 
L 3.609375 0 
L 3.609375 5.171875 
L 12.203125 5.171875 
L 12.203125 46.6875 
L 3.609375 46.6875 
L 3.609375 51.90625 
L 12.203125 51.90625 
L 12.203125 58.40625 
Q 12.203125 67.09375 16.71875 71.53125 
Q 21.234375 75.984375 29.984375 75.984375 
Q 33.25 75.984375 36.515625 75.390625 
Q 39.796875 74.8125 43.015625 73.578125 
z
" id="DejaVuSerif-102"/>
      <path d="M 35.40625 51.90625 
L 52.203125 51.90625 
L 52.203125 5.171875 
L 60.6875 5.171875 
L 60.6875 0 
L 43.21875 0 
L 43.21875 9.1875 
Q 40.71875 4 36.765625 1.28125 
Q 32.8125 -1.421875 27.59375 -1.421875 
Q 18.953125 -1.421875 14.875 3.484375 
Q 10.796875 8.40625 10.796875 18.890625 
L 10.796875 46.6875 
L 2.6875 46.6875 
L 2.6875 51.90625 
L 19.828125 51.90625 
L 19.828125 21.6875 
Q 19.828125 12.203125 22.140625 8.6875 
Q 24.46875 5.171875 30.421875 5.171875 
Q 36.671875 5.171875 39.9375 9.765625 
Q 43.21875 14.359375 43.21875 23.09375 
L 43.21875 46.6875 
L 35.40625 46.6875 
z
" id="DejaVuSerif-117"/>
      <path d="M 5.609375 2.875 
L 5.609375 14.984375 
L 10.796875 14.984375 
Q 10.984375 9.1875 14.421875 6.296875 
Q 17.875 3.421875 24.609375 3.421875 
Q 30.671875 3.421875 33.84375 5.6875 
Q 37.015625 7.953125 37.015625 12.3125 
Q 37.015625 15.71875 34.6875 17.8125 
Q 32.375 19.921875 24.90625 22.3125 
L 18.40625 24.515625 
Q 11.71875 26.65625 8.71875 29.875 
Q 5.71875 33.109375 5.71875 38.09375 
Q 5.71875 45.21875 10.9375 49.265625 
Q 16.15625 53.328125 25.390625 53.328125 
Q 29.5 53.328125 34.03125 52.25 
Q 38.578125 51.171875 43.40625 49.125 
L 43.40625 37.796875 
L 38.234375 37.796875 
Q 38.03125 42.828125 34.703125 45.65625 
Q 31.390625 48.484375 25.6875 48.484375 
Q 20.015625 48.484375 17.109375 46.484375 
Q 14.203125 44.484375 14.203125 40.484375 
Q 14.203125 37.203125 16.40625 35.21875 
Q 18.609375 33.25 25.203125 31.203125 
L 32.328125 29 
Q 39.703125 26.703125 42.9375 23.265625 
Q 46.1875 19.828125 46.1875 14.40625 
Q 46.1875 7.03125 40.546875 2.796875 
Q 34.90625 -1.421875 25 -1.421875 
Q 19.96875 -1.421875 15.1875 -0.34375 
Q 10.40625 0.734375 5.609375 2.875 
z
" id="DejaVuSerif-115"/>
      <path d="M 30.078125 3.421875 
Q 37.3125 3.421875 40.984375 9.125 
Q 44.671875 14.84375 44.671875 25.984375 
Q 44.671875 37.109375 40.984375 42.796875 
Q 37.3125 48.484375 30.078125 48.484375 
Q 22.859375 48.484375 19.171875 42.796875 
Q 15.484375 37.109375 15.484375 25.984375 
Q 15.484375 14.84375 19.1875 9.125 
Q 22.90625 3.421875 30.078125 3.421875 
z
M 30.078125 -1.421875 
Q 18.75 -1.421875 11.859375 6.078125 
Q 4.984375 13.578125 4.984375 25.984375 
Q 4.984375 38.375 11.84375 45.84375 
Q 18.703125 53.328125 30.078125 53.328125 
Q 41.453125 53.328125 48.3125 45.84375 
Q 55.171875 38.375 55.171875 25.984375 
Q 55.171875 13.578125 48.3125 6.078125 
Q 41.453125 -1.421875 30.078125 -1.421875 
z
" id="DejaVuSerif-111"/>
      <path d="M 4.109375 0 
L 4.109375 5.171875 
L 12.203125 5.171875 
L 12.203125 46.6875 
L 3.609375 46.6875 
L 3.609375 51.90625 
L 21.1875 51.90625 
L 21.1875 42.671875 
Q 23.6875 47.953125 27.65625 50.640625 
Q 31.640625 53.328125 36.921875 53.328125 
Q 45.515625 53.328125 49.5625 48.390625 
Q 53.609375 43.453125 53.609375 33.015625 
L 53.609375 5.171875 
L 61.625 5.171875 
L 61.625 0 
L 36.8125 0 
L 36.8125 5.171875 
L 44.578125 5.171875 
L 44.578125 30.171875 
Q 44.578125 39.703125 42.234375 43.234375 
Q 39.890625 46.78125 33.984375 46.78125 
Q 27.734375 46.78125 24.453125 42.203125 
Q 21.1875 37.640625 21.1875 28.90625 
L 21.1875 5.171875 
L 29 5.171875 
L 29 0 
z
" id="DejaVuSerif-110"/>
      <path id="DejaVuSerif-32"/>
      <path d="M 51.421875 15.578125 
Q 49.515625 7.28125 44.09375 2.921875 
Q 38.671875 -1.421875 30.078125 -1.421875 
Q 18.75 -1.421875 11.859375 6.078125 
Q 4.984375 13.578125 4.984375 25.984375 
Q 4.984375 38.421875 11.859375 45.875 
Q 18.75 53.328125 30.078125 53.328125 
Q 35.015625 53.328125 39.890625 52.171875 
Q 44.78125 51.03125 49.703125 48.6875 
L 49.703125 35.40625 
L 44.484375 35.40625 
Q 43.453125 42.234375 40.015625 45.359375 
Q 36.578125 48.484375 30.171875 48.484375 
Q 22.90625 48.484375 19.1875 42.84375 
Q 15.484375 37.203125 15.484375 25.984375 
Q 15.484375 14.75 19.171875 9.078125 
Q 22.859375 3.421875 30.171875 3.421875 
Q 35.984375 3.421875 39.453125 6.4375 
Q 42.921875 9.46875 44.1875 15.578125 
z
" id="DejaVuSerif-99"/>
      <path d="M 10.796875 46.6875 
L 2.875 46.6875 
L 2.875 51.90625 
L 10.796875 51.90625 
L 10.796875 68.015625 
L 19.828125 68.015625 
L 19.828125 51.90625 
L 36.71875 51.90625 
L 36.71875 46.6875 
L 19.828125 46.6875 
L 19.828125 13.71875 
Q 19.828125 7.125 21.09375 5.265625 
Q 22.359375 3.421875 25.78125 3.421875 
Q 29.296875 3.421875 30.90625 5.484375 
Q 32.515625 7.5625 32.625 12.203125 
L 39.40625 12.203125 
Q 39.015625 5.125 35.546875 1.84375 
Q 32.078125 -1.421875 25 -1.421875 
Q 17.234375 -1.421875 14.015625 2.015625 
Q 10.796875 5.46875 10.796875 13.71875 
z
" id="DejaVuSerif-116"/>
      <path d="M 39.796875 16.3125 
L 39.796875 27.296875 
L 28.21875 27.296875 
Q 21.53125 27.296875 18.25 24.40625 
Q 14.984375 21.53125 14.984375 15.578125 
Q 14.984375 10.15625 18.296875 6.984375 
Q 21.625 3.8125 27.296875 3.8125 
Q 32.90625 3.8125 36.34375 7.28125 
Q 39.796875 10.75 39.796875 16.3125 
z
M 48.78125 32.421875 
L 48.78125 5.171875 
L 56.78125 5.171875 
L 56.78125 0 
L 39.796875 0 
L 39.796875 5.609375 
Q 36.8125 2 32.90625 0.28125 
Q 29 -1.421875 23.78125 -1.421875 
Q 15.140625 -1.421875 10.0625 3.171875 
Q 4.984375 7.765625 4.984375 15.578125 
Q 4.984375 23.640625 10.796875 28.078125 
Q 16.609375 32.515625 27.203125 32.515625 
L 39.796875 32.515625 
L 39.796875 36.078125 
Q 39.796875 42 36.203125 45.234375 
Q 32.625 48.484375 26.125 48.484375 
Q 20.75 48.484375 17.578125 46.046875 
Q 14.40625 43.609375 13.625 38.8125 
L 8.984375 38.8125 
L 8.984375 49.3125 
Q 13.671875 51.3125 18.09375 52.3125 
Q 22.515625 53.328125 26.703125 53.328125 
Q 37.5 53.328125 43.140625 47.96875 
Q 48.78125 42.625 48.78125 32.421875 
z
" id="DejaVuSerif-97"/>
      <path d="M 3.609375 -9.71875 
Q 8.203125 -6.34375 10.34375 -1.78125 
Q 12.5 2.78125 12.5 9.28125 
L 12.5 11.078125 
L 22.125 11.078125 
Q 21.734375 2.734375 18.1875 -3.25 
Q 14.65625 -9.234375 7.515625 -13.625 
z
" id="DejaVuSerif-44"/>
      <path d="M 31.890625 -15.578125 
Q 20.015625 -10.25 13.953125 1.296875 
Q 7.90625 12.84375 7.90625 30.171875 
Q 7.90625 47.5625 13.953125 59.109375 
Q 20.015625 70.65625 31.890625 75.984375 
L 31.890625 71.1875 
Q 24.359375 66.015625 21.09375 56.609375 
Q 17.828125 47.21875 17.828125 30.171875 
Q 17.828125 13.1875 21.09375 3.78125 
Q 24.359375 -5.609375 31.890625 -10.796875 
z
" id="DejaVuSerif-40"/>
      <path d="M -1.3125 -20.796875 
L 13.375 54.6875 
L 22.40625 54.6875 
L 15.765625 20.65625 
Q 15.578125 19.625 15.421875 18.359375 
Q 15.28125 17.09375 15.28125 15.828125 
Q 15.28125 11.28125 18.140625 8.828125 
Q 21 6.390625 26.3125 6.390625 
Q 33.546875 6.390625 37.984375 10.484375 
Q 42.4375 14.59375 44 22.796875 
L 50.203125 54.6875 
L 59.1875 54.6875 
L 51.03125 12.640625 
Q 50.828125 11.71875 50.75 11.03125 
Q 50.6875 10.359375 50.6875 9.8125 
Q 50.6875 8.296875 51.296875 7.59375 
Q 51.90625 6.890625 53.21875 6.890625 
Q 53.71875 6.890625 54.5625 7.125 
Q 55.421875 7.375 56.984375 8.015625 
L 55.609375 0.78125 
Q 53.46875 -0.296875 51.515625 -0.859375 
Q 49.5625 -1.421875 47.703125 -1.421875 
Q 44.484375 -1.421875 42.65625 0.625 
Q 40.828125 2.6875 40.828125 6.296875 
Q 38.09375 2.390625 34.296875 0.484375 
Q 30.515625 -1.421875 25.390625 -1.421875 
Q 20.84375 -1.421875 17.453125 0.671875 
Q 14.0625 2.78125 12.984375 6.203125 
L 7.71875 -20.796875 
z
" id="DejaVuSans-Oblique-956"/>
      <path d="M 89.796875 33.015625 
L 83.40625 0 
L 74.421875 0 
L 80.71875 32.71875 
Q 81.109375 34.8125 81.296875 36.328125 
Q 81.5 37.84375 81.5 38.921875 
Q 81.5 43.3125 79.046875 45.75 
Q 76.609375 48.1875 72.21875 48.1875 
Q 65.671875 48.1875 60.546875 43.28125 
Q 55.421875 38.375 53.90625 30.515625 
L 47.90625 0 
L 38.921875 0 
L 45.3125 32.71875 
Q 45.703125 34.515625 45.890625 36.046875 
Q 46.09375 37.59375 46.09375 38.8125 
Q 46.09375 43.265625 43.65625 45.71875 
Q 41.21875 48.1875 36.921875 48.1875 
Q 30.28125 48.1875 25.140625 43.28125 
Q 20.015625 38.375 18.5 30.515625 
L 12.5 0 
L 3.515625 0 
L 14.203125 54.6875 
L 23.1875 54.6875 
L 21.484375 46.1875 
Q 25.140625 50.984375 30.046875 53.484375 
Q 34.96875 56 40.578125 56 
Q 46.53125 56 50.359375 52.875 
Q 54.203125 49.75 54.984375 44.1875 
Q 59.078125 49.953125 64.46875 52.96875 
Q 69.875 56 75.875 56 
Q 82.90625 56 86.734375 51.953125 
Q 90.578125 47.90625 90.578125 40.484375 
Q 90.578125 38.875 90.375 36.9375 
Q 90.1875 35.015625 89.796875 33.015625 
z
" id="DejaVuSans-Oblique-109"/>
      <path d="M 19.1875 8.296875 
L 53.609375 8.296875 
L 53.609375 0 
L 7.328125 0 
L 7.328125 8.296875 
Q 12.9375 14.109375 22.625 23.890625 
Q 32.328125 33.6875 34.8125 36.53125 
Q 39.546875 41.84375 41.421875 45.53125 
Q 43.3125 49.21875 43.3125 52.78125 
Q 43.3125 58.59375 39.234375 62.25 
Q 35.15625 65.921875 28.609375 65.921875 
Q 23.96875 65.921875 18.8125 64.3125 
Q 13.671875 62.703125 7.8125 59.421875 
L 7.8125 69.390625 
Q 13.765625 71.78125 18.9375 73 
Q 24.125 74.21875 28.421875 74.21875 
Q 39.75 74.21875 46.484375 68.546875 
Q 53.21875 62.890625 53.21875 53.421875 
Q 53.21875 48.921875 51.53125 44.890625 
Q 49.859375 40.875 45.40625 35.40625 
Q 44.1875 33.984375 37.640625 27.21875 
Q 31.109375 20.453125 19.1875 8.296875 
z
" id="DejaVuSans-50"/>
      <path d="M 50 53.078125 
L 48.296875 44.578125 
Q 44.734375 46.53125 40.765625 47.5 
Q 36.8125 48.484375 32.625 48.484375 
Q 25.53125 48.484375 21.453125 46.0625 
Q 17.390625 43.65625 17.390625 39.5 
Q 17.390625 34.671875 26.859375 32.078125 
Q 27.59375 31.890625 27.9375 31.78125 
L 30.8125 30.90625 
Q 39.796875 28.421875 42.796875 25.6875 
Q 45.796875 22.953125 45.796875 18.21875 
Q 45.796875 9.515625 38.890625 4.046875 
Q 31.984375 -1.421875 20.796875 -1.421875 
Q 16.453125 -1.421875 11.671875 -0.578125 
Q 6.890625 0.25 1.125 2 
L 2.875 11.28125 
Q 7.8125 8.734375 12.59375 7.421875 
Q 17.390625 6.109375 21.78125 6.109375 
Q 28.375 6.109375 32.5 8.9375 
Q 36.625 11.765625 36.625 16.109375 
Q 36.625 20.796875 25.78125 23.6875 
L 24.859375 23.921875 
L 21.78125 24.703125 
Q 14.9375 26.515625 11.765625 29.46875 
Q 8.59375 32.421875 8.59375 37.015625 
Q 8.59375 45.75 15.15625 50.875 
Q 21.734375 56 33.015625 56 
Q 37.453125 56 41.671875 55.265625 
Q 45.90625 54.546875 50 53.078125 
z
" id="DejaVuSans-Oblique-115"/>
      <path d="M 10.59375 35.5 
L 73.1875 35.5 
L 73.1875 27.203125 
L 10.59375 27.203125 
z
" id="DejaVuSans-8722"/>
      <path d="M 7.078125 -15.578125 
L 7.078125 -10.796875 
Q 14.59375 -5.609375 17.890625 3.78125 
Q 21.1875 13.1875 21.1875 30.171875 
Q 21.1875 47.21875 17.890625 56.609375 
Q 14.59375 66.015625 7.078125 71.1875 
L 7.078125 75.984375 
Q 19 70.65625 25.046875 59.109375 
Q 31.109375 47.5625 31.109375 30.171875 
Q 31.109375 12.84375 25.046875 1.296875 
Q 19 -10.25 7.078125 -15.578125 
z
" id="DejaVuSerif-41"/>
     </defs>
     <g transform="translate(21.090916 271.533281)scale(0.14 -0.14)">
      <use transform="translate(0 0.765625)" xlink:href="#DejaVuSerif-68"/>
      <use transform="translate(80.175781 0.765625)" xlink:href="#DejaVuSerif-105"/>
      <use transform="translate(112.158203 0.765625)" xlink:href="#DejaVuSerif-102"/>
      <use transform="translate(149.169922 0.765625)" xlink:href="#DejaVuSerif-102"/>
      <use transform="translate(186.181641 0.765625)" xlink:href="#DejaVuSerif-117"/>
      <use transform="translate(250.585938 0.765625)" xlink:href="#DejaVuSerif-115"/>
      <use transform="translate(301.904297 0.765625)" xlink:href="#DejaVuSerif-105"/>
      <use transform="translate(333.886719 0.765625)" xlink:href="#DejaVuSerif-111"/>
      <use transform="translate(394.091797 0.765625)" xlink:href="#DejaVuSerif-110"/>
      <use transform="translate(458.496094 0.765625)" xlink:href="#DejaVuSerif-32"/>
      <use transform="translate(490.283203 0.765625)" xlink:href="#DejaVuSerif-99"/>
      <use transform="translate(546.289062 0.765625)" xlink:href="#DejaVuSerif-111"/>
      <use transform="translate(606.494141 0.765625)" xlink:href="#DejaVuSerif-110"/>
      <use transform="translate(670.898438 0.765625)" xlink:href="#DejaVuSerif-115"/>
      <use transform="translate(722.216797 0.765625)" xlink:href="#DejaVuSerif-116"/>
      <use transform="translate(762.402344 0.765625)" xlink:href="#DejaVuSerif-97"/>
      <use transform="translate(822.021484 0.765625)" xlink:href="#DejaVuSerif-110"/>
      <use transform="translate(886.425781 0.765625)" xlink:href="#DejaVuSerif-116"/>
      <use transform="translate(926.611328 0.765625)" xlink:href="#DejaVuSerif-44"/>
      <use transform="translate(958.398438 0.765625)" xlink:href="#DejaVuSerif-32"/>
      <use transform="translate(990.185547 0.765625)" xlink:href="#DejaVuSerif-68"/>
      <use transform="translate(1070.361328 0.765625)" xlink:href="#DejaVuSerif-32"/>
      <use transform="translate(1102.148438 0.765625)" xlink:href="#DejaVuSerif-40"/>
      <use transform="translate(1141.162109 0.765625)" xlink:href="#DejaVuSerif-32"/>
      <use transform="translate(1172.949219 0.765625)" xlink:href="#DejaVuSans-Oblique-956"/>
      <use transform="translate(1236.572266 0.765625)" xlink:href="#DejaVuSans-Oblique-109"/>
      <use transform="translate(1338.634271 39.046875)scale(0.7)" xlink:href="#DejaVuSans-50"/>
      <use transform="translate(1385.904779 0.765625)" xlink:href="#DejaVuSans-Oblique-115"/>
      <use transform="translate(1442.654284 39.046875)scale(0.7)" xlink:href="#DejaVuSans-8722"/>
      <use transform="translate(1501.306628 39.046875)scale(0.7)" xlink:href="#DejaVuSans-49"/>
      <use transform="translate(1548.577135 0.765625)" xlink:href="#DejaVuSerif-32"/>
      <use transform="translate(1580.364245 0.765625)" xlink:href="#DejaVuSerif-41"/>
     </g>
    </g>
   </g>
   <g id="matplotlib.axis_2">
    <g id="ytick_1">
     <g id="line2d_3">
      <defs>
       <path d="M 0 0 
L -5 0 
" id="mdf4bcc1847" style="stroke:#000000;"/>
      </defs>
      <g>
       <use style="stroke:#000000;" x="70.495938" xlink:href="#mdf4bcc1847" y="230.743906"/>
      </g>
     </g>
     <g id="text_4">
      <!-- −0.8 -->
      <defs>
       <path d="M 10.6875 12.40625 
L 21 12.40625 
L 21 0 
L 10.6875 0 
z
" id="DejaVuSans-46"/>
       <path d="M 31.78125 34.625 
Q 24.75 34.625 20.71875 30.859375 
Q 16.703125 27.09375 16.703125 20.515625 
Q 16.703125 13.921875 20.71875 10.15625 
Q 24.75 6.390625 31.78125 6.390625 
Q 38.8125 6.390625 42.859375 10.171875 
Q 46.921875 13.96875 46.921875 20.515625 
Q 46.921875 27.09375 42.890625 30.859375 
Q 38.875 34.625 31.78125 34.625 
z
M 21.921875 38.8125 
Q 15.578125 40.375 12.03125 44.71875 
Q 8.5 49.078125 8.5 55.328125 
Q 8.5 64.0625 14.71875 69.140625 
Q 20.953125 74.21875 31.78125 74.21875 
Q 42.671875 74.21875 48.875 69.140625 
Q 55.078125 64.0625 55.078125 55.328125 
Q 55.078125 49.078125 51.53125 44.71875 
Q 48 40.375 41.703125 38.8125 
Q 48.828125 37.15625 52.796875 32.3125 
Q 56.78125 27.484375 56.78125 20.515625 
Q 56.78125 9.90625 50.3125 4.234375 
Q 43.84375 -1.421875 31.78125 -1.421875 
Q 19.734375 -1.421875 13.25 4.234375 
Q 6.78125 9.90625 6.78125 20.515625 
Q 6.78125 27.484375 10.78125 32.3125 
Q 14.796875 37.15625 21.921875 38.8125 
z
M 18.3125 54.390625 
Q 18.3125 48.734375 21.84375 45.5625 
Q 25.390625 42.390625 31.78125 42.390625 
Q 38.140625 42.390625 41.71875 45.5625 
Q 45.3125 48.734375 45.3125 54.390625 
Q 45.3125 60.0625 41.71875 63.234375 
Q 38.140625 66.40625 31.78125 66.40625 
Q 25.390625 66.40625 21.84375 63.234375 
Q 18.3125 60.0625 18.3125 54.390625 
z
" id="DejaVuSans-56"/>
      </defs>
      <g transform="translate(28 236.062813)scale(0.14 -0.14)">
       <use xlink:href="#DejaVuSans-8722"/>
       <use x="83.789062" xlink:href="#DejaVuSans-48"/>
       <use x="147.412109" xlink:href="#DejaVuSans-46"/>
       <use x="179.199219" xlink:href="#DejaVuSans-56"/>
      </g>
     </g>
    </g>
    <g id="ytick_2">
     <g id="line2d_4">
      <g>
       <use style="stroke:#000000;" x="70.495938" xlink:href="#mdf4bcc1847" y="187.098906"/>
      </g>
     </g>
     <g id="text_5">
      <!-- −0.6 -->
      <defs>
       <path d="M 33.015625 40.375 
Q 26.375 40.375 22.484375 35.828125 
Q 18.609375 31.296875 18.609375 23.390625 
Q 18.609375 15.53125 22.484375 10.953125 
Q 26.375 6.390625 33.015625 6.390625 
Q 39.65625 6.390625 43.53125 10.953125 
Q 47.40625 15.53125 47.40625 23.390625 
Q 47.40625 31.296875 43.53125 35.828125 
Q 39.65625 40.375 33.015625 40.375 
z
M 52.59375 71.296875 
L 52.59375 62.3125 
Q 48.875 64.0625 45.09375 64.984375 
Q 41.3125 65.921875 37.59375 65.921875 
Q 27.828125 65.921875 22.671875 59.328125 
Q 17.53125 52.734375 16.796875 39.40625 
Q 19.671875 43.65625 24.015625 45.921875 
Q 28.375 48.1875 33.59375 48.1875 
Q 44.578125 48.1875 50.953125 41.515625 
Q 57.328125 34.859375 57.328125 23.390625 
Q 57.328125 12.15625 50.6875 5.359375 
Q 44.046875 -1.421875 33.015625 -1.421875 
Q 20.359375 -1.421875 13.671875 8.265625 
Q 6.984375 17.96875 6.984375 36.375 
Q 6.984375 53.65625 15.1875 63.9375 
Q 23.390625 74.21875 37.203125 74.21875 
Q 40.921875 74.21875 44.703125 73.484375 
Q 48.484375 72.75 52.59375 71.296875 
z
" id="DejaVuSans-54"/>
      </defs>
      <g transform="translate(28 192.417813)scale(0.14 -0.14)">
       <use xlink:href="#DejaVuSans-8722"/>
       <use x="83.789062" xlink:href="#DejaVuSans-48"/>
       <use x="147.412109" xlink:href="#DejaVuSans-46"/>
       <use x="179.199219" xlink:href="#DejaVuSans-54"/>
      </g>
     </g>
    </g>
    <g id="ytick_3">
     <g id="line2d_5">
      <g>
       <use style="stroke:#000000;" x="70.495938" xlink:href="#mdf4bcc1847" y="143.453906"/>
      </g>
     </g>
     <g id="text_6">
      <!-- −0.4 -->
      <defs>
       <path d="M 37.796875 64.3125 
L 12.890625 25.390625 
L 37.796875 25.390625 
z
M 35.203125 72.90625 
L 47.609375 72.90625 
L 47.609375 25.390625 
L 58.015625 25.390625 
L 58.015625 17.1875 
L 47.609375 17.1875 
L 47.609375 0 
L 37.796875 0 
L 37.796875 17.1875 
L 4.890625 17.1875 
L 4.890625 26.703125 
z
" id="DejaVuSans-52"/>
      </defs>
      <g transform="translate(28 148.772813)scale(0.14 -0.14)">
       <use xlink:href="#DejaVuSans-8722"/>
       <use x="83.789062" xlink:href="#DejaVuSans-48"/>
       <use x="147.412109" xlink:href="#DejaVuSans-46"/>
       <use x="179.199219" xlink:href="#DejaVuSans-52"/>
      </g>
     </g>
    </g>
    <g id="ytick_4">
     <g id="line2d_6">
      <g>
       <use style="stroke:#000000;" x="70.495938" xlink:href="#mdf4bcc1847" y="99.808906"/>
      </g>
     </g>
     <g id="text_7">
      <!-- −0.2 -->
      <g transform="translate(28 105.127813)scale(0.14 -0.14)">
       <use xlink:href="#DejaVuSans-8722"/>
       <use x="83.789062" xlink:href="#DejaVuSans-48"/>
       <use x="147.412109" xlink:href="#DejaVuSans-46"/>
       <use x="179.199219" xlink:href="#DejaVuSans-50"/>
      </g>
     </g>
    </g>
    <g id="ytick_5">
     <g id="line2d_7">
      <g>
       <use style="stroke:#000000;" x="70.495938" xlink:href="#mdf4bcc1847" y="56.163906"/>
      </g>
     </g>
     <g id="text_8">
      <!-- 0.0 -->
      <g transform="translate(39.731563 61.482813)scale(0.14 -0.14)">
       <use xlink:href="#DejaVuSans-48"/>
       <use x="63.623047" xlink:href="#DejaVuSans-46"/>
       <use x="95.410156" xlink:href="#DejaVuSans-48"/>
      </g>
     </g>
    </g>
    <g id="ytick_6">
     <g id="line2d_8">
      <g>
       <use style="stroke:#000000;" x="70.495938" xlink:href="#mdf4bcc1847" y="12.518906"/>
      </g>
     </g>
     <g id="text_9">
      <!-- 0.2 -->
      <g transform="translate(39.731563 17.837813)scale(0.14 -0.14)">
       <use xlink:href="#DejaVuSans-48"/>
       <use x="63.623047" xlink:href="#DejaVuSans-46"/>
       <use x="95.410156" xlink:href="#DejaVuSans-50"/>
      </g>
     </g>
    </g>
    <g id="text_10">
     <!-- Force Correlation, $\langle F_{x}^{j} F_{x}^{k} \rangle \; (pN^2)$  -->
     <defs>
      <path d="M 5.515625 0 
L 5.515625 5.171875 
L 14.796875 5.171875 
L 14.796875 67.671875 
L 5.515625 67.671875 
L 5.515625 72.90625 
L 65.1875 72.90625 
L 65.1875 56.6875 
L 59.1875 56.6875 
L 59.1875 66.890625 
L 24.703125 66.890625 
L 24.703125 42.484375 
L 49.609375 42.484375 
L 49.609375 51.609375 
L 55.609375 51.609375 
L 55.609375 27.390625 
L 49.609375 27.390625 
L 49.609375 36.53125 
L 24.703125 36.53125 
L 24.703125 5.171875 
L 36.375 5.171875 
L 36.375 0 
z
" id="DejaVuSerif-70"/>
      <path d="M 47.796875 52 
L 47.796875 39.015625 
L 42.625 39.015625 
Q 42.390625 42.875 40.484375 44.78125 
Q 38.578125 46.6875 34.90625 46.6875 
Q 28.265625 46.6875 24.71875 42.09375 
Q 21.1875 37.5 21.1875 28.90625 
L 21.1875 5.171875 
L 31.59375 5.171875 
L 31.59375 0 
L 4.109375 0 
L 4.109375 5.171875 
L 12.203125 5.171875 
L 12.203125 46.78125 
L 3.609375 46.78125 
L 3.609375 51.90625 
L 21.1875 51.90625 
L 21.1875 42.671875 
Q 23.828125 48.09375 27.96875 50.703125 
Q 32.125 53.328125 38.09375 53.328125 
Q 40.28125 53.328125 42.703125 52.984375 
Q 45.125 52.640625 47.796875 52 
z
" id="DejaVuSerif-114"/>
      <path d="M 54.203125 25 
L 15.484375 25 
L 15.484375 24.609375 
Q 15.484375 14.109375 19.4375 8.765625 
Q 23.390625 3.421875 31.109375 3.421875 
Q 37.015625 3.421875 40.796875 6.515625 
Q 44.578125 9.625 46.09375 15.71875 
L 53.328125 15.71875 
Q 51.171875 7.171875 45.375 2.875 
Q 39.59375 -1.421875 30.171875 -1.421875 
Q 18.796875 -1.421875 11.890625 6.078125 
Q 4.984375 13.578125 4.984375 25.984375 
Q 4.984375 38.28125 11.765625 45.796875 
Q 18.5625 53.328125 29.59375 53.328125 
Q 41.359375 53.328125 47.65625 46.0625 
Q 53.953125 38.8125 54.203125 25 
z
M 43.609375 30.171875 
Q 43.3125 39.265625 39.765625 43.875 
Q 36.234375 48.484375 29.59375 48.484375 
Q 23.390625 48.484375 19.828125 43.84375 
Q 16.265625 39.203125 15.484375 30.171875 
z
" id="DejaVuSerif-101"/>
      <path d="M 70.515625 19.28125 
Q 67.28125 9.078125 59.6875 3.828125 
Q 52.09375 -1.421875 40.484375 -1.421875 
Q 33.34375 -1.421875 27.234375 1.015625 
Q 21.140625 3.46875 16.40625 8.203125 
Q 10.9375 13.671875 8.265625 20.625 
Q 5.609375 27.59375 5.609375 36.375 
Q 5.609375 53.375 15.421875 63.796875 
Q 25.25 74.21875 41.3125 74.21875 
Q 47.265625 74.21875 54 72.65625 
Q 60.75 71.09375 68.5 67.921875 
L 68.5 51.125 
L 62.984375 51.125 
Q 61.1875 60.296875 55.734375 64.640625 
Q 50.296875 69 40.484375 69 
Q 28.8125 69 22.796875 60.71875 
Q 16.796875 52.4375 16.796875 36.375 
Q 16.796875 20.359375 22.796875 12.078125 
Q 28.8125 3.8125 40.484375 3.8125 
Q 48.640625 3.8125 53.90625 7.6875 
Q 59.1875 11.578125 61.53125 19.28125 
z
" id="DejaVuSerif-67"/>
      <path d="M 20.515625 5.171875 
L 29 5.171875 
L 29 0 
L 2.875 0 
L 2.875 5.171875 
L 11.53125 5.171875 
L 11.53125 70.796875 
L 2.875 70.796875 
L 2.875 75.984375 
L 20.515625 75.984375 
z
" id="DejaVuSerif-108"/>
      <path d="M 8.9375 31.34375 
L 22.703125 75.875 
L 31 75.875 
L 17.234375 31.34375 
L 31 -13.1875 
L 22.703125 -13.1875 
z
" id="DejaVuSans-10216"/>
      <path d="M 16.890625 72.90625 
L 58.6875 72.90625 
L 57.078125 64.59375 
L 25.09375 64.59375 
L 20.90625 43.109375 
L 49.8125 43.109375 
L 48.1875 34.8125 
L 19.28125 34.8125 
L 12.5 0 
L 2.6875 0 
z
" id="DejaVuSans-Oblique-70"/>
      <path d="M 14.5 54.6875 
L 23.484375 54.6875 
L 12.703125 -0.984375 
L 12.640625 -1.21875 
Q 10.84375 -10.546875 8.5 -14.015625 
Q 6.296875 -17.28125 2.0625 -19.03125 
Q -2.15625 -20.796875 -7.90625 -20.796875 
L -11.28125 -20.796875 
L -9.8125 -13.1875 
L -7.515625 -13.1875 
Q -2.25 -13.1875 -0.015625 -10.984375 
Q 2.203125 -8.796875 3.71875 -0.984375 
z
M 18.703125 75.984375 
L 27.6875 75.984375 
L 25.484375 64.59375 
L 16.5 64.59375 
z
" id="DejaVuSans-Oblique-106"/>
      <path d="M 60.015625 54.6875 
L 34.90625 27.875 
L 50.296875 0 
L 39.984375 0 
L 28.421875 21.6875 
L 8.296875 0 
L -2.59375 0 
L 24.3125 28.8125 
L 10.015625 54.6875 
L 20.3125 54.6875 
L 30.8125 34.90625 
L 49.125 54.6875 
z
" id="DejaVuSans-Oblique-120"/>
      <path d="M 18.3125 75.984375 
L 27.296875 75.984375 
L 18.703125 31.6875 
L 49.515625 54.6875 
L 61.1875 54.6875 
L 26.8125 28.515625 
L 51.90625 0 
L 41.015625 0 
L 17.671875 26.703125 
L 12.5 0 
L 3.515625 0 
z
" id="DejaVuSans-Oblique-107"/>
      <path d="M 30.078125 31.34375 
L 16.3125 -13.1875 
L 8.015625 -13.1875 
L 21.78125 31.34375 
L 8.015625 75.875 
L 16.3125 75.875 
z
" id="DejaVuSans-10217"/>
      <path d="M 31 75.875 
Q 24.46875 64.65625 21.28125 53.65625 
Q 18.109375 42.671875 18.109375 31.390625 
Q 18.109375 20.125 21.3125 9.0625 
Q 24.515625 -2 31 -13.1875 
L 23.1875 -13.1875 
Q 15.875 -1.703125 12.234375 9.375 
Q 8.59375 20.453125 8.59375 31.390625 
Q 8.59375 42.28125 12.203125 53.3125 
Q 15.828125 64.359375 23.1875 75.875 
z
" id="DejaVuSans-40"/>
      <path d="M 49.609375 33.6875 
Q 49.609375 40.875 46.484375 44.671875 
Q 43.359375 48.484375 37.5 48.484375 
Q 33.5 48.484375 29.859375 46.4375 
Q 26.21875 44.390625 23.390625 40.484375 
Q 20.609375 36.625 18.9375 31.15625 
Q 17.28125 25.6875 17.28125 20.3125 
Q 17.28125 13.484375 20.40625 9.796875 
Q 23.53125 6.109375 29.296875 6.109375 
Q 33.546875 6.109375 37.1875 8.109375 
Q 40.828125 10.109375 43.40625 13.921875 
Q 46.1875 17.921875 47.890625 23.34375 
Q 49.609375 28.765625 49.609375 33.6875 
z
M 21.78125 46.390625 
Q 25.390625 51.125 30.296875 53.5625 
Q 35.203125 56 41.21875 56 
Q 49.609375 56 54.25 50.5 
Q 58.890625 45.015625 58.890625 35.109375 
Q 58.890625 27 56 19.65625 
Q 53.125 12.3125 47.703125 6.5 
Q 44.09375 2.640625 39.546875 0.609375 
Q 35.015625 -1.421875 29.984375 -1.421875 
Q 24.171875 -1.421875 20.21875 1 
Q 16.265625 3.421875 14.3125 8.203125 
L 8.6875 -20.796875 
L -0.296875 -20.796875 
L 14.40625 54.6875 
L 23.390625 54.6875 
z
" id="DejaVuSans-Oblique-112"/>
      <path d="M 16.890625 72.90625 
L 30.171875 72.90625 
L 50.296875 10.40625 
L 62.5 72.90625 
L 72.125 72.90625 
L 57.90625 0 
L 44.578125 0 
L 24.515625 62.890625 
L 12.3125 0 
L 2.6875 0 
z
" id="DejaVuSans-Oblique-78"/>
      <path d="M 8.015625 75.875 
L 15.828125 75.875 
Q 23.140625 64.359375 26.78125 53.3125 
Q 30.421875 42.28125 30.421875 31.390625 
Q 30.421875 20.453125 26.78125 9.375 
Q 23.140625 -1.703125 15.828125 -13.1875 
L 8.015625 -13.1875 
Q 14.5 -2 17.703125 9.0625 
Q 20.90625 20.125 20.90625 31.390625 
Q 20.90625 42.671875 17.703125 53.65625 
Q 14.5 64.65625 8.015625 75.875 
z
" id="DejaVuSans-41"/>
     </defs>
     <g transform="translate(20.08 232.581406)rotate(-90)scale(0.14 -0.14)">
      <use transform="translate(0 0.529687)" xlink:href="#DejaVuSerif-70"/>
      <use transform="translate(69.384766 0.529687)" xlink:href="#DejaVuSerif-111"/>
      <use transform="translate(129.589844 0.529687)" xlink:href="#DejaVuSerif-114"/>
      <use transform="translate(177.392578 0.529687)" xlink:href="#DejaVuSerif-99"/>
      <use transform="translate(233.398438 0.529687)" xlink:href="#DejaVuSerif-101"/>
      <use transform="translate(292.578125 0.529687)" xlink:href="#DejaVuSerif-32"/>
      <use transform="translate(324.365234 0.529687)" xlink:href="#DejaVuSerif-67"/>
      <use transform="translate(400.878906 0.529687)" xlink:href="#DejaVuSerif-111"/>
      <use transform="translate(461.083984 0.529687)" xlink:href="#DejaVuSerif-114"/>
      <use transform="translate(508.886719 0.529687)" xlink:href="#DejaVuSerif-114"/>
      <use transform="translate(556.689453 0.529687)" xlink:href="#DejaVuSerif-101"/>
      <use transform="translate(615.869141 0.529687)" xlink:href="#DejaVuSerif-108"/>
      <use transform="translate(647.851562 0.529687)" xlink:href="#DejaVuSerif-97"/>
      <use transform="translate(707.470703 0.529687)" xlink:href="#DejaVuSerif-116"/>
      <use transform="translate(747.65625 0.529687)" xlink:href="#DejaVuSerif-105"/>
      <use transform="translate(779.638672 0.529687)" xlink:href="#DejaVuSerif-111"/>
      <use transform="translate(839.84375 0.529687)" xlink:href="#DejaVuSerif-110"/>
      <use transform="translate(904.248047 0.529687)" xlink:href="#DejaVuSerif-44"/>
      <use transform="translate(936.035156 0.529687)" xlink:href="#DejaVuSerif-32"/>
      <use transform="translate(967.822266 0.529687)" xlink:href="#DejaVuSans-10216"/>
      <use transform="translate(1006.835938 0.529687)" xlink:href="#DejaVuSans-Oblique-70"/>
      <use transform="translate(1071.37224 38.810938)scale(0.7)" xlink:href="#DejaVuSans-Oblique-106"/>
      <use transform="translate(1064.355469 -26.814063)scale(0.7)" xlink:href="#DejaVuSans-Oblique-120"/>
      <use transform="translate(1108.515625 0.529687)" xlink:href="#DejaVuSans-Oblique-70"/>
      <use transform="translate(1173.051927 38.810938)scale(0.7)" xlink:href="#DejaVuSans-Oblique-107"/>
      <use transform="translate(1166.035156 -26.814063)scale(0.7)" xlink:href="#DejaVuSans-Oblique-120"/>
      <use transform="translate(1216.323411 0.529687)" xlink:href="#DejaVuSans-10217"/>
      <use transform="translate(1282.396219 0.529687)" xlink:href="#DejaVuSans-40"/>
      <use transform="translate(1321.409891 0.529687)" xlink:href="#DejaVuSans-Oblique-112"/>
      <use transform="translate(1384.886453 0.529687)" xlink:href="#DejaVuSans-Oblique-78"/>
      <use transform="translate(1466.707912 38.810937)scale(0.7)" xlink:href="#DejaVuSans-50"/>
      <use transform="translate(1513.97842 0.529687)" xlink:href="#DejaVuSans-41"/>
      <use transform="translate(1552.992091 0.529687)" xlink:href="#DejaVuSerif-32"/>
     </g>
    </g>
   </g>
   <g id="LineCollection_1">
    <path clip-path="url(#p0f92725551)" d="M 80.600408 209.830175 
L 80.600408 194.914825 
" style="fill:none;stroke:#4d5e76;stroke-width:1.5;"/>
    <path clip-path="url(#p0f92725551)" d="M 161.43617 58.289145 
L 161.43617 57.428003 
" style="fill:none;stroke:#4d5e76;stroke-width:1.5;"/>
   </g>
   <g id="LineCollection_2">
    <path clip-path="url(#p0f92725551)" d="M 94.073035 189.458468 
L 94.073035 173.981599 
" style="fill:none;stroke:#c66037;stroke-width:1.5;"/>
    <path clip-path="url(#p0f92725551)" d="M 174.908797 59.646109 
L 174.908797 58.476456 
" style="fill:none;stroke:#c66037;stroke-width:1.5;"/>
   </g>
   <g id="LineCollection_3">
    <path clip-path="url(#p0f92725551)" d="M 107.545662 199.820564 
L 107.545662 169.160493 
" style="fill:none;stroke:#edcb51;stroke-width:1.5;"/>
    <path clip-path="url(#p0f92725551)" d="M 188.381424 58.501228 
L 188.381424 57.498447 
" style="fill:none;stroke:#edcb51;stroke-width:1.5;"/>
   </g>
   <g id="LineCollection_4">
    <path clip-path="url(#p0f92725551)" d="M 84.642196 184.963281 
L 84.642196 170.575697 
" style="fill:none;stroke:#4d5e76;stroke-width:1.5;"/>
    <path clip-path="url(#p0f92725551)" d="M 165.477958 56.566109 
L 165.477958 55.597317 
" style="fill:none;stroke:#4d5e76;stroke-width:1.5;"/>
   </g>
   <g id="LineCollection_5">
    <path clip-path="url(#p0f92725551)" d="M 98.114823 145.703595 
L 98.114823 134.494017 
" style="fill:none;stroke:#c66037;stroke-width:1.5;"/>
    <path clip-path="url(#p0f92725551)" d="M 178.950585 57.689902 
L 178.950585 56.082542 
" style="fill:none;stroke:#c66037;stroke-width:1.5;"/>
   </g>
   <g id="LineCollection_6">
    <path clip-path="url(#p0f92725551)" d="M 111.58745 167.755767 
L 111.58745 145.304013 
" style="fill:none;stroke:#edcb51;stroke-width:1.5;"/>
    <path clip-path="url(#p0f92725551)" d="M 192.423212 61.26677 
L 192.423212 58.287386 
" style="fill:none;stroke:#edcb51;stroke-width:1.5;"/>
   </g>
   <g id="line2d_9">
    <defs>
     <path d="M 3 0 
L -3 -0 
" id="mbf49ed3c8c" style="stroke:#4d5e76;"/>
    </defs>
    <g clip-path="url(#p0f92725551)">
     <use style="fill:#4d5e76;stroke:#4d5e76;" x="80.600408" xlink:href="#mbf49ed3c8c" y="209.830175"/>
     <use style="fill:#4d5e76;stroke:#4d5e76;" x="161.43617" xlink:href="#mbf49ed3c8c" y="58.289145"/>
    </g>
   </g>
   <g id="line2d_10">
    <g clip-path="url(#p0f92725551)">
     <use style="fill:#4d5e76;stroke:#4d5e76;" x="80.600408" xlink:href="#mbf49ed3c8c" y="194.914825"/>
     <use style="fill:#4d5e76;stroke:#4d5e76;" x="161.43617" xlink:href="#mbf49ed3c8c" y="57.428003"/>
    </g>
   </g>
   <g id="line2d_11">
    <path clip-path="url(#p0f92725551)" d="M 80.600408 56.163906 
L 80.600408 202.3725 
" style="fill:none;stroke:#000000;stroke-linecap:square;stroke-width:0.7;"/>
   </g>
   <g id="line2d_12">
    <path clip-path="url(#p0f92725551)" d="M 161.43617 56.163906 
L 161.43617 57.858574 
" style="fill:none;stroke:#000000;stroke-linecap:square;stroke-width:0.7;"/>
   </g>
   <g id="line2d_13">
    <defs>
     <path d="M 3 0 
L -3 -0 
" id="m566e8ed9b4" style="stroke:#c66037;"/>
    </defs>
    <g clip-path="url(#p0f92725551)">
     <use style="fill:#c66037;stroke:#c66037;" x="94.073035" xlink:href="#m566e8ed9b4" y="189.458468"/>
     <use style="fill:#c66037;stroke:#c66037;" x="174.908797" xlink:href="#m566e8ed9b4" y="59.646109"/>
    </g>
   </g>
   <g id="line2d_14">
    <g clip-path="url(#p0f92725551)">
     <use style="fill:#c66037;stroke:#c66037;" x="94.073035" xlink:href="#m566e8ed9b4" y="173.981599"/>
     <use style="fill:#c66037;stroke:#c66037;" x="174.908797" xlink:href="#m566e8ed9b4" y="58.476456"/>
    </g>
   </g>
   <g id="line2d_15">
    <path clip-path="url(#p0f92725551)" d="M 94.073035 56.163906 
L 94.073035 181.720034 
" style="fill:none;stroke:#000000;stroke-linecap:square;stroke-width:0.7;"/>
   </g>
   <g id="line2d_16">
    <path clip-path="url(#p0f92725551)" d="M 174.908797 56.163906 
L 174.908797 59.061282 
" style="fill:none;stroke:#000000;stroke-linecap:square;stroke-width:0.7;"/>
   </g>
   <g id="line2d_17">
    <defs>
     <path d="M 3 0 
L -3 -0 
" id="m988e99ca7d" style="stroke:#edcb51;"/>
    </defs>
    <g clip-path="url(#p0f92725551)">
     <use style="fill:#edcb51;stroke:#edcb51;" x="107.545662" xlink:href="#m988e99ca7d" y="199.820564"/>
     <use style="fill:#edcb51;stroke:#edcb51;" x="188.381424" xlink:href="#m988e99ca7d" y="58.501228"/>
    </g>
   </g>
   <g id="line2d_18">
    <g clip-path="url(#p0f92725551)">
     <use style="fill:#edcb51;stroke:#edcb51;" x="107.545662" xlink:href="#m988e99ca7d" y="169.160493"/>
     <use style="fill:#edcb51;stroke:#edcb51;" x="188.381424" xlink:href="#m988e99ca7d" y="57.498447"/>
    </g>
   </g>
   <g id="line2d_19">
    <path clip-path="url(#p0f92725551)" d="M 107.545662 56.163906 
L 107.545662 184.490528 
" style="fill:none;stroke:#000000;stroke-linecap:square;stroke-width:0.7;"/>
   </g>
   <g id="line2d_20">
    <path clip-path="url(#p0f92725551)" d="M 188.381424 56.163906 
L 188.381424 57.999837 
" style="fill:none;stroke:#000000;stroke-linecap:square;stroke-width:0.7;"/>
   </g>
   <g id="line2d_21">
    <g clip-path="url(#p0f92725551)">
     <use style="fill:#4d5e76;stroke:#4d5e76;" x="84.642196" xlink:href="#mbf49ed3c8c" y="184.963281"/>
     <use style="fill:#4d5e76;stroke:#4d5e76;" x="165.477958" xlink:href="#mbf49ed3c8c" y="56.566109"/>
    </g>
   </g>
   <g id="line2d_22">
    <g clip-path="url(#p0f92725551)">
     <use style="fill:#4d5e76;stroke:#4d5e76;" x="84.642196" xlink:href="#mbf49ed3c8c" y="170.575697"/>
     <use style="fill:#4d5e76;stroke:#4d5e76;" x="165.477958" xlink:href="#mbf49ed3c8c" y="55.597317"/>
    </g>
   </g>
   <g id="line2d_23">
    <path clip-path="url(#p0f92725551)" d="M 84.642196 56.163906 
L 84.642196 177.769489 
" style="fill:none;stroke:#000000;stroke-linecap:square;stroke-width:0.7;"/>
   </g>
   <g id="line2d_24">
    <path clip-path="url(#p0f92725551)" d="M 165.477958 56.163906 
L 165.477958 56.081713 
" style="fill:none;stroke:#000000;stroke-linecap:square;stroke-width:0.7;"/>
   </g>
   <g id="line2d_25">
    <g clip-path="url(#p0f92725551)">
     <use style="fill:#c66037;stroke:#c66037;" x="98.114823" xlink:href="#m566e8ed9b4" y="145.703595"/>
     <use style="fill:#c66037;stroke:#c66037;" x="178.950585" xlink:href="#m566e8ed9b4" y="57.689902"/>
    </g>
   </g>
   <g id="line2d_26">
    <g clip-path="url(#p0f92725551)">
     <use style="fill:#c66037;stroke:#c66037;" x="98.114823" xlink:href="#m566e8ed9b4" y="134.494017"/>
     <use style="fill:#c66037;stroke:#c66037;" x="178.950585" xlink:href="#m566e8ed9b4" y="56.082542"/>
    </g>
   </g>
   <g id="line2d_27">
    <path clip-path="url(#p0f92725551)" d="M 98.114823 56.163906 
L 98.114823 140.098806 
" style="fill:none;stroke:#000000;stroke-linecap:square;stroke-width:0.7;"/>
   </g>
   <g id="line2d_28">
    <path clip-path="url(#p0f92725551)" d="M 178.950585 56.163906 
L 178.950585 56.886222 
" style="fill:none;stroke:#000000;stroke-linecap:square;stroke-width:0.7;"/>
   </g>
   <g id="line2d_29">
    <g clip-path="url(#p0f92725551)">
     <use style="fill:#edcb51;stroke:#edcb51;" x="111.58745" xlink:href="#m988e99ca7d" y="167.755767"/>
     <use style="fill:#edcb51;stroke:#edcb51;" x="192.423212" xlink:href="#m988e99ca7d" y="61.26677"/>
    </g>
   </g>
   <g id="line2d_30">
    <g clip-path="url(#p0f92725551)">
     <use style="fill:#edcb51;stroke:#edcb51;" x="111.58745" xlink:href="#m988e99ca7d" y="145.304013"/>
     <use style="fill:#edcb51;stroke:#edcb51;" x="192.423212" xlink:href="#m988e99ca7d" y="58.287386"/>
    </g>
   </g>
   <g id="line2d_31">
    <path clip-path="url(#p0f92725551)" d="M 111.58745 56.163906 
L 111.58745 156.52989 
" style="fill:none;stroke:#000000;stroke-linecap:square;stroke-width:0.7;"/>
   </g>
   <g id="line2d_32">
    <path clip-path="url(#p0f92725551)" d="M 192.423212 56.163906 
L 192.423212 59.777078 
" style="fill:none;stroke:#000000;stroke-linecap:square;stroke-width:0.7;"/>
   </g>
   <g id="line2d_33">
    <path clip-path="url(#p0f92725551)" d="M 70.495938 56.163906 
L 198.485894 56.163906 
" style="fill:none;stroke:#000000;stroke-dasharray:4.44,1.92;stroke-dashoffset:0;stroke-width:1.2;"/>
   </g>
   <g id="line2d_34">
    <defs>
     <path d="M 0 3.5 
C 0.928211 3.5 1.81853 3.131218 2.474874 2.474874 
C 3.131218 1.81853 3.5 0.928211 3.5 0 
C 3.5 -0.928211 3.131218 -1.81853 2.474874 -2.474874 
C 1.81853 -3.131218 0.928211 -3.5 0 -3.5 
C -0.928211 -3.5 -1.81853 -3.131218 -2.474874 -2.474874 
C -3.131218 -1.81853 -3.5 -0.928211 -3.5 0 
C -3.5 0.928211 -3.131218 1.81853 -2.474874 2.474874 
C -1.81853 3.131218 -0.928211 3.5 0 3.5 
z
" id="mcfeb21c5ef" style="stroke:#4d5e76;"/>
    </defs>
    <g clip-path="url(#p0f92725551)">
     <use style="fill:#4d5e76;stroke:#4d5e76;" x="80.600408" xlink:href="#mcfeb21c5ef" y="202.3725"/>
     <use style="fill:#4d5e76;stroke:#4d5e76;" x="161.43617" xlink:href="#mcfeb21c5ef" y="57.858574"/>
    </g>
   </g>
   <g id="line2d_35">
    <defs>
     <path d="M 0 3.5 
C 0.928211 3.5 1.81853 3.131218 2.474874 2.474874 
C 3.131218 1.81853 3.5 0.928211 3.5 0 
C 3.5 -0.928211 3.131218 -1.81853 2.474874 -2.474874 
C 1.81853 -3.131218 0.928211 -3.5 0 -3.5 
C -0.928211 -3.5 -1.81853 -3.131218 -2.474874 -2.474874 
C -3.131218 -1.81853 -3.5 -0.928211 -3.5 0 
C -3.5 0.928211 -3.131218 1.81853 -2.474874 2.474874 
C -1.81853 3.131218 -0.928211 3.5 0 3.5 
z
" id="m076572fa45" style="stroke:#c66037;"/>
    </defs>
    <g clip-path="url(#p0f92725551)">
     <use style="fill:#c66037;stroke:#c66037;" x="94.073035" xlink:href="#m076572fa45" y="181.720034"/>
     <use style="fill:#c66037;stroke:#c66037;" x="174.908797" xlink:href="#m076572fa45" y="59.061282"/>
    </g>
   </g>
   <g id="line2d_36">
    <defs>
     <path d="M 0 3.5 
C 0.928211 3.5 1.81853 3.131218 2.474874 2.474874 
C 3.131218 1.81853 3.5 0.928211 3.5 0 
C 3.5 -0.928211 3.131218 -1.81853 2.474874 -2.474874 
C 1.81853 -3.131218 0.928211 -3.5 0 -3.5 
C -0.928211 -3.5 -1.81853 -3.131218 -2.474874 -2.474874 
C -3.131218 -1.81853 -3.5 -0.928211 -3.5 0 
C -3.5 0.928211 -3.131218 1.81853 -2.474874 2.474874 
C -1.81853 3.131218 -0.928211 3.5 0 3.5 
z
" id="m3a2d941d6b" style="stroke:#edcb51;"/>
    </defs>
    <g clip-path="url(#p0f92725551)">
     <use style="fill:#edcb51;stroke:#edcb51;" x="107.545662" xlink:href="#m3a2d941d6b" y="184.490528"/>
     <use style="fill:#edcb51;stroke:#edcb51;" x="188.381424" xlink:href="#m3a2d941d6b" y="57.999837"/>
    </g>
   </g>
   <g id="line2d_37">
    <defs>
     <path d="M 0 -3.5 
L -3.5 3.5 
L 3.5 3.5 
z
" id="mc4786edef1" style="stroke:#4d5e76;stroke-linejoin:miter;"/>
    </defs>
    <g clip-path="url(#p0f92725551)">
     <use style="fill:#4d5e76;stroke:#4d5e76;stroke-linejoin:miter;" x="84.642196" xlink:href="#mc4786edef1" y="177.769489"/>
     <use style="fill:#4d5e76;stroke:#4d5e76;stroke-linejoin:miter;" x="165.477958" xlink:href="#mc4786edef1" y="56.081713"/>
    </g>
   </g>
   <g id="line2d_38">
    <defs>
     <path d="M 0 -3.5 
L -3.5 3.5 
L 3.5 3.5 
z
" id="m18af6962ad" style="stroke:#c66037;stroke-linejoin:miter;"/>
    </defs>
    <g clip-path="url(#p0f92725551)">
     <use style="fill:#c66037;stroke:#c66037;stroke-linejoin:miter;" x="98.114823" xlink:href="#m18af6962ad" y="140.098806"/>
     <use style="fill:#c66037;stroke:#c66037;stroke-linejoin:miter;" x="178.950585" xlink:href="#m18af6962ad" y="56.886222"/>
    </g>
   </g>
   <g id="line2d_39">
    <defs>
     <path d="M 0 -3.5 
L -3.5 3.5 
L 3.5 3.5 
z
" id="m57a151f0c3" style="stroke:#edcb51;stroke-linejoin:miter;"/>
    </defs>
    <g clip-path="url(#p0f92725551)">
     <use style="fill:#edcb51;stroke:#edcb51;stroke-linejoin:miter;" x="111.58745" xlink:href="#m57a151f0c3" y="156.52989"/>
     <use style="fill:#edcb51;stroke:#edcb51;stroke-linejoin:miter;" x="192.423212" xlink:href="#m57a151f0c3" y="59.777078"/>
    </g>
   </g>
   <g id="patch_3">
    <path d="M 70.495938 230.743906 
L 70.495938 12.518906 
" style="fill:none;stroke:#000000;stroke-linecap:square;stroke-linejoin:miter;stroke-width:0.8;"/>
   </g>
   <g id="patch_4">
    <path d="M 198.485894 230.743906 
L 198.485894 12.518906 
" style="fill:none;stroke:#000000;stroke-linecap:square;stroke-linejoin:miter;stroke-width:0.8;"/>
   </g>
   <g id="patch_5">
    <path d="M 70.495938 230.743906 
L 198.485894 230.743906 
" style="fill:none;stroke:#000000;stroke-linecap:square;stroke-linejoin:miter;stroke-width:0.8;"/>
   </g>
   <g id="patch_6">
    <path d="M 70.495938 12.518906 
L 198.485894 12.518906 
" style="fill:none;stroke:#000000;stroke-linecap:square;stroke-linejoin:miter;stroke-width:0.8;"/>
   </g>
  </g>
 </g>
 <defs>
  <clipPath id="p0f92725551">
   <rect height="218.225" width="127.989957" x="70.495938" y="12.518906"/>
  </clipPath>
 </defs>
</svg>
